%TF.GenerationSoftware,KiCad,Pcbnew,8.0.4-8.0.4-0~ubuntu22.04.1*%
%TF.CreationDate,2024-08-18T10:29:15-05:00*%
%TF.ProjectId,Doorbell with External ESP8266,446f6f72-6265-46c6-9c20-776974682045,v1.1*%
%TF.SameCoordinates,Original*%
%TF.FileFunction,Other,Comment*%
%FSLAX46Y46*%
G04 Gerber Fmt 4.6, Leading zero omitted, Abs format (unit mm)*
G04 Created by KiCad (PCBNEW 8.0.4-8.0.4-0~ubuntu22.04.1) date 2024-08-18 10:29:15*
%MOMM*%
%LPD*%
G01*
G04 APERTURE LIST*
%ADD10C,0.150000*%
G04 APERTURE END LIST*
D10*
X63593809Y-22304819D02*
X63593809Y-21304819D01*
X64165237Y-22304819D02*
X63736666Y-21733390D01*
X64165237Y-21304819D02*
X63593809Y-21876247D01*
X64593809Y-21781009D02*
X64927142Y-21781009D01*
X65069999Y-22304819D02*
X64593809Y-22304819D01*
X64593809Y-22304819D02*
X64593809Y-21304819D01*
X64593809Y-21304819D02*
X65069999Y-21304819D01*
X65498571Y-21781009D02*
X65831904Y-21781009D01*
X65974761Y-22304819D02*
X65498571Y-22304819D01*
X65498571Y-22304819D02*
X65498571Y-21304819D01*
X65498571Y-21304819D02*
X65974761Y-21304819D01*
X66403333Y-22304819D02*
X66403333Y-21304819D01*
X66403333Y-21304819D02*
X66784285Y-21304819D01*
X66784285Y-21304819D02*
X66879523Y-21352438D01*
X66879523Y-21352438D02*
X66927142Y-21400057D01*
X66927142Y-21400057D02*
X66974761Y-21495295D01*
X66974761Y-21495295D02*
X66974761Y-21638152D01*
X66974761Y-21638152D02*
X66927142Y-21733390D01*
X66927142Y-21733390D02*
X66879523Y-21781009D01*
X66879523Y-21781009D02*
X66784285Y-21828628D01*
X66784285Y-21828628D02*
X66403333Y-21828628D01*
X68355714Y-21304819D02*
X68546190Y-21304819D01*
X68546190Y-21304819D02*
X68641428Y-21352438D01*
X68641428Y-21352438D02*
X68736666Y-21447676D01*
X68736666Y-21447676D02*
X68784285Y-21638152D01*
X68784285Y-21638152D02*
X68784285Y-21971485D01*
X68784285Y-21971485D02*
X68736666Y-22161961D01*
X68736666Y-22161961D02*
X68641428Y-22257200D01*
X68641428Y-22257200D02*
X68546190Y-22304819D01*
X68546190Y-22304819D02*
X68355714Y-22304819D01*
X68355714Y-22304819D02*
X68260476Y-22257200D01*
X68260476Y-22257200D02*
X68165238Y-22161961D01*
X68165238Y-22161961D02*
X68117619Y-21971485D01*
X68117619Y-21971485D02*
X68117619Y-21638152D01*
X68117619Y-21638152D02*
X68165238Y-21447676D01*
X68165238Y-21447676D02*
X68260476Y-21352438D01*
X68260476Y-21352438D02*
X68355714Y-21304819D01*
X69212857Y-21304819D02*
X69212857Y-22114342D01*
X69212857Y-22114342D02*
X69260476Y-22209580D01*
X69260476Y-22209580D02*
X69308095Y-22257200D01*
X69308095Y-22257200D02*
X69403333Y-22304819D01*
X69403333Y-22304819D02*
X69593809Y-22304819D01*
X69593809Y-22304819D02*
X69689047Y-22257200D01*
X69689047Y-22257200D02*
X69736666Y-22209580D01*
X69736666Y-22209580D02*
X69784285Y-22114342D01*
X69784285Y-22114342D02*
X69784285Y-21304819D01*
X70117619Y-21304819D02*
X70689047Y-21304819D01*
X70403333Y-22304819D02*
X70403333Y-21304819D01*
X63427142Y-24844819D02*
X63427142Y-23844819D01*
X63427142Y-23844819D02*
X63998570Y-24844819D01*
X63998570Y-24844819D02*
X63998570Y-23844819D01*
X64617618Y-24844819D02*
X64522380Y-24797200D01*
X64522380Y-24797200D02*
X64474761Y-24749580D01*
X64474761Y-24749580D02*
X64427142Y-24654342D01*
X64427142Y-24654342D02*
X64427142Y-24368628D01*
X64427142Y-24368628D02*
X64474761Y-24273390D01*
X64474761Y-24273390D02*
X64522380Y-24225771D01*
X64522380Y-24225771D02*
X64617618Y-24178152D01*
X64617618Y-24178152D02*
X64760475Y-24178152D01*
X64760475Y-24178152D02*
X64855713Y-24225771D01*
X64855713Y-24225771D02*
X64903332Y-24273390D01*
X64903332Y-24273390D02*
X64950951Y-24368628D01*
X64950951Y-24368628D02*
X64950951Y-24654342D01*
X64950951Y-24654342D02*
X64903332Y-24749580D01*
X64903332Y-24749580D02*
X64855713Y-24797200D01*
X64855713Y-24797200D02*
X64760475Y-24844819D01*
X64760475Y-24844819D02*
X64617618Y-24844819D01*
X66569999Y-24797200D02*
X66474761Y-24844819D01*
X66474761Y-24844819D02*
X66284285Y-24844819D01*
X66284285Y-24844819D02*
X66189047Y-24797200D01*
X66189047Y-24797200D02*
X66141428Y-24749580D01*
X66141428Y-24749580D02*
X66093809Y-24654342D01*
X66093809Y-24654342D02*
X66093809Y-24368628D01*
X66093809Y-24368628D02*
X66141428Y-24273390D01*
X66141428Y-24273390D02*
X66189047Y-24225771D01*
X66189047Y-24225771D02*
X66284285Y-24178152D01*
X66284285Y-24178152D02*
X66474761Y-24178152D01*
X66474761Y-24178152D02*
X66569999Y-24225771D01*
X67141428Y-24844819D02*
X67046190Y-24797200D01*
X67046190Y-24797200D02*
X66998571Y-24749580D01*
X66998571Y-24749580D02*
X66950952Y-24654342D01*
X66950952Y-24654342D02*
X66950952Y-24368628D01*
X66950952Y-24368628D02*
X66998571Y-24273390D01*
X66998571Y-24273390D02*
X67046190Y-24225771D01*
X67046190Y-24225771D02*
X67141428Y-24178152D01*
X67141428Y-24178152D02*
X67284285Y-24178152D01*
X67284285Y-24178152D02*
X67379523Y-24225771D01*
X67379523Y-24225771D02*
X67427142Y-24273390D01*
X67427142Y-24273390D02*
X67474761Y-24368628D01*
X67474761Y-24368628D02*
X67474761Y-24654342D01*
X67474761Y-24654342D02*
X67427142Y-24749580D01*
X67427142Y-24749580D02*
X67379523Y-24797200D01*
X67379523Y-24797200D02*
X67284285Y-24844819D01*
X67284285Y-24844819D02*
X67141428Y-24844819D01*
X67903333Y-24178152D02*
X67903333Y-25178152D01*
X67903333Y-24225771D02*
X67998571Y-24178152D01*
X67998571Y-24178152D02*
X68189047Y-24178152D01*
X68189047Y-24178152D02*
X68284285Y-24225771D01*
X68284285Y-24225771D02*
X68331904Y-24273390D01*
X68331904Y-24273390D02*
X68379523Y-24368628D01*
X68379523Y-24368628D02*
X68379523Y-24654342D01*
X68379523Y-24654342D02*
X68331904Y-24749580D01*
X68331904Y-24749580D02*
X68284285Y-24797200D01*
X68284285Y-24797200D02*
X68189047Y-24844819D01*
X68189047Y-24844819D02*
X67998571Y-24844819D01*
X67998571Y-24844819D02*
X67903333Y-24797200D01*
X68808095Y-24178152D02*
X68808095Y-25178152D01*
X68808095Y-24225771D02*
X68903333Y-24178152D01*
X68903333Y-24178152D02*
X69093809Y-24178152D01*
X69093809Y-24178152D02*
X69189047Y-24225771D01*
X69189047Y-24225771D02*
X69236666Y-24273390D01*
X69236666Y-24273390D02*
X69284285Y-24368628D01*
X69284285Y-24368628D02*
X69284285Y-24654342D01*
X69284285Y-24654342D02*
X69236666Y-24749580D01*
X69236666Y-24749580D02*
X69189047Y-24797200D01*
X69189047Y-24797200D02*
X69093809Y-24844819D01*
X69093809Y-24844819D02*
X68903333Y-24844819D01*
X68903333Y-24844819D02*
X68808095Y-24797200D01*
X70093809Y-24797200D02*
X69998571Y-24844819D01*
X69998571Y-24844819D02*
X69808095Y-24844819D01*
X69808095Y-24844819D02*
X69712857Y-24797200D01*
X69712857Y-24797200D02*
X69665238Y-24701961D01*
X69665238Y-24701961D02*
X69665238Y-24321009D01*
X69665238Y-24321009D02*
X69712857Y-24225771D01*
X69712857Y-24225771D02*
X69808095Y-24178152D01*
X69808095Y-24178152D02*
X69998571Y-24178152D01*
X69998571Y-24178152D02*
X70093809Y-24225771D01*
X70093809Y-24225771D02*
X70141428Y-24321009D01*
X70141428Y-24321009D02*
X70141428Y-24416247D01*
X70141428Y-24416247D02*
X69665238Y-24511485D01*
X70570000Y-24844819D02*
X70570000Y-24178152D01*
X70570000Y-24368628D02*
X70617619Y-24273390D01*
X70617619Y-24273390D02*
X70665238Y-24225771D01*
X70665238Y-24225771D02*
X70760476Y-24178152D01*
X70760476Y-24178152D02*
X70855714Y-24178152D01*
%TO.C,H104*%
X88000000Y-65000000D02*
G75*
G02*
X82000000Y-65000000I-3000000J0D01*
G01*
X82000000Y-65000000D02*
G75*
G02*
X88000000Y-65000000I3000000J0D01*
G01*
%TO.C,H102*%
X88000000Y-25000000D02*
G75*
G02*
X82000000Y-25000000I-3000000J0D01*
G01*
X82000000Y-25000000D02*
G75*
G02*
X88000000Y-25000000I3000000J0D01*
G01*
%TO.C,H101*%
X28000000Y-25000000D02*
G75*
G02*
X22000000Y-25000000I-3000000J0D01*
G01*
X22000000Y-25000000D02*
G75*
G02*
X28000000Y-25000000I3000000J0D01*
G01*
%TO.C,H103*%
X28000000Y-65000000D02*
G75*
G02*
X22000000Y-65000000I-3000000J0D01*
G01*
X22000000Y-65000000D02*
G75*
G02*
X28000000Y-65000000I3000000J0D01*
G01*
%TD*%
M02*
