%TF.GenerationSoftware,KiCad,Pcbnew,8.0.4-8.0.4-0~ubuntu22.04.1*%
%TF.CreationDate,2024-08-18T10:29:15-05:00*%
%TF.ProjectId,Doorbell with External ESP8266,446f6f72-6265-46c6-9c20-776974682045,v1.1*%
%TF.SameCoordinates,Original*%
%TF.FileFunction,Legend,Top*%
%TF.FilePolarity,Positive*%
%FSLAX46Y46*%
G04 Gerber Fmt 4.6, Leading zero omitted, Abs format (unit mm)*
G04 Created by KiCad (PCBNEW 8.0.4-8.0.4-0~ubuntu22.04.1) date 2024-08-18 10:29:15*
%MOMM*%
%LPD*%
G01*
G04 APERTURE LIST*
G04 Aperture macros list*
%AMRoundRect*
0 Rectangle with rounded corners*
0 $1 Rounding radius*
0 $2 $3 $4 $5 $6 $7 $8 $9 X,Y pos of 4 corners*
0 Add a 4 corners polygon primitive as box body*
4,1,4,$2,$3,$4,$5,$6,$7,$8,$9,$2,$3,0*
0 Add four circle primitives for the rounded corners*
1,1,$1+$1,$2,$3*
1,1,$1+$1,$4,$5*
1,1,$1+$1,$6,$7*
1,1,$1+$1,$8,$9*
0 Add four rect primitives between the rounded corners*
20,1,$1+$1,$2,$3,$4,$5,0*
20,1,$1+$1,$4,$5,$6,$7,0*
20,1,$1+$1,$6,$7,$8,$9,0*
20,1,$1+$1,$8,$9,$2,$3,0*%
G04 Aperture macros list end*
%ADD10C,0.153000*%
%ADD11C,0.120000*%
%ADD12C,0.010000*%
%ADD13C,0.150000*%
%ADD14C,0.100000*%
%ADD15C,0.300000*%
%ADD16RoundRect,0.200000X0.200000X0.275000X-0.200000X0.275000X-0.200000X-0.275000X0.200000X-0.275000X0*%
%ADD17C,3.000000*%
%ADD18RoundRect,0.243750X0.243750X0.456250X-0.243750X0.456250X-0.243750X-0.456250X0.243750X-0.456250X0*%
%ADD19RoundRect,0.250000X-0.312500X-1.450000X0.312500X-1.450000X0.312500X1.450000X-0.312500X1.450000X0*%
%ADD20R,2.600000X2.600000*%
%ADD21C,2.600000*%
%ADD22R,2.000000X2.000000*%
%ADD23O,2.000000X1.600000*%
%ADD24RoundRect,0.150000X0.587500X0.150000X-0.587500X0.150000X-0.587500X-0.150000X0.587500X-0.150000X0*%
%ADD25RoundRect,0.243750X-0.243750X-0.456250X0.243750X-0.456250X0.243750X0.456250X-0.243750X0.456250X0*%
%ADD26RoundRect,0.200000X-0.275000X0.200000X-0.275000X-0.200000X0.275000X-0.200000X0.275000X0.200000X0*%
%ADD27RoundRect,0.200000X-0.200000X-0.275000X0.200000X-0.275000X0.200000X0.275000X-0.200000X0.275000X0*%
%ADD28C,2.500000*%
%ADD29RoundRect,0.250000X-1.000000X-0.650000X1.000000X-0.650000X1.000000X0.650000X-1.000000X0.650000X0*%
%ADD30R,1.680000X1.710000*%
G04 APERTURE END LIST*
D10*
X49466666Y-31054663D02*
X49133333Y-30578472D01*
X48895238Y-31054663D02*
X48895238Y-30054663D01*
X48895238Y-30054663D02*
X49276190Y-30054663D01*
X49276190Y-30054663D02*
X49371428Y-30102282D01*
X49371428Y-30102282D02*
X49419047Y-30149901D01*
X49419047Y-30149901D02*
X49466666Y-30245139D01*
X49466666Y-30245139D02*
X49466666Y-30387996D01*
X49466666Y-30387996D02*
X49419047Y-30483234D01*
X49419047Y-30483234D02*
X49371428Y-30530853D01*
X49371428Y-30530853D02*
X49276190Y-30578472D01*
X49276190Y-30578472D02*
X48895238Y-30578472D01*
X50038095Y-31054663D02*
X49942857Y-31007044D01*
X49942857Y-31007044D02*
X49895238Y-30911805D01*
X49895238Y-30911805D02*
X49895238Y-30054663D01*
X50323810Y-30387996D02*
X50561905Y-31054663D01*
X50800000Y-30387996D02*
X50561905Y-31054663D01*
X50561905Y-31054663D02*
X50466667Y-31292758D01*
X50466667Y-31292758D02*
X50419048Y-31340377D01*
X50419048Y-31340377D02*
X50323810Y-31387996D01*
X57223809Y-58159424D02*
X57176190Y-58207044D01*
X57176190Y-58207044D02*
X57033333Y-58254663D01*
X57033333Y-58254663D02*
X56938095Y-58254663D01*
X56938095Y-58254663D02*
X56795238Y-58207044D01*
X56795238Y-58207044D02*
X56700000Y-58111805D01*
X56700000Y-58111805D02*
X56652381Y-58016567D01*
X56652381Y-58016567D02*
X56604762Y-57826091D01*
X56604762Y-57826091D02*
X56604762Y-57683234D01*
X56604762Y-57683234D02*
X56652381Y-57492758D01*
X56652381Y-57492758D02*
X56700000Y-57397520D01*
X56700000Y-57397520D02*
X56795238Y-57302282D01*
X56795238Y-57302282D02*
X56938095Y-57254663D01*
X56938095Y-57254663D02*
X57033333Y-57254663D01*
X57033333Y-57254663D02*
X57176190Y-57302282D01*
X57176190Y-57302282D02*
X57223809Y-57349901D01*
X57652381Y-58254663D02*
X57652381Y-57254663D01*
X58080952Y-58254663D02*
X58080952Y-57730853D01*
X58080952Y-57730853D02*
X58033333Y-57635615D01*
X58033333Y-57635615D02*
X57938095Y-57587996D01*
X57938095Y-57587996D02*
X57795238Y-57587996D01*
X57795238Y-57587996D02*
X57700000Y-57635615D01*
X57700000Y-57635615D02*
X57652381Y-57683234D01*
X58557143Y-58254663D02*
X58557143Y-57587996D01*
X58557143Y-57254663D02*
X58509524Y-57302282D01*
X58509524Y-57302282D02*
X58557143Y-57349901D01*
X58557143Y-57349901D02*
X58604762Y-57302282D01*
X58604762Y-57302282D02*
X58557143Y-57254663D01*
X58557143Y-57254663D02*
X58557143Y-57349901D01*
X59033333Y-58254663D02*
X59033333Y-57587996D01*
X59033333Y-57683234D02*
X59080952Y-57635615D01*
X59080952Y-57635615D02*
X59176190Y-57587996D01*
X59176190Y-57587996D02*
X59319047Y-57587996D01*
X59319047Y-57587996D02*
X59414285Y-57635615D01*
X59414285Y-57635615D02*
X59461904Y-57730853D01*
X59461904Y-57730853D02*
X59461904Y-58254663D01*
X59461904Y-57730853D02*
X59509523Y-57635615D01*
X59509523Y-57635615D02*
X59604761Y-57587996D01*
X59604761Y-57587996D02*
X59747618Y-57587996D01*
X59747618Y-57587996D02*
X59842857Y-57635615D01*
X59842857Y-57635615D02*
X59890476Y-57730853D01*
X59890476Y-57730853D02*
X59890476Y-58254663D01*
X60747618Y-58207044D02*
X60652380Y-58254663D01*
X60652380Y-58254663D02*
X60461904Y-58254663D01*
X60461904Y-58254663D02*
X60366666Y-58207044D01*
X60366666Y-58207044D02*
X60319047Y-58111805D01*
X60319047Y-58111805D02*
X60319047Y-57730853D01*
X60319047Y-57730853D02*
X60366666Y-57635615D01*
X60366666Y-57635615D02*
X60461904Y-57587996D01*
X60461904Y-57587996D02*
X60652380Y-57587996D01*
X60652380Y-57587996D02*
X60747618Y-57635615D01*
X60747618Y-57635615D02*
X60795237Y-57730853D01*
X60795237Y-57730853D02*
X60795237Y-57826091D01*
X60795237Y-57826091D02*
X60319047Y-57921329D01*
X48923810Y-28568948D02*
X49400000Y-28568948D01*
X48828572Y-28854663D02*
X49161905Y-27854663D01*
X49161905Y-27854663D02*
X49495238Y-28854663D01*
X49828572Y-28854663D02*
X49828572Y-27854663D01*
X49828572Y-27854663D02*
X50209524Y-27854663D01*
X50209524Y-27854663D02*
X50304762Y-27902282D01*
X50304762Y-27902282D02*
X50352381Y-27949901D01*
X50352381Y-27949901D02*
X50400000Y-28045139D01*
X50400000Y-28045139D02*
X50400000Y-28187996D01*
X50400000Y-28187996D02*
X50352381Y-28283234D01*
X50352381Y-28283234D02*
X50304762Y-28330853D01*
X50304762Y-28330853D02*
X50209524Y-28378472D01*
X50209524Y-28378472D02*
X49828572Y-28378472D01*
X50828572Y-28854663D02*
X50828572Y-27854663D01*
X68042856Y-57730853D02*
X68185713Y-57778472D01*
X68185713Y-57778472D02*
X68233332Y-57826091D01*
X68233332Y-57826091D02*
X68280951Y-57921329D01*
X68280951Y-57921329D02*
X68280951Y-58064186D01*
X68280951Y-58064186D02*
X68233332Y-58159424D01*
X68233332Y-58159424D02*
X68185713Y-58207044D01*
X68185713Y-58207044D02*
X68090475Y-58254663D01*
X68090475Y-58254663D02*
X67709523Y-58254663D01*
X67709523Y-58254663D02*
X67709523Y-57254663D01*
X67709523Y-57254663D02*
X68042856Y-57254663D01*
X68042856Y-57254663D02*
X68138094Y-57302282D01*
X68138094Y-57302282D02*
X68185713Y-57349901D01*
X68185713Y-57349901D02*
X68233332Y-57445139D01*
X68233332Y-57445139D02*
X68233332Y-57540377D01*
X68233332Y-57540377D02*
X68185713Y-57635615D01*
X68185713Y-57635615D02*
X68138094Y-57683234D01*
X68138094Y-57683234D02*
X68042856Y-57730853D01*
X68042856Y-57730853D02*
X67709523Y-57730853D01*
X69138094Y-57587996D02*
X69138094Y-58254663D01*
X68709523Y-57587996D02*
X68709523Y-58111805D01*
X68709523Y-58111805D02*
X68757142Y-58207044D01*
X68757142Y-58207044D02*
X68852380Y-58254663D01*
X68852380Y-58254663D02*
X68995237Y-58254663D01*
X68995237Y-58254663D02*
X69090475Y-58207044D01*
X69090475Y-58207044D02*
X69138094Y-58159424D01*
X69471428Y-57587996D02*
X69852380Y-57587996D01*
X69614285Y-57254663D02*
X69614285Y-58111805D01*
X69614285Y-58111805D02*
X69661904Y-58207044D01*
X69661904Y-58207044D02*
X69757142Y-58254663D01*
X69757142Y-58254663D02*
X69852380Y-58254663D01*
X70042857Y-57587996D02*
X70423809Y-57587996D01*
X70185714Y-57254663D02*
X70185714Y-58111805D01*
X70185714Y-58111805D02*
X70233333Y-58207044D01*
X70233333Y-58207044D02*
X70328571Y-58254663D01*
X70328571Y-58254663D02*
X70423809Y-58254663D01*
X70900000Y-58254663D02*
X70804762Y-58207044D01*
X70804762Y-58207044D02*
X70757143Y-58159424D01*
X70757143Y-58159424D02*
X70709524Y-58064186D01*
X70709524Y-58064186D02*
X70709524Y-57778472D01*
X70709524Y-57778472D02*
X70757143Y-57683234D01*
X70757143Y-57683234D02*
X70804762Y-57635615D01*
X70804762Y-57635615D02*
X70900000Y-57587996D01*
X70900000Y-57587996D02*
X71042857Y-57587996D01*
X71042857Y-57587996D02*
X71138095Y-57635615D01*
X71138095Y-57635615D02*
X71185714Y-57683234D01*
X71185714Y-57683234D02*
X71233333Y-57778472D01*
X71233333Y-57778472D02*
X71233333Y-58064186D01*
X71233333Y-58064186D02*
X71185714Y-58159424D01*
X71185714Y-58159424D02*
X71138095Y-58207044D01*
X71138095Y-58207044D02*
X71042857Y-58254663D01*
X71042857Y-58254663D02*
X70900000Y-58254663D01*
X71661905Y-57587996D02*
X71661905Y-58254663D01*
X71661905Y-57683234D02*
X71709524Y-57635615D01*
X71709524Y-57635615D02*
X71804762Y-57587996D01*
X71804762Y-57587996D02*
X71947619Y-57587996D01*
X71947619Y-57587996D02*
X72042857Y-57635615D01*
X72042857Y-57635615D02*
X72090476Y-57730853D01*
X72090476Y-57730853D02*
X72090476Y-58254663D01*
X48947619Y-26368948D02*
X49423809Y-26368948D01*
X48852381Y-26654663D02*
X49185714Y-25654663D01*
X49185714Y-25654663D02*
X49519047Y-26654663D01*
X50280952Y-26607044D02*
X50185714Y-26654663D01*
X50185714Y-26654663D02*
X49995238Y-26654663D01*
X49995238Y-26654663D02*
X49900000Y-26607044D01*
X49900000Y-26607044D02*
X49852381Y-26559424D01*
X49852381Y-26559424D02*
X49804762Y-26464186D01*
X49804762Y-26464186D02*
X49804762Y-26178472D01*
X49804762Y-26178472D02*
X49852381Y-26083234D01*
X49852381Y-26083234D02*
X49900000Y-26035615D01*
X49900000Y-26035615D02*
X49995238Y-25987996D01*
X49995238Y-25987996D02*
X50185714Y-25987996D01*
X50185714Y-25987996D02*
X50280952Y-26035615D01*
X50566667Y-25987996D02*
X50947619Y-25987996D01*
X50709524Y-25654663D02*
X50709524Y-26511805D01*
X50709524Y-26511805D02*
X50757143Y-26607044D01*
X50757143Y-26607044D02*
X50852381Y-26654663D01*
X50852381Y-26654663D02*
X50947619Y-26654663D01*
X48804762Y-24454663D02*
X48804762Y-23454663D01*
X48804762Y-23454663D02*
X49185714Y-23454663D01*
X49185714Y-23454663D02*
X49280952Y-23502282D01*
X49280952Y-23502282D02*
X49328571Y-23549901D01*
X49328571Y-23549901D02*
X49376190Y-23645139D01*
X49376190Y-23645139D02*
X49376190Y-23787996D01*
X49376190Y-23787996D02*
X49328571Y-23883234D01*
X49328571Y-23883234D02*
X49280952Y-23930853D01*
X49280952Y-23930853D02*
X49185714Y-23978472D01*
X49185714Y-23978472D02*
X48804762Y-23978472D01*
X49709524Y-23787996D02*
X49900000Y-24454663D01*
X49900000Y-24454663D02*
X50090476Y-23978472D01*
X50090476Y-23978472D02*
X50280952Y-24454663D01*
X50280952Y-24454663D02*
X50471428Y-23787996D01*
X50852381Y-24454663D02*
X50852381Y-23787996D01*
X50852381Y-23978472D02*
X50900000Y-23883234D01*
X50900000Y-23883234D02*
X50947619Y-23835615D01*
X50947619Y-23835615D02*
X51042857Y-23787996D01*
X51042857Y-23787996D02*
X51138095Y-23787996D01*
X36472618Y-39297044D02*
X36615475Y-39344663D01*
X36615475Y-39344663D02*
X36853570Y-39344663D01*
X36853570Y-39344663D02*
X36948808Y-39297044D01*
X36948808Y-39297044D02*
X36996427Y-39249424D01*
X36996427Y-39249424D02*
X37044046Y-39154186D01*
X37044046Y-39154186D02*
X37044046Y-39058948D01*
X37044046Y-39058948D02*
X36996427Y-38963710D01*
X36996427Y-38963710D02*
X36948808Y-38916091D01*
X36948808Y-38916091D02*
X36853570Y-38868472D01*
X36853570Y-38868472D02*
X36663094Y-38820853D01*
X36663094Y-38820853D02*
X36567856Y-38773234D01*
X36567856Y-38773234D02*
X36520237Y-38725615D01*
X36520237Y-38725615D02*
X36472618Y-38630377D01*
X36472618Y-38630377D02*
X36472618Y-38535139D01*
X36472618Y-38535139D02*
X36520237Y-38439901D01*
X36520237Y-38439901D02*
X36567856Y-38392282D01*
X36567856Y-38392282D02*
X36663094Y-38344663D01*
X36663094Y-38344663D02*
X36901189Y-38344663D01*
X36901189Y-38344663D02*
X37044046Y-38392282D01*
X37472618Y-39344663D02*
X37472618Y-38677996D01*
X37472618Y-38773234D02*
X37520237Y-38725615D01*
X37520237Y-38725615D02*
X37615475Y-38677996D01*
X37615475Y-38677996D02*
X37758332Y-38677996D01*
X37758332Y-38677996D02*
X37853570Y-38725615D01*
X37853570Y-38725615D02*
X37901189Y-38820853D01*
X37901189Y-38820853D02*
X37901189Y-39344663D01*
X37901189Y-38820853D02*
X37948808Y-38725615D01*
X37948808Y-38725615D02*
X38044046Y-38677996D01*
X38044046Y-38677996D02*
X38186903Y-38677996D01*
X38186903Y-38677996D02*
X38282142Y-38725615D01*
X38282142Y-38725615D02*
X38329761Y-38820853D01*
X38329761Y-38820853D02*
X38329761Y-39344663D01*
X39234522Y-39344663D02*
X39234522Y-38820853D01*
X39234522Y-38820853D02*
X39186903Y-38725615D01*
X39186903Y-38725615D02*
X39091665Y-38677996D01*
X39091665Y-38677996D02*
X38901189Y-38677996D01*
X38901189Y-38677996D02*
X38805951Y-38725615D01*
X39234522Y-39297044D02*
X39139284Y-39344663D01*
X39139284Y-39344663D02*
X38901189Y-39344663D01*
X38901189Y-39344663D02*
X38805951Y-39297044D01*
X38805951Y-39297044D02*
X38758332Y-39201805D01*
X38758332Y-39201805D02*
X38758332Y-39106567D01*
X38758332Y-39106567D02*
X38805951Y-39011329D01*
X38805951Y-39011329D02*
X38901189Y-38963710D01*
X38901189Y-38963710D02*
X39139284Y-38963710D01*
X39139284Y-38963710D02*
X39234522Y-38916091D01*
X39710713Y-39344663D02*
X39710713Y-38677996D01*
X39710713Y-38868472D02*
X39758332Y-38773234D01*
X39758332Y-38773234D02*
X39805951Y-38725615D01*
X39805951Y-38725615D02*
X39901189Y-38677996D01*
X39901189Y-38677996D02*
X39996427Y-38677996D01*
X40186904Y-38677996D02*
X40567856Y-38677996D01*
X40329761Y-38344663D02*
X40329761Y-39201805D01*
X40329761Y-39201805D02*
X40377380Y-39297044D01*
X40377380Y-39297044D02*
X40472618Y-39344663D01*
X40472618Y-39344663D02*
X40567856Y-39344663D01*
X41663095Y-39344663D02*
X41663095Y-38344663D01*
X41663095Y-38344663D02*
X41901190Y-38344663D01*
X41901190Y-38344663D02*
X42044047Y-38392282D01*
X42044047Y-38392282D02*
X42139285Y-38487520D01*
X42139285Y-38487520D02*
X42186904Y-38582758D01*
X42186904Y-38582758D02*
X42234523Y-38773234D01*
X42234523Y-38773234D02*
X42234523Y-38916091D01*
X42234523Y-38916091D02*
X42186904Y-39106567D01*
X42186904Y-39106567D02*
X42139285Y-39201805D01*
X42139285Y-39201805D02*
X42044047Y-39297044D01*
X42044047Y-39297044D02*
X41901190Y-39344663D01*
X41901190Y-39344663D02*
X41663095Y-39344663D01*
X42805952Y-39344663D02*
X42710714Y-39297044D01*
X42710714Y-39297044D02*
X42663095Y-39249424D01*
X42663095Y-39249424D02*
X42615476Y-39154186D01*
X42615476Y-39154186D02*
X42615476Y-38868472D01*
X42615476Y-38868472D02*
X42663095Y-38773234D01*
X42663095Y-38773234D02*
X42710714Y-38725615D01*
X42710714Y-38725615D02*
X42805952Y-38677996D01*
X42805952Y-38677996D02*
X42948809Y-38677996D01*
X42948809Y-38677996D02*
X43044047Y-38725615D01*
X43044047Y-38725615D02*
X43091666Y-38773234D01*
X43091666Y-38773234D02*
X43139285Y-38868472D01*
X43139285Y-38868472D02*
X43139285Y-39154186D01*
X43139285Y-39154186D02*
X43091666Y-39249424D01*
X43091666Y-39249424D02*
X43044047Y-39297044D01*
X43044047Y-39297044D02*
X42948809Y-39344663D01*
X42948809Y-39344663D02*
X42805952Y-39344663D01*
X43710714Y-39344663D02*
X43615476Y-39297044D01*
X43615476Y-39297044D02*
X43567857Y-39249424D01*
X43567857Y-39249424D02*
X43520238Y-39154186D01*
X43520238Y-39154186D02*
X43520238Y-38868472D01*
X43520238Y-38868472D02*
X43567857Y-38773234D01*
X43567857Y-38773234D02*
X43615476Y-38725615D01*
X43615476Y-38725615D02*
X43710714Y-38677996D01*
X43710714Y-38677996D02*
X43853571Y-38677996D01*
X43853571Y-38677996D02*
X43948809Y-38725615D01*
X43948809Y-38725615D02*
X43996428Y-38773234D01*
X43996428Y-38773234D02*
X44044047Y-38868472D01*
X44044047Y-38868472D02*
X44044047Y-39154186D01*
X44044047Y-39154186D02*
X43996428Y-39249424D01*
X43996428Y-39249424D02*
X43948809Y-39297044D01*
X43948809Y-39297044D02*
X43853571Y-39344663D01*
X43853571Y-39344663D02*
X43710714Y-39344663D01*
X44472619Y-39344663D02*
X44472619Y-38677996D01*
X44472619Y-38868472D02*
X44520238Y-38773234D01*
X44520238Y-38773234D02*
X44567857Y-38725615D01*
X44567857Y-38725615D02*
X44663095Y-38677996D01*
X44663095Y-38677996D02*
X44758333Y-38677996D01*
X45091667Y-39344663D02*
X45091667Y-38344663D01*
X45091667Y-38725615D02*
X45186905Y-38677996D01*
X45186905Y-38677996D02*
X45377381Y-38677996D01*
X45377381Y-38677996D02*
X45472619Y-38725615D01*
X45472619Y-38725615D02*
X45520238Y-38773234D01*
X45520238Y-38773234D02*
X45567857Y-38868472D01*
X45567857Y-38868472D02*
X45567857Y-39154186D01*
X45567857Y-39154186D02*
X45520238Y-39249424D01*
X45520238Y-39249424D02*
X45472619Y-39297044D01*
X45472619Y-39297044D02*
X45377381Y-39344663D01*
X45377381Y-39344663D02*
X45186905Y-39344663D01*
X45186905Y-39344663D02*
X45091667Y-39297044D01*
X46377381Y-39297044D02*
X46282143Y-39344663D01*
X46282143Y-39344663D02*
X46091667Y-39344663D01*
X46091667Y-39344663D02*
X45996429Y-39297044D01*
X45996429Y-39297044D02*
X45948810Y-39201805D01*
X45948810Y-39201805D02*
X45948810Y-38820853D01*
X45948810Y-38820853D02*
X45996429Y-38725615D01*
X45996429Y-38725615D02*
X46091667Y-38677996D01*
X46091667Y-38677996D02*
X46282143Y-38677996D01*
X46282143Y-38677996D02*
X46377381Y-38725615D01*
X46377381Y-38725615D02*
X46425000Y-38820853D01*
X46425000Y-38820853D02*
X46425000Y-38916091D01*
X46425000Y-38916091D02*
X45948810Y-39011329D01*
X46996429Y-39344663D02*
X46901191Y-39297044D01*
X46901191Y-39297044D02*
X46853572Y-39201805D01*
X46853572Y-39201805D02*
X46853572Y-38344663D01*
X47520239Y-39344663D02*
X47425001Y-39297044D01*
X47425001Y-39297044D02*
X47377382Y-39201805D01*
X47377382Y-39201805D02*
X47377382Y-38344663D01*
X48567859Y-38677996D02*
X48805954Y-39344663D01*
X48805954Y-39344663D02*
X49044049Y-38677996D01*
X49948811Y-39344663D02*
X49377383Y-39344663D01*
X49663097Y-39344663D02*
X49663097Y-38344663D01*
X49663097Y-38344663D02*
X49567859Y-38487520D01*
X49567859Y-38487520D02*
X49472621Y-38582758D01*
X49472621Y-38582758D02*
X49377383Y-38630377D01*
X50377383Y-39249424D02*
X50425002Y-39297044D01*
X50425002Y-39297044D02*
X50377383Y-39344663D01*
X50377383Y-39344663D02*
X50329764Y-39297044D01*
X50329764Y-39297044D02*
X50377383Y-39249424D01*
X50377383Y-39249424D02*
X50377383Y-39344663D01*
X51377382Y-39344663D02*
X50805954Y-39344663D01*
X51091668Y-39344663D02*
X51091668Y-38344663D01*
X51091668Y-38344663D02*
X50996430Y-38487520D01*
X50996430Y-38487520D02*
X50901192Y-38582758D01*
X50901192Y-38582758D02*
X50805954Y-38630377D01*
X32695336Y-51988095D02*
X32695336Y-52559523D01*
X31695336Y-52273809D02*
X32695336Y-52273809D01*
X31695336Y-53035714D02*
X31742956Y-52940476D01*
X31742956Y-52940476D02*
X31790575Y-52892857D01*
X31790575Y-52892857D02*
X31885813Y-52845238D01*
X31885813Y-52845238D02*
X32171527Y-52845238D01*
X32171527Y-52845238D02*
X32266765Y-52892857D01*
X32266765Y-52892857D02*
X32314384Y-52940476D01*
X32314384Y-52940476D02*
X32362003Y-53035714D01*
X32362003Y-53035714D02*
X32362003Y-53178571D01*
X32362003Y-53178571D02*
X32314384Y-53273809D01*
X32314384Y-53273809D02*
X32266765Y-53321428D01*
X32266765Y-53321428D02*
X32171527Y-53369047D01*
X32171527Y-53369047D02*
X31885813Y-53369047D01*
X31885813Y-53369047D02*
X31790575Y-53321428D01*
X31790575Y-53321428D02*
X31742956Y-53273809D01*
X31742956Y-53273809D02*
X31695336Y-53178571D01*
X31695336Y-53178571D02*
X31695336Y-53035714D01*
X31695336Y-55130952D02*
X32171527Y-54797619D01*
X31695336Y-54559524D02*
X32695336Y-54559524D01*
X32695336Y-54559524D02*
X32695336Y-54940476D01*
X32695336Y-54940476D02*
X32647717Y-55035714D01*
X32647717Y-55035714D02*
X32600098Y-55083333D01*
X32600098Y-55083333D02*
X32504860Y-55130952D01*
X32504860Y-55130952D02*
X32362003Y-55130952D01*
X32362003Y-55130952D02*
X32266765Y-55083333D01*
X32266765Y-55083333D02*
X32219146Y-55035714D01*
X32219146Y-55035714D02*
X32171527Y-54940476D01*
X32171527Y-54940476D02*
X32171527Y-54559524D01*
X31742956Y-55940476D02*
X31695336Y-55845238D01*
X31695336Y-55845238D02*
X31695336Y-55654762D01*
X31695336Y-55654762D02*
X31742956Y-55559524D01*
X31742956Y-55559524D02*
X31838194Y-55511905D01*
X31838194Y-55511905D02*
X32219146Y-55511905D01*
X32219146Y-55511905D02*
X32314384Y-55559524D01*
X32314384Y-55559524D02*
X32362003Y-55654762D01*
X32362003Y-55654762D02*
X32362003Y-55845238D01*
X32362003Y-55845238D02*
X32314384Y-55940476D01*
X32314384Y-55940476D02*
X32219146Y-55988095D01*
X32219146Y-55988095D02*
X32123908Y-55988095D01*
X32123908Y-55988095D02*
X32028670Y-55511905D01*
X31742956Y-56845238D02*
X31695336Y-56750000D01*
X31695336Y-56750000D02*
X31695336Y-56559524D01*
X31695336Y-56559524D02*
X31742956Y-56464286D01*
X31742956Y-56464286D02*
X31790575Y-56416667D01*
X31790575Y-56416667D02*
X31885813Y-56369048D01*
X31885813Y-56369048D02*
X32171527Y-56369048D01*
X32171527Y-56369048D02*
X32266765Y-56416667D01*
X32266765Y-56416667D02*
X32314384Y-56464286D01*
X32314384Y-56464286D02*
X32362003Y-56559524D01*
X32362003Y-56559524D02*
X32362003Y-56750000D01*
X32362003Y-56750000D02*
X32314384Y-56845238D01*
X32362003Y-57130953D02*
X32362003Y-57511905D01*
X32695336Y-57273810D02*
X31838194Y-57273810D01*
X31838194Y-57273810D02*
X31742956Y-57321429D01*
X31742956Y-57321429D02*
X31695336Y-57416667D01*
X31695336Y-57416667D02*
X31695336Y-57511905D01*
X31695336Y-57845239D02*
X32362003Y-57845239D01*
X32695336Y-57845239D02*
X32647717Y-57797620D01*
X32647717Y-57797620D02*
X32600098Y-57845239D01*
X32600098Y-57845239D02*
X32647717Y-57892858D01*
X32647717Y-57892858D02*
X32695336Y-57845239D01*
X32695336Y-57845239D02*
X32600098Y-57845239D01*
X32362003Y-58178572D02*
X32362003Y-58559524D01*
X31695336Y-58321429D02*
X32552479Y-58321429D01*
X32552479Y-58321429D02*
X32647717Y-58369048D01*
X32647717Y-58369048D02*
X32695336Y-58464286D01*
X32695336Y-58464286D02*
X32695336Y-58559524D01*
X31695336Y-58892858D02*
X32362003Y-58892858D01*
X32695336Y-58892858D02*
X32647717Y-58845239D01*
X32647717Y-58845239D02*
X32600098Y-58892858D01*
X32600098Y-58892858D02*
X32647717Y-58940477D01*
X32647717Y-58940477D02*
X32695336Y-58892858D01*
X32695336Y-58892858D02*
X32600098Y-58892858D01*
X31742956Y-59750000D02*
X31695336Y-59654762D01*
X31695336Y-59654762D02*
X31695336Y-59464286D01*
X31695336Y-59464286D02*
X31742956Y-59369048D01*
X31742956Y-59369048D02*
X31838194Y-59321429D01*
X31838194Y-59321429D02*
X32219146Y-59321429D01*
X32219146Y-59321429D02*
X32314384Y-59369048D01*
X32314384Y-59369048D02*
X32362003Y-59464286D01*
X32362003Y-59464286D02*
X32362003Y-59654762D01*
X32362003Y-59654762D02*
X32314384Y-59750000D01*
X32314384Y-59750000D02*
X32219146Y-59797619D01*
X32219146Y-59797619D02*
X32123908Y-59797619D01*
X32123908Y-59797619D02*
X32028670Y-59321429D01*
X31695336Y-60226191D02*
X32362003Y-60226191D01*
X32171527Y-60226191D02*
X32266765Y-60273810D01*
X32266765Y-60273810D02*
X32314384Y-60321429D01*
X32314384Y-60321429D02*
X32362003Y-60416667D01*
X32362003Y-60416667D02*
X32362003Y-60511905D01*
X38864285Y-40458948D02*
X39340475Y-40458948D01*
X38733332Y-40744663D02*
X39191666Y-39744663D01*
X39191666Y-39744663D02*
X39399999Y-40744663D01*
X40161904Y-40744663D02*
X40286904Y-39744663D01*
X40167856Y-40697044D02*
X40066666Y-40744663D01*
X40066666Y-40744663D02*
X39876190Y-40744663D01*
X39876190Y-40744663D02*
X39786904Y-40697044D01*
X39786904Y-40697044D02*
X39745237Y-40649424D01*
X39745237Y-40649424D02*
X39709523Y-40554186D01*
X39709523Y-40554186D02*
X39745237Y-40268472D01*
X39745237Y-40268472D02*
X39804761Y-40173234D01*
X39804761Y-40173234D02*
X39858332Y-40125615D01*
X39858332Y-40125615D02*
X39959523Y-40077996D01*
X39959523Y-40077996D02*
X40149999Y-40077996D01*
X40149999Y-40077996D02*
X40239285Y-40125615D01*
X41066666Y-40744663D02*
X41132142Y-40220853D01*
X41132142Y-40220853D02*
X41096428Y-40125615D01*
X41096428Y-40125615D02*
X41007142Y-40077996D01*
X41007142Y-40077996D02*
X40816666Y-40077996D01*
X40816666Y-40077996D02*
X40715475Y-40125615D01*
X41072618Y-40697044D02*
X40971428Y-40744663D01*
X40971428Y-40744663D02*
X40733332Y-40744663D01*
X40733332Y-40744663D02*
X40644047Y-40697044D01*
X40644047Y-40697044D02*
X40608332Y-40601805D01*
X40608332Y-40601805D02*
X40620237Y-40506567D01*
X40620237Y-40506567D02*
X40679761Y-40411329D01*
X40679761Y-40411329D02*
X40780952Y-40363710D01*
X40780952Y-40363710D02*
X41019047Y-40363710D01*
X41019047Y-40363710D02*
X41120237Y-40316091D01*
X41542856Y-40744663D02*
X41626190Y-40077996D01*
X41614285Y-40173234D02*
X41667856Y-40125615D01*
X41667856Y-40125615D02*
X41769047Y-40077996D01*
X41769047Y-40077996D02*
X41911904Y-40077996D01*
X41911904Y-40077996D02*
X42001190Y-40125615D01*
X42001190Y-40125615D02*
X42036904Y-40220853D01*
X42036904Y-40220853D02*
X41971428Y-40744663D01*
X42036904Y-40220853D02*
X42096428Y-40125615D01*
X42096428Y-40125615D02*
X42197618Y-40077996D01*
X42197618Y-40077996D02*
X42340475Y-40077996D01*
X42340475Y-40077996D02*
X42429761Y-40125615D01*
X42429761Y-40125615D02*
X42465475Y-40220853D01*
X42465475Y-40220853D02*
X42399999Y-40744663D01*
X44036904Y-40220853D02*
X44173809Y-40268472D01*
X44173809Y-40268472D02*
X44215475Y-40316091D01*
X44215475Y-40316091D02*
X44251190Y-40411329D01*
X44251190Y-40411329D02*
X44233332Y-40554186D01*
X44233332Y-40554186D02*
X44173809Y-40649424D01*
X44173809Y-40649424D02*
X44120237Y-40697044D01*
X44120237Y-40697044D02*
X44019047Y-40744663D01*
X44019047Y-40744663D02*
X43638094Y-40744663D01*
X43638094Y-40744663D02*
X43763094Y-39744663D01*
X43763094Y-39744663D02*
X44096428Y-39744663D01*
X44096428Y-39744663D02*
X44185713Y-39792282D01*
X44185713Y-39792282D02*
X44227380Y-39839901D01*
X44227380Y-39839901D02*
X44263094Y-39935139D01*
X44263094Y-39935139D02*
X44251190Y-40030377D01*
X44251190Y-40030377D02*
X44191666Y-40125615D01*
X44191666Y-40125615D02*
X44138094Y-40173234D01*
X44138094Y-40173234D02*
X44036904Y-40220853D01*
X44036904Y-40220853D02*
X43703571Y-40220853D01*
X44638094Y-40744663D02*
X44721428Y-40077996D01*
X44697618Y-40268472D02*
X44757142Y-40173234D01*
X44757142Y-40173234D02*
X44810713Y-40125615D01*
X44810713Y-40125615D02*
X44911904Y-40077996D01*
X44911904Y-40077996D02*
X45007142Y-40077996D01*
X45400000Y-40744663D02*
X45310714Y-40697044D01*
X45310714Y-40697044D02*
X45269047Y-40649424D01*
X45269047Y-40649424D02*
X45233333Y-40554186D01*
X45233333Y-40554186D02*
X45269047Y-40268472D01*
X45269047Y-40268472D02*
X45328571Y-40173234D01*
X45328571Y-40173234D02*
X45382142Y-40125615D01*
X45382142Y-40125615D02*
X45483333Y-40077996D01*
X45483333Y-40077996D02*
X45626190Y-40077996D01*
X45626190Y-40077996D02*
X45715476Y-40125615D01*
X45715476Y-40125615D02*
X45757142Y-40173234D01*
X45757142Y-40173234D02*
X45792857Y-40268472D01*
X45792857Y-40268472D02*
X45757142Y-40554186D01*
X45757142Y-40554186D02*
X45697619Y-40649424D01*
X45697619Y-40649424D02*
X45644047Y-40697044D01*
X45644047Y-40697044D02*
X45542857Y-40744663D01*
X45542857Y-40744663D02*
X45400000Y-40744663D01*
X46590476Y-40744663D02*
X46715476Y-39744663D01*
X46596428Y-40697044D02*
X46495238Y-40744663D01*
X46495238Y-40744663D02*
X46304762Y-40744663D01*
X46304762Y-40744663D02*
X46215476Y-40697044D01*
X46215476Y-40697044D02*
X46173809Y-40649424D01*
X46173809Y-40649424D02*
X46138095Y-40554186D01*
X46138095Y-40554186D02*
X46173809Y-40268472D01*
X46173809Y-40268472D02*
X46233333Y-40173234D01*
X46233333Y-40173234D02*
X46286904Y-40125615D01*
X46286904Y-40125615D02*
X46388095Y-40077996D01*
X46388095Y-40077996D02*
X46578571Y-40077996D01*
X46578571Y-40077996D02*
X46667857Y-40125615D01*
X47495238Y-40744663D02*
X47560714Y-40220853D01*
X47560714Y-40220853D02*
X47525000Y-40125615D01*
X47525000Y-40125615D02*
X47435714Y-40077996D01*
X47435714Y-40077996D02*
X47245238Y-40077996D01*
X47245238Y-40077996D02*
X47144047Y-40125615D01*
X47501190Y-40697044D02*
X47400000Y-40744663D01*
X47400000Y-40744663D02*
X47161904Y-40744663D01*
X47161904Y-40744663D02*
X47072619Y-40697044D01*
X47072619Y-40697044D02*
X47036904Y-40601805D01*
X47036904Y-40601805D02*
X47048809Y-40506567D01*
X47048809Y-40506567D02*
X47108333Y-40411329D01*
X47108333Y-40411329D02*
X47209524Y-40363710D01*
X47209524Y-40363710D02*
X47447619Y-40363710D01*
X47447619Y-40363710D02*
X47548809Y-40316091D01*
X48405952Y-40697044D02*
X48304762Y-40744663D01*
X48304762Y-40744663D02*
X48114286Y-40744663D01*
X48114286Y-40744663D02*
X48025000Y-40697044D01*
X48025000Y-40697044D02*
X47983333Y-40649424D01*
X47983333Y-40649424D02*
X47947619Y-40554186D01*
X47947619Y-40554186D02*
X47983333Y-40268472D01*
X47983333Y-40268472D02*
X48042857Y-40173234D01*
X48042857Y-40173234D02*
X48096428Y-40125615D01*
X48096428Y-40125615D02*
X48197619Y-40077996D01*
X48197619Y-40077996D02*
X48388095Y-40077996D01*
X48388095Y-40077996D02*
X48477381Y-40125615D01*
X48828571Y-40744663D02*
X48953571Y-39744663D01*
X48971429Y-40363710D02*
X49209524Y-40744663D01*
X49292857Y-40077996D02*
X48864286Y-40458948D01*
X32219146Y-40290475D02*
X32219146Y-39957142D01*
X31695336Y-39957142D02*
X32695336Y-39957142D01*
X32695336Y-39957142D02*
X32695336Y-40433332D01*
X31695336Y-40814285D02*
X32362003Y-40814285D01*
X32171527Y-40814285D02*
X32266765Y-40861904D01*
X32266765Y-40861904D02*
X32314384Y-40909523D01*
X32314384Y-40909523D02*
X32362003Y-41004761D01*
X32362003Y-41004761D02*
X32362003Y-41099999D01*
X31695336Y-41576190D02*
X31742956Y-41480952D01*
X31742956Y-41480952D02*
X31790575Y-41433333D01*
X31790575Y-41433333D02*
X31885813Y-41385714D01*
X31885813Y-41385714D02*
X32171527Y-41385714D01*
X32171527Y-41385714D02*
X32266765Y-41433333D01*
X32266765Y-41433333D02*
X32314384Y-41480952D01*
X32314384Y-41480952D02*
X32362003Y-41576190D01*
X32362003Y-41576190D02*
X32362003Y-41719047D01*
X32362003Y-41719047D02*
X32314384Y-41814285D01*
X32314384Y-41814285D02*
X32266765Y-41861904D01*
X32266765Y-41861904D02*
X32171527Y-41909523D01*
X32171527Y-41909523D02*
X31885813Y-41909523D01*
X31885813Y-41909523D02*
X31790575Y-41861904D01*
X31790575Y-41861904D02*
X31742956Y-41814285D01*
X31742956Y-41814285D02*
X31695336Y-41719047D01*
X31695336Y-41719047D02*
X31695336Y-41576190D01*
X31695336Y-42338095D02*
X32362003Y-42338095D01*
X32266765Y-42338095D02*
X32314384Y-42385714D01*
X32314384Y-42385714D02*
X32362003Y-42480952D01*
X32362003Y-42480952D02*
X32362003Y-42623809D01*
X32362003Y-42623809D02*
X32314384Y-42719047D01*
X32314384Y-42719047D02*
X32219146Y-42766666D01*
X32219146Y-42766666D02*
X31695336Y-42766666D01*
X32219146Y-42766666D02*
X32314384Y-42814285D01*
X32314384Y-42814285D02*
X32362003Y-42909523D01*
X32362003Y-42909523D02*
X32362003Y-43052380D01*
X32362003Y-43052380D02*
X32314384Y-43147619D01*
X32314384Y-43147619D02*
X32219146Y-43195238D01*
X32219146Y-43195238D02*
X31695336Y-43195238D01*
X31695336Y-45004761D02*
X32171527Y-44671428D01*
X31695336Y-44433333D02*
X32695336Y-44433333D01*
X32695336Y-44433333D02*
X32695336Y-44814285D01*
X32695336Y-44814285D02*
X32647717Y-44909523D01*
X32647717Y-44909523D02*
X32600098Y-44957142D01*
X32600098Y-44957142D02*
X32504860Y-45004761D01*
X32504860Y-45004761D02*
X32362003Y-45004761D01*
X32362003Y-45004761D02*
X32266765Y-44957142D01*
X32266765Y-44957142D02*
X32219146Y-44909523D01*
X32219146Y-44909523D02*
X32171527Y-44814285D01*
X32171527Y-44814285D02*
X32171527Y-44433333D01*
X31742956Y-45814285D02*
X31695336Y-45719047D01*
X31695336Y-45719047D02*
X31695336Y-45528571D01*
X31695336Y-45528571D02*
X31742956Y-45433333D01*
X31742956Y-45433333D02*
X31838194Y-45385714D01*
X31838194Y-45385714D02*
X32219146Y-45385714D01*
X32219146Y-45385714D02*
X32314384Y-45433333D01*
X32314384Y-45433333D02*
X32362003Y-45528571D01*
X32362003Y-45528571D02*
X32362003Y-45719047D01*
X32362003Y-45719047D02*
X32314384Y-45814285D01*
X32314384Y-45814285D02*
X32219146Y-45861904D01*
X32219146Y-45861904D02*
X32123908Y-45861904D01*
X32123908Y-45861904D02*
X32028670Y-45385714D01*
X31742956Y-46719047D02*
X31695336Y-46623809D01*
X31695336Y-46623809D02*
X31695336Y-46433333D01*
X31695336Y-46433333D02*
X31742956Y-46338095D01*
X31742956Y-46338095D02*
X31790575Y-46290476D01*
X31790575Y-46290476D02*
X31885813Y-46242857D01*
X31885813Y-46242857D02*
X32171527Y-46242857D01*
X32171527Y-46242857D02*
X32266765Y-46290476D01*
X32266765Y-46290476D02*
X32314384Y-46338095D01*
X32314384Y-46338095D02*
X32362003Y-46433333D01*
X32362003Y-46433333D02*
X32362003Y-46623809D01*
X32362003Y-46623809D02*
X32314384Y-46719047D01*
X32362003Y-47004762D02*
X32362003Y-47385714D01*
X32695336Y-47147619D02*
X31838194Y-47147619D01*
X31838194Y-47147619D02*
X31742956Y-47195238D01*
X31742956Y-47195238D02*
X31695336Y-47290476D01*
X31695336Y-47290476D02*
X31695336Y-47385714D01*
X31695336Y-47719048D02*
X32362003Y-47719048D01*
X32695336Y-47719048D02*
X32647717Y-47671429D01*
X32647717Y-47671429D02*
X32600098Y-47719048D01*
X32600098Y-47719048D02*
X32647717Y-47766667D01*
X32647717Y-47766667D02*
X32695336Y-47719048D01*
X32695336Y-47719048D02*
X32600098Y-47719048D01*
X32362003Y-48052381D02*
X32362003Y-48433333D01*
X31695336Y-48195238D02*
X32552479Y-48195238D01*
X32552479Y-48195238D02*
X32647717Y-48242857D01*
X32647717Y-48242857D02*
X32695336Y-48338095D01*
X32695336Y-48338095D02*
X32695336Y-48433333D01*
X31695336Y-48766667D02*
X32362003Y-48766667D01*
X32695336Y-48766667D02*
X32647717Y-48719048D01*
X32647717Y-48719048D02*
X32600098Y-48766667D01*
X32600098Y-48766667D02*
X32647717Y-48814286D01*
X32647717Y-48814286D02*
X32695336Y-48766667D01*
X32695336Y-48766667D02*
X32600098Y-48766667D01*
X31742956Y-49623809D02*
X31695336Y-49528571D01*
X31695336Y-49528571D02*
X31695336Y-49338095D01*
X31695336Y-49338095D02*
X31742956Y-49242857D01*
X31742956Y-49242857D02*
X31838194Y-49195238D01*
X31838194Y-49195238D02*
X32219146Y-49195238D01*
X32219146Y-49195238D02*
X32314384Y-49242857D01*
X32314384Y-49242857D02*
X32362003Y-49338095D01*
X32362003Y-49338095D02*
X32362003Y-49528571D01*
X32362003Y-49528571D02*
X32314384Y-49623809D01*
X32314384Y-49623809D02*
X32219146Y-49671428D01*
X32219146Y-49671428D02*
X32123908Y-49671428D01*
X32123908Y-49671428D02*
X32028670Y-49195238D01*
X31695336Y-50100000D02*
X32362003Y-50100000D01*
X32171527Y-50100000D02*
X32266765Y-50147619D01*
X32266765Y-50147619D02*
X32314384Y-50195238D01*
X32314384Y-50195238D02*
X32362003Y-50290476D01*
X32362003Y-50290476D02*
X32362003Y-50385714D01*
X32750336Y-29542856D02*
X32750336Y-30114284D01*
X31750336Y-29828570D02*
X32750336Y-29828570D01*
X31750336Y-30447618D02*
X32417003Y-30447618D01*
X32226527Y-30447618D02*
X32321765Y-30495237D01*
X32321765Y-30495237D02*
X32369384Y-30542856D01*
X32369384Y-30542856D02*
X32417003Y-30638094D01*
X32417003Y-30638094D02*
X32417003Y-30733332D01*
X31750336Y-31495237D02*
X32274146Y-31495237D01*
X32274146Y-31495237D02*
X32369384Y-31447618D01*
X32369384Y-31447618D02*
X32417003Y-31352380D01*
X32417003Y-31352380D02*
X32417003Y-31161904D01*
X32417003Y-31161904D02*
X32369384Y-31066666D01*
X31797956Y-31495237D02*
X31750336Y-31399999D01*
X31750336Y-31399999D02*
X31750336Y-31161904D01*
X31750336Y-31161904D02*
X31797956Y-31066666D01*
X31797956Y-31066666D02*
X31893194Y-31019047D01*
X31893194Y-31019047D02*
X31988432Y-31019047D01*
X31988432Y-31019047D02*
X32083670Y-31066666D01*
X32083670Y-31066666D02*
X32131289Y-31161904D01*
X32131289Y-31161904D02*
X32131289Y-31399999D01*
X32131289Y-31399999D02*
X32178908Y-31495237D01*
X32417003Y-31971428D02*
X31750336Y-31971428D01*
X32321765Y-31971428D02*
X32369384Y-32019047D01*
X32369384Y-32019047D02*
X32417003Y-32114285D01*
X32417003Y-32114285D02*
X32417003Y-32257142D01*
X32417003Y-32257142D02*
X32369384Y-32352380D01*
X32369384Y-32352380D02*
X32274146Y-32399999D01*
X32274146Y-32399999D02*
X31750336Y-32399999D01*
X31797956Y-32828571D02*
X31750336Y-32923809D01*
X31750336Y-32923809D02*
X31750336Y-33114285D01*
X31750336Y-33114285D02*
X31797956Y-33209523D01*
X31797956Y-33209523D02*
X31893194Y-33257142D01*
X31893194Y-33257142D02*
X31940813Y-33257142D01*
X31940813Y-33257142D02*
X32036051Y-33209523D01*
X32036051Y-33209523D02*
X32083670Y-33114285D01*
X32083670Y-33114285D02*
X32083670Y-32971428D01*
X32083670Y-32971428D02*
X32131289Y-32876190D01*
X32131289Y-32876190D02*
X32226527Y-32828571D01*
X32226527Y-32828571D02*
X32274146Y-32828571D01*
X32274146Y-32828571D02*
X32369384Y-32876190D01*
X32369384Y-32876190D02*
X32417003Y-32971428D01*
X32417003Y-32971428D02*
X32417003Y-33114285D01*
X32417003Y-33114285D02*
X32369384Y-33209523D01*
X32417003Y-33542857D02*
X32417003Y-33923809D01*
X31750336Y-33685714D02*
X32607479Y-33685714D01*
X32607479Y-33685714D02*
X32702717Y-33733333D01*
X32702717Y-33733333D02*
X32750336Y-33828571D01*
X32750336Y-33828571D02*
X32750336Y-33923809D01*
X31750336Y-34400000D02*
X31797956Y-34304762D01*
X31797956Y-34304762D02*
X31845575Y-34257143D01*
X31845575Y-34257143D02*
X31940813Y-34209524D01*
X31940813Y-34209524D02*
X32226527Y-34209524D01*
X32226527Y-34209524D02*
X32321765Y-34257143D01*
X32321765Y-34257143D02*
X32369384Y-34304762D01*
X32369384Y-34304762D02*
X32417003Y-34400000D01*
X32417003Y-34400000D02*
X32417003Y-34542857D01*
X32417003Y-34542857D02*
X32369384Y-34638095D01*
X32369384Y-34638095D02*
X32321765Y-34685714D01*
X32321765Y-34685714D02*
X32226527Y-34733333D01*
X32226527Y-34733333D02*
X31940813Y-34733333D01*
X31940813Y-34733333D02*
X31845575Y-34685714D01*
X31845575Y-34685714D02*
X31797956Y-34638095D01*
X31797956Y-34638095D02*
X31750336Y-34542857D01*
X31750336Y-34542857D02*
X31750336Y-34400000D01*
X31750336Y-35161905D02*
X32417003Y-35161905D01*
X32226527Y-35161905D02*
X32321765Y-35209524D01*
X32321765Y-35209524D02*
X32369384Y-35257143D01*
X32369384Y-35257143D02*
X32417003Y-35352381D01*
X32417003Y-35352381D02*
X32417003Y-35447619D01*
X31750336Y-35780953D02*
X32417003Y-35780953D01*
X32321765Y-35780953D02*
X32369384Y-35828572D01*
X32369384Y-35828572D02*
X32417003Y-35923810D01*
X32417003Y-35923810D02*
X32417003Y-36066667D01*
X32417003Y-36066667D02*
X32369384Y-36161905D01*
X32369384Y-36161905D02*
X32274146Y-36209524D01*
X32274146Y-36209524D02*
X31750336Y-36209524D01*
X32274146Y-36209524D02*
X32369384Y-36257143D01*
X32369384Y-36257143D02*
X32417003Y-36352381D01*
X32417003Y-36352381D02*
X32417003Y-36495238D01*
X32417003Y-36495238D02*
X32369384Y-36590477D01*
X32369384Y-36590477D02*
X32274146Y-36638096D01*
X32274146Y-36638096D02*
X31750336Y-36638096D01*
X31797956Y-37495238D02*
X31750336Y-37400000D01*
X31750336Y-37400000D02*
X31750336Y-37209524D01*
X31750336Y-37209524D02*
X31797956Y-37114286D01*
X31797956Y-37114286D02*
X31893194Y-37066667D01*
X31893194Y-37066667D02*
X32274146Y-37066667D01*
X32274146Y-37066667D02*
X32369384Y-37114286D01*
X32369384Y-37114286D02*
X32417003Y-37209524D01*
X32417003Y-37209524D02*
X32417003Y-37400000D01*
X32417003Y-37400000D02*
X32369384Y-37495238D01*
X32369384Y-37495238D02*
X32274146Y-37542857D01*
X32274146Y-37542857D02*
X32178908Y-37542857D01*
X32178908Y-37542857D02*
X32083670Y-37066667D01*
X31750336Y-37971429D02*
X32417003Y-37971429D01*
X32226527Y-37971429D02*
X32321765Y-38019048D01*
X32321765Y-38019048D02*
X32369384Y-38066667D01*
X32369384Y-38066667D02*
X32417003Y-38161905D01*
X32417003Y-38161905D02*
X32417003Y-38257143D01*
D11*
%TO.C,R101*%
X43737258Y-23477500D02*
X43262742Y-23477500D01*
X43737258Y-24522500D02*
X43262742Y-24522500D01*
%TO.C,R104*%
X43737258Y-30077500D02*
X43262742Y-30077500D01*
X43737258Y-31122500D02*
X43262742Y-31122500D01*
%TO.C,D104*%
X45800000Y-31560000D02*
X48485000Y-31560000D01*
X48485000Y-29640000D02*
X45800000Y-29640000D01*
X48485000Y-31560000D02*
X48485000Y-29640000D01*
%TO.C,F101*%
X35576248Y-44090000D02*
X38348752Y-44090000D01*
X35576248Y-47510000D02*
X38348752Y-47510000D01*
%TO.C,J102*%
X20805000Y-39700000D02*
X20805000Y-40200000D01*
X21045000Y-39940000D02*
X21045000Y-50060000D01*
X21545000Y-39700000D02*
X20805000Y-39700000D01*
X21605000Y-39940000D02*
X21605000Y-50060000D01*
X23105000Y-39940000D02*
X23105000Y-50060000D01*
X24466000Y-46466000D02*
X24431000Y-46431000D01*
X24682000Y-46273000D02*
X24636000Y-46226000D01*
X26774000Y-48775000D02*
X26728000Y-48728000D01*
X26980000Y-48570000D02*
X26944000Y-48535000D01*
X28006000Y-39940000D02*
X28006000Y-50060000D01*
X30966000Y-39940000D02*
X21045000Y-39940000D01*
X30966000Y-39940000D02*
X30966000Y-50060000D01*
X30966000Y-50060000D02*
X21045000Y-50060000D01*
X24024747Y-42528805D02*
G75*
G02*
X24170000Y-41816000I1680254J28806D01*
G01*
X24170244Y-43183318D02*
G75*
G02*
X24025000Y-42500000I1534756J683318D01*
G01*
X25021958Y-40964573D02*
G75*
G02*
X26389000Y-40965000I683041J-1535420D01*
G01*
X26388042Y-44035427D02*
G75*
G02*
X25021000Y-44035000I-683042J1535427D01*
G01*
X27240427Y-41816958D02*
G75*
G02*
X27240000Y-43184000I-1535420J-683041D01*
G01*
X27385000Y-47500000D02*
G75*
G02*
X24025000Y-47500000I-1680000J0D01*
G01*
X24025000Y-47500000D02*
G75*
G02*
X27385000Y-47500000I1680000J0D01*
G01*
%TO.C,J105*%
X64600000Y-68460000D02*
X64600000Y-69200000D01*
X64600000Y-69200000D02*
X65100000Y-69200000D01*
X64840000Y-59039000D02*
X64840000Y-68960000D01*
X64840000Y-59039000D02*
X74960000Y-59039000D01*
X64840000Y-61999000D02*
X74960000Y-61999000D01*
X64840000Y-66900000D02*
X74960000Y-66900000D01*
X64840000Y-68400000D02*
X74960000Y-68400000D01*
X64840000Y-68960000D02*
X74960000Y-68960000D01*
X71173000Y-65323000D02*
X71126000Y-65369000D01*
X71366000Y-65539000D02*
X71331000Y-65574000D01*
X73470000Y-63025000D02*
X73435000Y-63061000D01*
X73675000Y-63231000D02*
X73628000Y-63277000D01*
X74960000Y-59039000D02*
X74960000Y-68960000D01*
X65864573Y-64983042D02*
G75*
G02*
X65865000Y-63616000I1535420J683041D01*
G01*
X66716958Y-62764573D02*
G75*
G02*
X68084000Y-62765000I683041J-1535420D01*
G01*
X67428805Y-65980253D02*
G75*
G02*
X66716000Y-65835000I-28806J1680254D01*
G01*
X68083318Y-65834756D02*
G75*
G02*
X67400000Y-65980000I-683318J1534756D01*
G01*
X68935427Y-63616958D02*
G75*
G02*
X68935000Y-64984000I-1535427J-683042D01*
G01*
X74080000Y-64300000D02*
G75*
G02*
X70720000Y-64300000I-1680000J0D01*
G01*
X70720000Y-64300000D02*
G75*
G02*
X74080000Y-64300000I1680000J0D01*
G01*
D12*
%TO.C,REF\u002A\u002A*%
X38863614Y-27400877D02*
X38887327Y-27415647D01*
X38913978Y-27437227D01*
X38913978Y-27758773D01*
X38913893Y-27852830D01*
X38913529Y-27926932D01*
X38912724Y-27983704D01*
X38911313Y-28025768D01*
X38909133Y-28055748D01*
X38906021Y-28076267D01*
X38901814Y-28089949D01*
X38896348Y-28099416D01*
X38892472Y-28104082D01*
X38861034Y-28124575D01*
X38825233Y-28123739D01*
X38793873Y-28106264D01*
X38767222Y-28084684D01*
X38767222Y-27437227D01*
X38793873Y-27415647D01*
X38819594Y-27399949D01*
X38840600Y-27394067D01*
X38863614Y-27400877D01*
G36*
X38863614Y-27400877D02*
G01*
X38887327Y-27415647D01*
X38913978Y-27437227D01*
X38913978Y-27758773D01*
X38913893Y-27852830D01*
X38913529Y-27926932D01*
X38912724Y-27983704D01*
X38911313Y-28025768D01*
X38909133Y-28055748D01*
X38906021Y-28076267D01*
X38901814Y-28089949D01*
X38896348Y-28099416D01*
X38892472Y-28104082D01*
X38861034Y-28124575D01*
X38825233Y-28123739D01*
X38793873Y-28106264D01*
X38767222Y-28084684D01*
X38767222Y-27437227D01*
X38793873Y-27415647D01*
X38819594Y-27399949D01*
X38840600Y-27394067D01*
X38863614Y-27400877D01*
G37*
X31751178Y-27416645D02*
X31757758Y-27424218D01*
X31762921Y-27433987D01*
X31766836Y-27448571D01*
X31769676Y-27470585D01*
X31771613Y-27502648D01*
X31772817Y-27547375D01*
X31773461Y-27607385D01*
X31773716Y-27685294D01*
X31773755Y-27760956D01*
X31773686Y-27854802D01*
X31773362Y-27928689D01*
X31772614Y-27985232D01*
X31771268Y-28027049D01*
X31769154Y-28056757D01*
X31766100Y-28076973D01*
X31761934Y-28090314D01*
X31756484Y-28099398D01*
X31751178Y-28105267D01*
X31718174Y-28124947D01*
X31683009Y-28123181D01*
X31651545Y-28101717D01*
X31644316Y-28093337D01*
X31638666Y-28083614D01*
X31634401Y-28069861D01*
X31631327Y-28049389D01*
X31629248Y-28019512D01*
X31627970Y-27977541D01*
X31627299Y-27920789D01*
X31627041Y-27846567D01*
X31627000Y-27762537D01*
X31627000Y-27449485D01*
X31654709Y-27421776D01*
X31688863Y-27398463D01*
X31721994Y-27397623D01*
X31751178Y-27416645D01*
G36*
X31751178Y-27416645D02*
G01*
X31757758Y-27424218D01*
X31762921Y-27433987D01*
X31766836Y-27448571D01*
X31769676Y-27470585D01*
X31771613Y-27502648D01*
X31772817Y-27547375D01*
X31773461Y-27607385D01*
X31773716Y-27685294D01*
X31773755Y-27760956D01*
X31773686Y-27854802D01*
X31773362Y-27928689D01*
X31772614Y-27985232D01*
X31771268Y-28027049D01*
X31769154Y-28056757D01*
X31766100Y-28076973D01*
X31761934Y-28090314D01*
X31756484Y-28099398D01*
X31751178Y-28105267D01*
X31718174Y-28124947D01*
X31683009Y-28123181D01*
X31651545Y-28101717D01*
X31644316Y-28093337D01*
X31638666Y-28083614D01*
X31634401Y-28069861D01*
X31631327Y-28049389D01*
X31629248Y-28019512D01*
X31627970Y-27977541D01*
X31627299Y-27920789D01*
X31627041Y-27846567D01*
X31627000Y-27762537D01*
X31627000Y-27449485D01*
X31654709Y-27421776D01*
X31688863Y-27398463D01*
X31721994Y-27397623D01*
X31751178Y-27416645D01*
G37*
X32401957Y-22151571D02*
X32498232Y-22175809D01*
X32584816Y-22218641D01*
X32659627Y-22278419D01*
X32720582Y-22353494D01*
X32765601Y-22442220D01*
X32791864Y-22538530D01*
X32797714Y-22635795D01*
X32782860Y-22729654D01*
X32749160Y-22817511D01*
X32698472Y-22896770D01*
X32632655Y-22964836D01*
X32553566Y-23019112D01*
X32463066Y-23057002D01*
X32411800Y-23069426D01*
X32367302Y-23076947D01*
X32333001Y-23079919D01*
X32300040Y-23078094D01*
X32259566Y-23071225D01*
X32226469Y-23064250D01*
X32133053Y-23032741D01*
X32049381Y-22981617D01*
X31977335Y-22912429D01*
X31918800Y-22826728D01*
X31904852Y-22799489D01*
X31888414Y-22763122D01*
X31878106Y-22732582D01*
X31872540Y-22700450D01*
X31870331Y-22659307D01*
X31870052Y-22613222D01*
X31874139Y-22528865D01*
X31887554Y-22459586D01*
X31912744Y-22398961D01*
X31952154Y-22340567D01*
X31990702Y-22296302D01*
X32062594Y-22230484D01*
X32137687Y-22185053D01*
X32220438Y-22157850D01*
X32298072Y-22147576D01*
X32401957Y-22151571D01*
G36*
X32401957Y-22151571D02*
G01*
X32498232Y-22175809D01*
X32584816Y-22218641D01*
X32659627Y-22278419D01*
X32720582Y-22353494D01*
X32765601Y-22442220D01*
X32791864Y-22538530D01*
X32797714Y-22635795D01*
X32782860Y-22729654D01*
X32749160Y-22817511D01*
X32698472Y-22896770D01*
X32632655Y-22964836D01*
X32553566Y-23019112D01*
X32463066Y-23057002D01*
X32411800Y-23069426D01*
X32367302Y-23076947D01*
X32333001Y-23079919D01*
X32300040Y-23078094D01*
X32259566Y-23071225D01*
X32226469Y-23064250D01*
X32133053Y-23032741D01*
X32049381Y-22981617D01*
X31977335Y-22912429D01*
X31918800Y-22826728D01*
X31904852Y-22799489D01*
X31888414Y-22763122D01*
X31878106Y-22732582D01*
X31872540Y-22700450D01*
X31870331Y-22659307D01*
X31870052Y-22613222D01*
X31874139Y-22528865D01*
X31887554Y-22459586D01*
X31912744Y-22398961D01*
X31952154Y-22340567D01*
X31990702Y-22296302D01*
X32062594Y-22230484D01*
X32137687Y-22185053D01*
X32220438Y-22157850D01*
X32298072Y-22147576D01*
X32401957Y-22151571D01*
G37*
X39638065Y-27394163D02*
X39716772Y-27394542D01*
X39777863Y-27395333D01*
X39823817Y-27396670D01*
X39857114Y-27398683D01*
X39880236Y-27401506D01*
X39895662Y-27405269D01*
X39905871Y-27410105D01*
X39910813Y-27413822D01*
X39936457Y-27446358D01*
X39939559Y-27480138D01*
X39923711Y-27510826D01*
X39913348Y-27523089D01*
X39902196Y-27531450D01*
X39886035Y-27536657D01*
X39860642Y-27539457D01*
X39821798Y-27540596D01*
X39765280Y-27540821D01*
X39754180Y-27540822D01*
X39608244Y-27540822D01*
X39608244Y-27811756D01*
X39608148Y-27897154D01*
X39607711Y-27962864D01*
X39606712Y-28011774D01*
X39604928Y-28046773D01*
X39602137Y-28070749D01*
X39598117Y-28086593D01*
X39592645Y-28097191D01*
X39585666Y-28105267D01*
X39552734Y-28125112D01*
X39518354Y-28123548D01*
X39487176Y-28100906D01*
X39484886Y-28098100D01*
X39477429Y-28087492D01*
X39471747Y-28075081D01*
X39467601Y-28057850D01*
X39464750Y-28032784D01*
X39462954Y-27996867D01*
X39461972Y-27947083D01*
X39461564Y-27880417D01*
X39461489Y-27804589D01*
X39461489Y-27540822D01*
X39322127Y-27540822D01*
X39262322Y-27540418D01*
X39220918Y-27538840D01*
X39193748Y-27535547D01*
X39176646Y-27529992D01*
X39165443Y-27521631D01*
X39164083Y-27520178D01*
X39147725Y-27486939D01*
X39149172Y-27449362D01*
X39167978Y-27416645D01*
X39175250Y-27410298D01*
X39184627Y-27405266D01*
X39198609Y-27401396D01*
X39219696Y-27398537D01*
X39250389Y-27396535D01*
X39293189Y-27395239D01*
X39350595Y-27394498D01*
X39425110Y-27394158D01*
X39519233Y-27394068D01*
X39539260Y-27394067D01*
X39638065Y-27394163D01*
G36*
X39638065Y-27394163D02*
G01*
X39716772Y-27394542D01*
X39777863Y-27395333D01*
X39823817Y-27396670D01*
X39857114Y-27398683D01*
X39880236Y-27401506D01*
X39895662Y-27405269D01*
X39905871Y-27410105D01*
X39910813Y-27413822D01*
X39936457Y-27446358D01*
X39939559Y-27480138D01*
X39923711Y-27510826D01*
X39913348Y-27523089D01*
X39902196Y-27531450D01*
X39886035Y-27536657D01*
X39860642Y-27539457D01*
X39821798Y-27540596D01*
X39765280Y-27540821D01*
X39754180Y-27540822D01*
X39608244Y-27540822D01*
X39608244Y-27811756D01*
X39608148Y-27897154D01*
X39607711Y-27962864D01*
X39606712Y-28011774D01*
X39604928Y-28046773D01*
X39602137Y-28070749D01*
X39598117Y-28086593D01*
X39592645Y-28097191D01*
X39585666Y-28105267D01*
X39552734Y-28125112D01*
X39518354Y-28123548D01*
X39487176Y-28100906D01*
X39484886Y-28098100D01*
X39477429Y-28087492D01*
X39471747Y-28075081D01*
X39467601Y-28057850D01*
X39464750Y-28032784D01*
X39462954Y-27996867D01*
X39461972Y-27947083D01*
X39461564Y-27880417D01*
X39461489Y-27804589D01*
X39461489Y-27540822D01*
X39322127Y-27540822D01*
X39262322Y-27540418D01*
X39220918Y-27538840D01*
X39193748Y-27535547D01*
X39176646Y-27529992D01*
X39165443Y-27521631D01*
X39164083Y-27520178D01*
X39147725Y-27486939D01*
X39149172Y-27449362D01*
X39167978Y-27416645D01*
X39175250Y-27410298D01*
X39184627Y-27405266D01*
X39198609Y-27401396D01*
X39219696Y-27398537D01*
X39250389Y-27396535D01*
X39293189Y-27395239D01*
X39350595Y-27394498D01*
X39425110Y-27394158D01*
X39519233Y-27394068D01*
X39539260Y-27394067D01*
X39638065Y-27394163D01*
G37*
X40903823Y-27399533D02*
X40935202Y-27421776D01*
X40962911Y-27449485D01*
X40962911Y-27758920D01*
X40962838Y-27850799D01*
X40962495Y-27922840D01*
X40961692Y-27977780D01*
X40960241Y-28018360D01*
X40957952Y-28047317D01*
X40954636Y-28067391D01*
X40950105Y-28081321D01*
X40944169Y-28091845D01*
X40939514Y-28098100D01*
X40908783Y-28122673D01*
X40873496Y-28125341D01*
X40841245Y-28110271D01*
X40830588Y-28101374D01*
X40823464Y-28089557D01*
X40819167Y-28070526D01*
X40816991Y-28039992D01*
X40816228Y-27993662D01*
X40816155Y-27957871D01*
X40816155Y-27823045D01*
X40319444Y-27823045D01*
X40319444Y-27945700D01*
X40318931Y-28001787D01*
X40316876Y-28040333D01*
X40312508Y-28066361D01*
X40305056Y-28084897D01*
X40296047Y-28098100D01*
X40265144Y-28122604D01*
X40230196Y-28125506D01*
X40196738Y-28108089D01*
X40187604Y-28098959D01*
X40181152Y-28086855D01*
X40176897Y-28068001D01*
X40174352Y-28038620D01*
X40173029Y-27994937D01*
X40172443Y-27933175D01*
X40172375Y-27919000D01*
X40171891Y-27802631D01*
X40171641Y-27706727D01*
X40171723Y-27629177D01*
X40172231Y-27567869D01*
X40173262Y-27520690D01*
X40174913Y-27485530D01*
X40177279Y-27460276D01*
X40180457Y-27442817D01*
X40184544Y-27431041D01*
X40189634Y-27422835D01*
X40195266Y-27416645D01*
X40227128Y-27396844D01*
X40260357Y-27399533D01*
X40291735Y-27421776D01*
X40304433Y-27436126D01*
X40312526Y-27451978D01*
X40317042Y-27474554D01*
X40319006Y-27509078D01*
X40319444Y-27560776D01*
X40319444Y-27676289D01*
X40816155Y-27676289D01*
X40816155Y-27557756D01*
X40816662Y-27503148D01*
X40818698Y-27466275D01*
X40823035Y-27442307D01*
X40830447Y-27426415D01*
X40838733Y-27416645D01*
X40870594Y-27396844D01*
X40903823Y-27399533D01*
G36*
X40903823Y-27399533D02*
G01*
X40935202Y-27421776D01*
X40962911Y-27449485D01*
X40962911Y-27758920D01*
X40962838Y-27850799D01*
X40962495Y-27922840D01*
X40961692Y-27977780D01*
X40960241Y-28018360D01*
X40957952Y-28047317D01*
X40954636Y-28067391D01*
X40950105Y-28081321D01*
X40944169Y-28091845D01*
X40939514Y-28098100D01*
X40908783Y-28122673D01*
X40873496Y-28125341D01*
X40841245Y-28110271D01*
X40830588Y-28101374D01*
X40823464Y-28089557D01*
X40819167Y-28070526D01*
X40816991Y-28039992D01*
X40816228Y-27993662D01*
X40816155Y-27957871D01*
X40816155Y-27823045D01*
X40319444Y-27823045D01*
X40319444Y-27945700D01*
X40318931Y-28001787D01*
X40316876Y-28040333D01*
X40312508Y-28066361D01*
X40305056Y-28084897D01*
X40296047Y-28098100D01*
X40265144Y-28122604D01*
X40230196Y-28125506D01*
X40196738Y-28108089D01*
X40187604Y-28098959D01*
X40181152Y-28086855D01*
X40176897Y-28068001D01*
X40174352Y-28038620D01*
X40173029Y-27994937D01*
X40172443Y-27933175D01*
X40172375Y-27919000D01*
X40171891Y-27802631D01*
X40171641Y-27706727D01*
X40171723Y-27629177D01*
X40172231Y-27567869D01*
X40173262Y-27520690D01*
X40174913Y-27485530D01*
X40177279Y-27460276D01*
X40180457Y-27442817D01*
X40184544Y-27431041D01*
X40189634Y-27422835D01*
X40195266Y-27416645D01*
X40227128Y-27396844D01*
X40260357Y-27399533D01*
X40291735Y-27421776D01*
X40304433Y-27436126D01*
X40312526Y-27451978D01*
X40317042Y-27474554D01*
X40319006Y-27509078D01*
X40319444Y-27560776D01*
X40319444Y-27676289D01*
X40816155Y-27676289D01*
X40816155Y-27557756D01*
X40816662Y-27503148D01*
X40818698Y-27466275D01*
X40823035Y-27442307D01*
X40830447Y-27426415D01*
X40838733Y-27416645D01*
X40870594Y-27396844D01*
X40903823Y-27399533D01*
G37*
X35693309Y-27394275D02*
X35822288Y-27398636D01*
X35931991Y-27411861D01*
X36024226Y-27434741D01*
X36100802Y-27468070D01*
X36163527Y-27512638D01*
X36214212Y-27569236D01*
X36254663Y-27638658D01*
X36255459Y-27640351D01*
X36279601Y-27702483D01*
X36288203Y-27757509D01*
X36281231Y-27812887D01*
X36258654Y-27876073D01*
X36254372Y-27885689D01*
X36225172Y-27941966D01*
X36192356Y-27985451D01*
X36150002Y-28022417D01*
X36092190Y-28059135D01*
X36088831Y-28061052D01*
X36038504Y-28085227D01*
X35981621Y-28103282D01*
X35914527Y-28115839D01*
X35833565Y-28123522D01*
X35735082Y-28126953D01*
X35700286Y-28127251D01*
X35534594Y-28127845D01*
X35511197Y-28098100D01*
X35504257Y-28088319D01*
X35498842Y-28076897D01*
X35494765Y-28061095D01*
X35491837Y-28038175D01*
X35489867Y-28005396D01*
X35489225Y-27981089D01*
X35488668Y-27960021D01*
X35488050Y-27899311D01*
X35487825Y-27820526D01*
X35487800Y-27758920D01*
X35487800Y-27540822D01*
X35645844Y-27540822D01*
X35645844Y-27981089D01*
X35739726Y-27981089D01*
X35794664Y-27979483D01*
X35851060Y-27975255D01*
X35897345Y-27969292D01*
X35900139Y-27968790D01*
X35982348Y-27946736D01*
X36046114Y-27913600D01*
X36093452Y-27867847D01*
X36126382Y-27807939D01*
X36132108Y-27792061D01*
X36137721Y-27767333D01*
X36135291Y-27742902D01*
X36123467Y-27710400D01*
X36116340Y-27694434D01*
X36093000Y-27652006D01*
X36064880Y-27622240D01*
X36033940Y-27601511D01*
X35971966Y-27574537D01*
X35892651Y-27554998D01*
X35800253Y-27543746D01*
X35733333Y-27541270D01*
X35645844Y-27540822D01*
X35487800Y-27540822D01*
X35487800Y-27449485D01*
X35515509Y-27421776D01*
X35527806Y-27410544D01*
X35541103Y-27402853D01*
X35559672Y-27398040D01*
X35587786Y-27395446D01*
X35629717Y-27394410D01*
X35689737Y-27394270D01*
X35693309Y-27394275D01*
G36*
X35693309Y-27394275D02*
G01*
X35822288Y-27398636D01*
X35931991Y-27411861D01*
X36024226Y-27434741D01*
X36100802Y-27468070D01*
X36163527Y-27512638D01*
X36214212Y-27569236D01*
X36254663Y-27638658D01*
X36255459Y-27640351D01*
X36279601Y-27702483D01*
X36288203Y-27757509D01*
X36281231Y-27812887D01*
X36258654Y-27876073D01*
X36254372Y-27885689D01*
X36225172Y-27941966D01*
X36192356Y-27985451D01*
X36150002Y-28022417D01*
X36092190Y-28059135D01*
X36088831Y-28061052D01*
X36038504Y-28085227D01*
X35981621Y-28103282D01*
X35914527Y-28115839D01*
X35833565Y-28123522D01*
X35735082Y-28126953D01*
X35700286Y-28127251D01*
X35534594Y-28127845D01*
X35511197Y-28098100D01*
X35504257Y-28088319D01*
X35498842Y-28076897D01*
X35494765Y-28061095D01*
X35491837Y-28038175D01*
X35489867Y-28005396D01*
X35489225Y-27981089D01*
X35488668Y-27960021D01*
X35488050Y-27899311D01*
X35487825Y-27820526D01*
X35487800Y-27758920D01*
X35487800Y-27540822D01*
X35645844Y-27540822D01*
X35645844Y-27981089D01*
X35739726Y-27981089D01*
X35794664Y-27979483D01*
X35851060Y-27975255D01*
X35897345Y-27969292D01*
X35900139Y-27968790D01*
X35982348Y-27946736D01*
X36046114Y-27913600D01*
X36093452Y-27867847D01*
X36126382Y-27807939D01*
X36132108Y-27792061D01*
X36137721Y-27767333D01*
X36135291Y-27742902D01*
X36123467Y-27710400D01*
X36116340Y-27694434D01*
X36093000Y-27652006D01*
X36064880Y-27622240D01*
X36033940Y-27601511D01*
X35971966Y-27574537D01*
X35892651Y-27554998D01*
X35800253Y-27543746D01*
X35733333Y-27541270D01*
X35645844Y-27540822D01*
X35487800Y-27540822D01*
X35487800Y-27449485D01*
X35515509Y-27421776D01*
X35527806Y-27410544D01*
X35541103Y-27402853D01*
X35559672Y-27398040D01*
X35587786Y-27395446D01*
X35629717Y-27394410D01*
X35689737Y-27394270D01*
X35693309Y-27394275D01*
G37*
X28553629Y-27394066D02*
X28593111Y-27394467D01*
X28708800Y-27397259D01*
X28805689Y-27405550D01*
X28887081Y-27420232D01*
X28956277Y-27442193D01*
X29016580Y-27472322D01*
X29071292Y-27511510D01*
X29090833Y-27528532D01*
X29123250Y-27568363D01*
X29152480Y-27622413D01*
X29175009Y-27682323D01*
X29187321Y-27739739D01*
X29188600Y-27760956D01*
X29180583Y-27819769D01*
X29159101Y-27884013D01*
X29128001Y-27944821D01*
X29091134Y-27993330D01*
X29085146Y-27999182D01*
X29034421Y-28040321D01*
X28978875Y-28072435D01*
X28915304Y-28096365D01*
X28840506Y-28112953D01*
X28751278Y-28123041D01*
X28644418Y-28127469D01*
X28595472Y-28127845D01*
X28533238Y-28127545D01*
X28489472Y-28126292D01*
X28460069Y-28123554D01*
X28440921Y-28118801D01*
X28427923Y-28111501D01*
X28420955Y-28105267D01*
X28414374Y-28097694D01*
X28409212Y-28087924D01*
X28405297Y-28073340D01*
X28402457Y-28051326D01*
X28400520Y-28019264D01*
X28399492Y-27981089D01*
X28545133Y-27981089D01*
X28638266Y-27981004D01*
X28694307Y-27979396D01*
X28753001Y-27975256D01*
X28801972Y-27969464D01*
X28803462Y-27969226D01*
X28882608Y-27950090D01*
X28943998Y-27920287D01*
X28990695Y-27877878D01*
X29020365Y-27831961D01*
X29038647Y-27781026D01*
X29037229Y-27733200D01*
X29016012Y-27681933D01*
X28974511Y-27628899D01*
X28917002Y-27589600D01*
X28842250Y-27563331D01*
X28792292Y-27554035D01*
X28735584Y-27547507D01*
X28675481Y-27542782D01*
X28624361Y-27540817D01*
X28621333Y-27540808D01*
X28545133Y-27540822D01*
X28545133Y-27981089D01*
X28399492Y-27981089D01*
X28399316Y-27974536D01*
X28398672Y-27914526D01*
X28398417Y-27836617D01*
X28398378Y-27760956D01*
X28398130Y-27660041D01*
X28398183Y-27579427D01*
X28399143Y-27540822D01*
X28399740Y-27516851D01*
X28404002Y-27470055D01*
X28412170Y-27436778D01*
X28425444Y-27414759D01*
X28445026Y-27401739D01*
X28472117Y-27395457D01*
X28507918Y-27393653D01*
X28553629Y-27394066D01*
G36*
X28553629Y-27394066D02*
G01*
X28593111Y-27394467D01*
X28708800Y-27397259D01*
X28805689Y-27405550D01*
X28887081Y-27420232D01*
X28956277Y-27442193D01*
X29016580Y-27472322D01*
X29071292Y-27511510D01*
X29090833Y-27528532D01*
X29123250Y-27568363D01*
X29152480Y-27622413D01*
X29175009Y-27682323D01*
X29187321Y-27739739D01*
X29188600Y-27760956D01*
X29180583Y-27819769D01*
X29159101Y-27884013D01*
X29128001Y-27944821D01*
X29091134Y-27993330D01*
X29085146Y-27999182D01*
X29034421Y-28040321D01*
X28978875Y-28072435D01*
X28915304Y-28096365D01*
X28840506Y-28112953D01*
X28751278Y-28123041D01*
X28644418Y-28127469D01*
X28595472Y-28127845D01*
X28533238Y-28127545D01*
X28489472Y-28126292D01*
X28460069Y-28123554D01*
X28440921Y-28118801D01*
X28427923Y-28111501D01*
X28420955Y-28105267D01*
X28414374Y-28097694D01*
X28409212Y-28087924D01*
X28405297Y-28073340D01*
X28402457Y-28051326D01*
X28400520Y-28019264D01*
X28399492Y-27981089D01*
X28545133Y-27981089D01*
X28638266Y-27981004D01*
X28694307Y-27979396D01*
X28753001Y-27975256D01*
X28801972Y-27969464D01*
X28803462Y-27969226D01*
X28882608Y-27950090D01*
X28943998Y-27920287D01*
X28990695Y-27877878D01*
X29020365Y-27831961D01*
X29038647Y-27781026D01*
X29037229Y-27733200D01*
X29016012Y-27681933D01*
X28974511Y-27628899D01*
X28917002Y-27589600D01*
X28842250Y-27563331D01*
X28792292Y-27554035D01*
X28735584Y-27547507D01*
X28675481Y-27542782D01*
X28624361Y-27540817D01*
X28621333Y-27540808D01*
X28545133Y-27540822D01*
X28545133Y-27981089D01*
X28399492Y-27981089D01*
X28399316Y-27974536D01*
X28398672Y-27914526D01*
X28398417Y-27836617D01*
X28398378Y-27760956D01*
X28398130Y-27660041D01*
X28398183Y-27579427D01*
X28399143Y-27540822D01*
X28399740Y-27516851D01*
X28404002Y-27470055D01*
X28412170Y-27436778D01*
X28425444Y-27414759D01*
X28445026Y-27401739D01*
X28472117Y-27395457D01*
X28507918Y-27393653D01*
X28553629Y-27394066D01*
G37*
X33374886Y-27398448D02*
X33398452Y-27412273D01*
X33429265Y-27434881D01*
X33468922Y-27467338D01*
X33519020Y-27510708D01*
X33581157Y-27566058D01*
X33656928Y-27634451D01*
X33743666Y-27713084D01*
X33924289Y-27876878D01*
X33929933Y-27657029D01*
X33931971Y-27581351D01*
X33933937Y-27524994D01*
X33936266Y-27484706D01*
X33939394Y-27457235D01*
X33943755Y-27439329D01*
X33949784Y-27427737D01*
X33957916Y-27419208D01*
X33962228Y-27415623D01*
X33996759Y-27396670D01*
X34029617Y-27399441D01*
X34055682Y-27415633D01*
X34082333Y-27437199D01*
X34085648Y-27752151D01*
X34086565Y-27844779D01*
X34087032Y-27917544D01*
X34086887Y-27973161D01*
X34085968Y-28014342D01*
X34084113Y-28043803D01*
X34081161Y-28064255D01*
X34076950Y-28078413D01*
X34071318Y-28088991D01*
X34065073Y-28097474D01*
X34051561Y-28113207D01*
X34038117Y-28123636D01*
X34022876Y-28127639D01*
X34003974Y-28124094D01*
X33979545Y-28111879D01*
X33947727Y-28089871D01*
X33906652Y-28056949D01*
X33854458Y-28011991D01*
X33789278Y-27953875D01*
X33715444Y-27887099D01*
X33450155Y-27646458D01*
X33444511Y-27865589D01*
X33442469Y-27941128D01*
X33440498Y-27997354D01*
X33438161Y-28037524D01*
X33435019Y-28064896D01*
X33430636Y-28082728D01*
X33424576Y-28094279D01*
X33416400Y-28102807D01*
X33412216Y-28106282D01*
X33375235Y-28125372D01*
X33340292Y-28122493D01*
X33309864Y-28098100D01*
X33302903Y-28088286D01*
X33297477Y-28076826D01*
X33293397Y-28060968D01*
X33290471Y-28037963D01*
X33288508Y-28005062D01*
X33287317Y-27959516D01*
X33286708Y-27898573D01*
X33286489Y-27819486D01*
X33286466Y-27760956D01*
X33286540Y-27669407D01*
X33286887Y-27597687D01*
X33287699Y-27543045D01*
X33289167Y-27502732D01*
X33291481Y-27473998D01*
X33294833Y-27454093D01*
X33299412Y-27440268D01*
X33305411Y-27429772D01*
X33309864Y-27423811D01*
X33321150Y-27409691D01*
X33331699Y-27399029D01*
X33343107Y-27392892D01*
X33356970Y-27392343D01*
X33374886Y-27398448D01*
G36*
X33374886Y-27398448D02*
G01*
X33398452Y-27412273D01*
X33429265Y-27434881D01*
X33468922Y-27467338D01*
X33519020Y-27510708D01*
X33581157Y-27566058D01*
X33656928Y-27634451D01*
X33743666Y-27713084D01*
X33924289Y-27876878D01*
X33929933Y-27657029D01*
X33931971Y-27581351D01*
X33933937Y-27524994D01*
X33936266Y-27484706D01*
X33939394Y-27457235D01*
X33943755Y-27439329D01*
X33949784Y-27427737D01*
X33957916Y-27419208D01*
X33962228Y-27415623D01*
X33996759Y-27396670D01*
X34029617Y-27399441D01*
X34055682Y-27415633D01*
X34082333Y-27437199D01*
X34085648Y-27752151D01*
X34086565Y-27844779D01*
X34087032Y-27917544D01*
X34086887Y-27973161D01*
X34085968Y-28014342D01*
X34084113Y-28043803D01*
X34081161Y-28064255D01*
X34076950Y-28078413D01*
X34071318Y-28088991D01*
X34065073Y-28097474D01*
X34051561Y-28113207D01*
X34038117Y-28123636D01*
X34022876Y-28127639D01*
X34003974Y-28124094D01*
X33979545Y-28111879D01*
X33947727Y-28089871D01*
X33906652Y-28056949D01*
X33854458Y-28011991D01*
X33789278Y-27953875D01*
X33715444Y-27887099D01*
X33450155Y-27646458D01*
X33444511Y-27865589D01*
X33442469Y-27941128D01*
X33440498Y-27997354D01*
X33438161Y-28037524D01*
X33435019Y-28064896D01*
X33430636Y-28082728D01*
X33424576Y-28094279D01*
X33416400Y-28102807D01*
X33412216Y-28106282D01*
X33375235Y-28125372D01*
X33340292Y-28122493D01*
X33309864Y-28098100D01*
X33302903Y-28088286D01*
X33297477Y-28076826D01*
X33293397Y-28060968D01*
X33290471Y-28037963D01*
X33288508Y-28005062D01*
X33287317Y-27959516D01*
X33286708Y-27898573D01*
X33286489Y-27819486D01*
X33286466Y-27760956D01*
X33286540Y-27669407D01*
X33286887Y-27597687D01*
X33287699Y-27543045D01*
X33289167Y-27502732D01*
X33291481Y-27473998D01*
X33294833Y-27454093D01*
X33299412Y-27440268D01*
X33305411Y-27429772D01*
X33309864Y-27423811D01*
X33321150Y-27409691D01*
X33331699Y-27399029D01*
X33343107Y-27392892D01*
X33356970Y-27392343D01*
X33374886Y-27398448D01*
G37*
X32724919Y-27399599D02*
X32793435Y-27411095D01*
X32846057Y-27428967D01*
X32880292Y-27452499D01*
X32889621Y-27465924D01*
X32899107Y-27497148D01*
X32892723Y-27525395D01*
X32872570Y-27552182D01*
X32841255Y-27564713D01*
X32795817Y-27563696D01*
X32760674Y-27556906D01*
X32682581Y-27543971D01*
X32602774Y-27542742D01*
X32513445Y-27553241D01*
X32488771Y-27557690D01*
X32405709Y-27581108D01*
X32340727Y-27615945D01*
X32294539Y-27661604D01*
X32267855Y-27717494D01*
X32262337Y-27746388D01*
X32265949Y-27805012D01*
X32289271Y-27856879D01*
X32330176Y-27900978D01*
X32386541Y-27936299D01*
X32456240Y-27961829D01*
X32537148Y-27976559D01*
X32627140Y-27979478D01*
X32724090Y-27969575D01*
X32729564Y-27968641D01*
X32768125Y-27961459D01*
X32789506Y-27954521D01*
X32798773Y-27944227D01*
X32800994Y-27926976D01*
X32801044Y-27917841D01*
X32801044Y-27879489D01*
X32732569Y-27879489D01*
X32672100Y-27875347D01*
X32630835Y-27862147D01*
X32606825Y-27838730D01*
X32598123Y-27803936D01*
X32598017Y-27799394D01*
X32603108Y-27769654D01*
X32620567Y-27748419D01*
X32653061Y-27734366D01*
X32703257Y-27726173D01*
X32751877Y-27723161D01*
X32822544Y-27721433D01*
X32873802Y-27724070D01*
X32908761Y-27733800D01*
X32930530Y-27753353D01*
X32942220Y-27785456D01*
X32946940Y-27832838D01*
X32947800Y-27895071D01*
X32946391Y-27964535D01*
X32942152Y-28011786D01*
X32935064Y-28037012D01*
X32933689Y-28038988D01*
X32894772Y-28070508D01*
X32837714Y-28095470D01*
X32766131Y-28113340D01*
X32683642Y-28123586D01*
X32593861Y-28125673D01*
X32500408Y-28119068D01*
X32445444Y-28110956D01*
X32359234Y-28086554D01*
X32279108Y-28046662D01*
X32212023Y-27994887D01*
X32201827Y-27984539D01*
X32168698Y-27941035D01*
X32138806Y-27887118D01*
X32115643Y-27830592D01*
X32102702Y-27779259D01*
X32101142Y-27759544D01*
X32107782Y-27718419D01*
X32125432Y-27667252D01*
X32150703Y-27613394D01*
X32180211Y-27564195D01*
X32206281Y-27531334D01*
X32267235Y-27482452D01*
X32346031Y-27443545D01*
X32439843Y-27415494D01*
X32545850Y-27399179D01*
X32643000Y-27395192D01*
X32724919Y-27399599D01*
G36*
X32724919Y-27399599D02*
G01*
X32793435Y-27411095D01*
X32846057Y-27428967D01*
X32880292Y-27452499D01*
X32889621Y-27465924D01*
X32899107Y-27497148D01*
X32892723Y-27525395D01*
X32872570Y-27552182D01*
X32841255Y-27564713D01*
X32795817Y-27563696D01*
X32760674Y-27556906D01*
X32682581Y-27543971D01*
X32602774Y-27542742D01*
X32513445Y-27553241D01*
X32488771Y-27557690D01*
X32405709Y-27581108D01*
X32340727Y-27615945D01*
X32294539Y-27661604D01*
X32267855Y-27717494D01*
X32262337Y-27746388D01*
X32265949Y-27805012D01*
X32289271Y-27856879D01*
X32330176Y-27900978D01*
X32386541Y-27936299D01*
X32456240Y-27961829D01*
X32537148Y-27976559D01*
X32627140Y-27979478D01*
X32724090Y-27969575D01*
X32729564Y-27968641D01*
X32768125Y-27961459D01*
X32789506Y-27954521D01*
X32798773Y-27944227D01*
X32800994Y-27926976D01*
X32801044Y-27917841D01*
X32801044Y-27879489D01*
X32732569Y-27879489D01*
X32672100Y-27875347D01*
X32630835Y-27862147D01*
X32606825Y-27838730D01*
X32598123Y-27803936D01*
X32598017Y-27799394D01*
X32603108Y-27769654D01*
X32620567Y-27748419D01*
X32653061Y-27734366D01*
X32703257Y-27726173D01*
X32751877Y-27723161D01*
X32822544Y-27721433D01*
X32873802Y-27724070D01*
X32908761Y-27733800D01*
X32930530Y-27753353D01*
X32942220Y-27785456D01*
X32946940Y-27832838D01*
X32947800Y-27895071D01*
X32946391Y-27964535D01*
X32942152Y-28011786D01*
X32935064Y-28037012D01*
X32933689Y-28038988D01*
X32894772Y-28070508D01*
X32837714Y-28095470D01*
X32766131Y-28113340D01*
X32683642Y-28123586D01*
X32593861Y-28125673D01*
X32500408Y-28119068D01*
X32445444Y-28110956D01*
X32359234Y-28086554D01*
X32279108Y-28046662D01*
X32212023Y-27994887D01*
X32201827Y-27984539D01*
X32168698Y-27941035D01*
X32138806Y-27887118D01*
X32115643Y-27830592D01*
X32102702Y-27779259D01*
X32101142Y-27759544D01*
X32107782Y-27718419D01*
X32125432Y-27667252D01*
X32150703Y-27613394D01*
X32180211Y-27564195D01*
X32206281Y-27531334D01*
X32267235Y-27482452D01*
X32346031Y-27443545D01*
X32439843Y-27415494D01*
X32545850Y-27399179D01*
X32643000Y-27395192D01*
X32724919Y-27399599D01*
G37*
X34905343Y-27394260D02*
X34981701Y-27395174D01*
X35040217Y-27397311D01*
X35083255Y-27401175D01*
X35113183Y-27407267D01*
X35132368Y-27416090D01*
X35143176Y-27428146D01*
X35147973Y-27443939D01*
X35149127Y-27463970D01*
X35149133Y-27466335D01*
X35148131Y-27488992D01*
X35143396Y-27506503D01*
X35132333Y-27519574D01*
X35112348Y-27528913D01*
X35080846Y-27535227D01*
X35035232Y-27539222D01*
X34972913Y-27541606D01*
X34891293Y-27543086D01*
X34866277Y-27543414D01*
X34624200Y-27546467D01*
X34620814Y-27611378D01*
X34617429Y-27676289D01*
X34785576Y-27676289D01*
X34851266Y-27676531D01*
X34898172Y-27677556D01*
X34930083Y-27679811D01*
X34950791Y-27683742D01*
X34964084Y-27689798D01*
X34973755Y-27698424D01*
X34973817Y-27698493D01*
X34991356Y-27732112D01*
X34990722Y-27768448D01*
X34972314Y-27799423D01*
X34968671Y-27802607D01*
X34955741Y-27810812D01*
X34938024Y-27816521D01*
X34911570Y-27820162D01*
X34872432Y-27822167D01*
X34816662Y-27822964D01*
X34780994Y-27823045D01*
X34618555Y-27823045D01*
X34618555Y-27981089D01*
X34865161Y-27981089D01*
X34946580Y-27981231D01*
X35008410Y-27981814D01*
X35053637Y-27983068D01*
X35085248Y-27985227D01*
X35106231Y-27988523D01*
X35119573Y-27993189D01*
X35128261Y-27999457D01*
X35130450Y-28001733D01*
X35146614Y-28033280D01*
X35147797Y-28069168D01*
X35134536Y-28100285D01*
X35124043Y-28110271D01*
X35113129Y-28115769D01*
X35096217Y-28120022D01*
X35070633Y-28123180D01*
X35033701Y-28125392D01*
X34982746Y-28126806D01*
X34915094Y-28127572D01*
X34828069Y-28127838D01*
X34808394Y-28127845D01*
X34719911Y-28127787D01*
X34651227Y-28127467D01*
X34599564Y-28126667D01*
X34562145Y-28125167D01*
X34536190Y-28122749D01*
X34518922Y-28119194D01*
X34507562Y-28114282D01*
X34499332Y-28107795D01*
X34494817Y-28103138D01*
X34488021Y-28094889D01*
X34482712Y-28084669D01*
X34478706Y-28069800D01*
X34475821Y-28047602D01*
X34473874Y-28015393D01*
X34472681Y-27970496D01*
X34472061Y-27910228D01*
X34471829Y-27831911D01*
X34471800Y-27765994D01*
X34471871Y-27673628D01*
X34472208Y-27601117D01*
X34472998Y-27545737D01*
X34474426Y-27504765D01*
X34476679Y-27475478D01*
X34479943Y-27455153D01*
X34484404Y-27441066D01*
X34490248Y-27430495D01*
X34495197Y-27423811D01*
X34518594Y-27394067D01*
X34808774Y-27394067D01*
X34905343Y-27394260D01*
G36*
X34905343Y-27394260D02*
G01*
X34981701Y-27395174D01*
X35040217Y-27397311D01*
X35083255Y-27401175D01*
X35113183Y-27407267D01*
X35132368Y-27416090D01*
X35143176Y-27428146D01*
X35147973Y-27443939D01*
X35149127Y-27463970D01*
X35149133Y-27466335D01*
X35148131Y-27488992D01*
X35143396Y-27506503D01*
X35132333Y-27519574D01*
X35112348Y-27528913D01*
X35080846Y-27535227D01*
X35035232Y-27539222D01*
X34972913Y-27541606D01*
X34891293Y-27543086D01*
X34866277Y-27543414D01*
X34624200Y-27546467D01*
X34620814Y-27611378D01*
X34617429Y-27676289D01*
X34785576Y-27676289D01*
X34851266Y-27676531D01*
X34898172Y-27677556D01*
X34930083Y-27679811D01*
X34950791Y-27683742D01*
X34964084Y-27689798D01*
X34973755Y-27698424D01*
X34973817Y-27698493D01*
X34991356Y-27732112D01*
X34990722Y-27768448D01*
X34972314Y-27799423D01*
X34968671Y-27802607D01*
X34955741Y-27810812D01*
X34938024Y-27816521D01*
X34911570Y-27820162D01*
X34872432Y-27822167D01*
X34816662Y-27822964D01*
X34780994Y-27823045D01*
X34618555Y-27823045D01*
X34618555Y-27981089D01*
X34865161Y-27981089D01*
X34946580Y-27981231D01*
X35008410Y-27981814D01*
X35053637Y-27983068D01*
X35085248Y-27985227D01*
X35106231Y-27988523D01*
X35119573Y-27993189D01*
X35128261Y-27999457D01*
X35130450Y-28001733D01*
X35146614Y-28033280D01*
X35147797Y-28069168D01*
X35134536Y-28100285D01*
X35124043Y-28110271D01*
X35113129Y-28115769D01*
X35096217Y-28120022D01*
X35070633Y-28123180D01*
X35033701Y-28125392D01*
X34982746Y-28126806D01*
X34915094Y-28127572D01*
X34828069Y-28127838D01*
X34808394Y-28127845D01*
X34719911Y-28127787D01*
X34651227Y-28127467D01*
X34599564Y-28126667D01*
X34562145Y-28125167D01*
X34536190Y-28122749D01*
X34518922Y-28119194D01*
X34507562Y-28114282D01*
X34499332Y-28107795D01*
X34494817Y-28103138D01*
X34488021Y-28094889D01*
X34482712Y-28084669D01*
X34478706Y-28069800D01*
X34475821Y-28047602D01*
X34473874Y-28015393D01*
X34472681Y-27970496D01*
X34472061Y-27910228D01*
X34471829Y-27831911D01*
X34471800Y-27765994D01*
X34471871Y-27673628D01*
X34472208Y-27601117D01*
X34472998Y-27545737D01*
X34474426Y-27504765D01*
X34476679Y-27475478D01*
X34479943Y-27455153D01*
X34484404Y-27441066D01*
X34490248Y-27430495D01*
X34495197Y-27423811D01*
X34518594Y-27394067D01*
X34808774Y-27394067D01*
X34905343Y-27394260D01*
G37*
X29962206Y-27394146D02*
X30031614Y-27394518D01*
X30084003Y-27395385D01*
X30122153Y-27396946D01*
X30148841Y-27399403D01*
X30166847Y-27402957D01*
X30178951Y-27407810D01*
X30187931Y-27414161D01*
X30191182Y-27417084D01*
X30210957Y-27448142D01*
X30214518Y-27483828D01*
X30201509Y-27515510D01*
X30195494Y-27521913D01*
X30185765Y-27528121D01*
X30170099Y-27532910D01*
X30145592Y-27536514D01*
X30109339Y-27539164D01*
X30058435Y-27541095D01*
X29989974Y-27542539D01*
X29927383Y-27543418D01*
X29679666Y-27546467D01*
X29676281Y-27611378D01*
X29672895Y-27676289D01*
X29841042Y-27676289D01*
X29914041Y-27676919D01*
X29967483Y-27679553D01*
X30004372Y-27685309D01*
X30027712Y-27695304D01*
X30040506Y-27710656D01*
X30045758Y-27732482D01*
X30046555Y-27752738D01*
X30044077Y-27777592D01*
X30034723Y-27795906D01*
X30015617Y-27808637D01*
X29983882Y-27816741D01*
X29936641Y-27821176D01*
X29871017Y-27822899D01*
X29835199Y-27823045D01*
X29674022Y-27823045D01*
X29674022Y-27981089D01*
X29922378Y-27981089D01*
X30003787Y-27981202D01*
X30065658Y-27981712D01*
X30111032Y-27982870D01*
X30142946Y-27984930D01*
X30164441Y-27988146D01*
X30178557Y-27992772D01*
X30188332Y-27999059D01*
X30193311Y-28003667D01*
X30210390Y-28030560D01*
X30215889Y-28054467D01*
X30208037Y-28083667D01*
X30193311Y-28105267D01*
X30185454Y-28112066D01*
X30175312Y-28117346D01*
X30160156Y-28121298D01*
X30137259Y-28124113D01*
X30103891Y-28125982D01*
X30057325Y-28127098D01*
X29994833Y-28127651D01*
X29913686Y-28127833D01*
X29871578Y-28127845D01*
X29781402Y-28127765D01*
X29711076Y-28127398D01*
X29657871Y-28126552D01*
X29619060Y-28125036D01*
X29591913Y-28122659D01*
X29573702Y-28119229D01*
X29561700Y-28114554D01*
X29553178Y-28108444D01*
X29549844Y-28105267D01*
X29543245Y-28097670D01*
X29538073Y-28087870D01*
X29534154Y-28073239D01*
X29531316Y-28051152D01*
X29529385Y-28018982D01*
X29528188Y-27974103D01*
X29527552Y-27913889D01*
X29527303Y-27835713D01*
X29527266Y-27762923D01*
X29527300Y-27669707D01*
X29527535Y-27596431D01*
X29528170Y-27540458D01*
X29529406Y-27499151D01*
X29531444Y-27469872D01*
X29534483Y-27449984D01*
X29538723Y-27436850D01*
X29544365Y-27427832D01*
X29551609Y-27420293D01*
X29553394Y-27418612D01*
X29562055Y-27411172D01*
X29572118Y-27405409D01*
X29586375Y-27401112D01*
X29607617Y-27398064D01*
X29638636Y-27396051D01*
X29682223Y-27394860D01*
X29741169Y-27394275D01*
X29818266Y-27394083D01*
X29872999Y-27394067D01*
X29962206Y-27394146D01*
G36*
X29962206Y-27394146D02*
G01*
X30031614Y-27394518D01*
X30084003Y-27395385D01*
X30122153Y-27396946D01*
X30148841Y-27399403D01*
X30166847Y-27402957D01*
X30178951Y-27407810D01*
X30187931Y-27414161D01*
X30191182Y-27417084D01*
X30210957Y-27448142D01*
X30214518Y-27483828D01*
X30201509Y-27515510D01*
X30195494Y-27521913D01*
X30185765Y-27528121D01*
X30170099Y-27532910D01*
X30145592Y-27536514D01*
X30109339Y-27539164D01*
X30058435Y-27541095D01*
X29989974Y-27542539D01*
X29927383Y-27543418D01*
X29679666Y-27546467D01*
X29676281Y-27611378D01*
X29672895Y-27676289D01*
X29841042Y-27676289D01*
X29914041Y-27676919D01*
X29967483Y-27679553D01*
X30004372Y-27685309D01*
X30027712Y-27695304D01*
X30040506Y-27710656D01*
X30045758Y-27732482D01*
X30046555Y-27752738D01*
X30044077Y-27777592D01*
X30034723Y-27795906D01*
X30015617Y-27808637D01*
X29983882Y-27816741D01*
X29936641Y-27821176D01*
X29871017Y-27822899D01*
X29835199Y-27823045D01*
X29674022Y-27823045D01*
X29674022Y-27981089D01*
X29922378Y-27981089D01*
X30003787Y-27981202D01*
X30065658Y-27981712D01*
X30111032Y-27982870D01*
X30142946Y-27984930D01*
X30164441Y-27988146D01*
X30178557Y-27992772D01*
X30188332Y-27999059D01*
X30193311Y-28003667D01*
X30210390Y-28030560D01*
X30215889Y-28054467D01*
X30208037Y-28083667D01*
X30193311Y-28105267D01*
X30185454Y-28112066D01*
X30175312Y-28117346D01*
X30160156Y-28121298D01*
X30137259Y-28124113D01*
X30103891Y-28125982D01*
X30057325Y-28127098D01*
X29994833Y-28127651D01*
X29913686Y-28127833D01*
X29871578Y-28127845D01*
X29781402Y-28127765D01*
X29711076Y-28127398D01*
X29657871Y-28126552D01*
X29619060Y-28125036D01*
X29591913Y-28122659D01*
X29573702Y-28119229D01*
X29561700Y-28114554D01*
X29553178Y-28108444D01*
X29549844Y-28105267D01*
X29543245Y-28097670D01*
X29538073Y-28087870D01*
X29534154Y-28073239D01*
X29531316Y-28051152D01*
X29529385Y-28018982D01*
X29528188Y-27974103D01*
X29527552Y-27913889D01*
X29527303Y-27835713D01*
X29527266Y-27762923D01*
X29527300Y-27669707D01*
X29527535Y-27596431D01*
X29528170Y-27540458D01*
X29529406Y-27499151D01*
X29531444Y-27469872D01*
X29534483Y-27449984D01*
X29538723Y-27436850D01*
X29544365Y-27427832D01*
X29551609Y-27420293D01*
X29553394Y-27418612D01*
X29562055Y-27411172D01*
X29572118Y-27405409D01*
X29586375Y-27401112D01*
X29607617Y-27398064D01*
X29638636Y-27396051D01*
X29682223Y-27394860D01*
X29741169Y-27394275D01*
X29818266Y-27394083D01*
X29872999Y-27394067D01*
X29962206Y-27394146D01*
G37*
X38419665Y-27396034D02*
X38439255Y-27403035D01*
X38440010Y-27403377D01*
X38466613Y-27423678D01*
X38481270Y-27444561D01*
X38484138Y-27454352D01*
X38483996Y-27467361D01*
X38479961Y-27485895D01*
X38471146Y-27512257D01*
X38456669Y-27548752D01*
X38435645Y-27597687D01*
X38407188Y-27661365D01*
X38370415Y-27742093D01*
X38350175Y-27786216D01*
X38313625Y-27864985D01*
X38279315Y-27937423D01*
X38248552Y-28000880D01*
X38222648Y-28052708D01*
X38202910Y-28090259D01*
X38190650Y-28110884D01*
X38188224Y-28113733D01*
X38157183Y-28126302D01*
X38122121Y-28124619D01*
X38094000Y-28109332D01*
X38092854Y-28108089D01*
X38081668Y-28091154D01*
X38062904Y-28058170D01*
X38038875Y-28013380D01*
X38011897Y-27961032D01*
X38002201Y-27941742D01*
X37929014Y-27795150D01*
X37849240Y-27954393D01*
X37820767Y-28009415D01*
X37794350Y-28057132D01*
X37772148Y-28093893D01*
X37756319Y-28116044D01*
X37750954Y-28120741D01*
X37709257Y-28127102D01*
X37674849Y-28113733D01*
X37664728Y-28099446D01*
X37647214Y-28067692D01*
X37623735Y-28021597D01*
X37595720Y-27964285D01*
X37564599Y-27898880D01*
X37531799Y-27828507D01*
X37498750Y-27756291D01*
X37466881Y-27685355D01*
X37437619Y-27618825D01*
X37412395Y-27559826D01*
X37392636Y-27511481D01*
X37379772Y-27476915D01*
X37375231Y-27459253D01*
X37375277Y-27458613D01*
X37386326Y-27436388D01*
X37408410Y-27413753D01*
X37409710Y-27412768D01*
X37436853Y-27397425D01*
X37461958Y-27397574D01*
X37471368Y-27400466D01*
X37482834Y-27406718D01*
X37495010Y-27419014D01*
X37509357Y-27439908D01*
X37527336Y-27471949D01*
X37550407Y-27517688D01*
X37580030Y-27579677D01*
X37606745Y-27636898D01*
X37637480Y-27703226D01*
X37665021Y-27762874D01*
X37687938Y-27812725D01*
X37704798Y-27849664D01*
X37714173Y-27870573D01*
X37715540Y-27873845D01*
X37721689Y-27868497D01*
X37735822Y-27846109D01*
X37756057Y-27809946D01*
X37780515Y-27763277D01*
X37790248Y-27744022D01*
X37823217Y-27679004D01*
X37848643Y-27631654D01*
X37868612Y-27599219D01*
X37885210Y-27578946D01*
X37900524Y-27568082D01*
X37916640Y-27563875D01*
X37927143Y-27563400D01*
X37945670Y-27565042D01*
X37961904Y-27571831D01*
X37978035Y-27586566D01*
X37996251Y-27612044D01*
X38018739Y-27651061D01*
X38047689Y-27706414D01*
X38063662Y-27737903D01*
X38089570Y-27788087D01*
X38112167Y-27829704D01*
X38129458Y-27859242D01*
X38139450Y-27873189D01*
X38140809Y-27873770D01*
X38147261Y-27862793D01*
X38161708Y-27834290D01*
X38182703Y-27791244D01*
X38208797Y-27736638D01*
X38238546Y-27673454D01*
X38253180Y-27642071D01*
X38291250Y-27561078D01*
X38321905Y-27498756D01*
X38346737Y-27453071D01*
X38367337Y-27421989D01*
X38385298Y-27403478D01*
X38402210Y-27395504D01*
X38419665Y-27396034D01*
G36*
X38419665Y-27396034D02*
G01*
X38439255Y-27403035D01*
X38440010Y-27403377D01*
X38466613Y-27423678D01*
X38481270Y-27444561D01*
X38484138Y-27454352D01*
X38483996Y-27467361D01*
X38479961Y-27485895D01*
X38471146Y-27512257D01*
X38456669Y-27548752D01*
X38435645Y-27597687D01*
X38407188Y-27661365D01*
X38370415Y-27742093D01*
X38350175Y-27786216D01*
X38313625Y-27864985D01*
X38279315Y-27937423D01*
X38248552Y-28000880D01*
X38222648Y-28052708D01*
X38202910Y-28090259D01*
X38190650Y-28110884D01*
X38188224Y-28113733D01*
X38157183Y-28126302D01*
X38122121Y-28124619D01*
X38094000Y-28109332D01*
X38092854Y-28108089D01*
X38081668Y-28091154D01*
X38062904Y-28058170D01*
X38038875Y-28013380D01*
X38011897Y-27961032D01*
X38002201Y-27941742D01*
X37929014Y-27795150D01*
X37849240Y-27954393D01*
X37820767Y-28009415D01*
X37794350Y-28057132D01*
X37772148Y-28093893D01*
X37756319Y-28116044D01*
X37750954Y-28120741D01*
X37709257Y-28127102D01*
X37674849Y-28113733D01*
X37664728Y-28099446D01*
X37647214Y-28067692D01*
X37623735Y-28021597D01*
X37595720Y-27964285D01*
X37564599Y-27898880D01*
X37531799Y-27828507D01*
X37498750Y-27756291D01*
X37466881Y-27685355D01*
X37437619Y-27618825D01*
X37412395Y-27559826D01*
X37392636Y-27511481D01*
X37379772Y-27476915D01*
X37375231Y-27459253D01*
X37375277Y-27458613D01*
X37386326Y-27436388D01*
X37408410Y-27413753D01*
X37409710Y-27412768D01*
X37436853Y-27397425D01*
X37461958Y-27397574D01*
X37471368Y-27400466D01*
X37482834Y-27406718D01*
X37495010Y-27419014D01*
X37509357Y-27439908D01*
X37527336Y-27471949D01*
X37550407Y-27517688D01*
X37580030Y-27579677D01*
X37606745Y-27636898D01*
X37637480Y-27703226D01*
X37665021Y-27762874D01*
X37687938Y-27812725D01*
X37704798Y-27849664D01*
X37714173Y-27870573D01*
X37715540Y-27873845D01*
X37721689Y-27868497D01*
X37735822Y-27846109D01*
X37756057Y-27809946D01*
X37780515Y-27763277D01*
X37790248Y-27744022D01*
X37823217Y-27679004D01*
X37848643Y-27631654D01*
X37868612Y-27599219D01*
X37885210Y-27578946D01*
X37900524Y-27568082D01*
X37916640Y-27563875D01*
X37927143Y-27563400D01*
X37945670Y-27565042D01*
X37961904Y-27571831D01*
X37978035Y-27586566D01*
X37996251Y-27612044D01*
X38018739Y-27651061D01*
X38047689Y-27706414D01*
X38063662Y-27737903D01*
X38089570Y-27788087D01*
X38112167Y-27829704D01*
X38129458Y-27859242D01*
X38139450Y-27873189D01*
X38140809Y-27873770D01*
X38147261Y-27862793D01*
X38161708Y-27834290D01*
X38182703Y-27791244D01*
X38208797Y-27736638D01*
X38238546Y-27673454D01*
X38253180Y-27642071D01*
X38291250Y-27561078D01*
X38321905Y-27498756D01*
X38346737Y-27453071D01*
X38367337Y-27421989D01*
X38385298Y-27403478D01*
X38402210Y-27395504D01*
X38419665Y-27396034D01*
G37*
X30983297Y-27395351D02*
X31058112Y-27400581D01*
X31127694Y-27408750D01*
X31187998Y-27419550D01*
X31234980Y-27432673D01*
X31264594Y-27447813D01*
X31269140Y-27452269D01*
X31284946Y-27486850D01*
X31280153Y-27522351D01*
X31255636Y-27552725D01*
X31254466Y-27553596D01*
X31240046Y-27562954D01*
X31224992Y-27567876D01*
X31203995Y-27568473D01*
X31171743Y-27564861D01*
X31122927Y-27557154D01*
X31119000Y-27556505D01*
X31046261Y-27547569D01*
X30967783Y-27543161D01*
X30889073Y-27543119D01*
X30815639Y-27547279D01*
X30752989Y-27555479D01*
X30706630Y-27567557D01*
X30703584Y-27568771D01*
X30669952Y-27587615D01*
X30658136Y-27606685D01*
X30667386Y-27625439D01*
X30696953Y-27643337D01*
X30746089Y-27659837D01*
X30814043Y-27674396D01*
X30859355Y-27681406D01*
X30953544Y-27694889D01*
X31028456Y-27707214D01*
X31087283Y-27719449D01*
X31133215Y-27732661D01*
X31169445Y-27747917D01*
X31199162Y-27766285D01*
X31225558Y-27788831D01*
X31246770Y-27810971D01*
X31271935Y-27841819D01*
X31284319Y-27868345D01*
X31288192Y-27901026D01*
X31288333Y-27912995D01*
X31285424Y-27952712D01*
X31273798Y-27982259D01*
X31253677Y-28008486D01*
X31212784Y-28048576D01*
X31167183Y-28079149D01*
X31113487Y-28101203D01*
X31048308Y-28115735D01*
X30968256Y-28123741D01*
X30869943Y-28126218D01*
X30853711Y-28126177D01*
X30788151Y-28124818D01*
X30723134Y-28121730D01*
X30665748Y-28117356D01*
X30623078Y-28112140D01*
X30619628Y-28111541D01*
X30577204Y-28101491D01*
X30541220Y-28088796D01*
X30520850Y-28077190D01*
X30501893Y-28046572D01*
X30500573Y-28010918D01*
X30516915Y-27979144D01*
X30520571Y-27975551D01*
X30535685Y-27964876D01*
X30554585Y-27960276D01*
X30583838Y-27961059D01*
X30619349Y-27965127D01*
X30659030Y-27968762D01*
X30714655Y-27971828D01*
X30779594Y-27974053D01*
X30847215Y-27975164D01*
X30865000Y-27975237D01*
X30932872Y-27974964D01*
X30982546Y-27973646D01*
X31018390Y-27970827D01*
X31044776Y-27966050D01*
X31066074Y-27958857D01*
X31078874Y-27952867D01*
X31107000Y-27936233D01*
X31124932Y-27921168D01*
X31127553Y-27916897D01*
X31122024Y-27899263D01*
X31095740Y-27882192D01*
X31050522Y-27866458D01*
X30988192Y-27852838D01*
X30969829Y-27849804D01*
X30873910Y-27834738D01*
X30797359Y-27822146D01*
X30737220Y-27811111D01*
X30690540Y-27800720D01*
X30654363Y-27790056D01*
X30625735Y-27778205D01*
X30601702Y-27764251D01*
X30579308Y-27747281D01*
X30555598Y-27726378D01*
X30547620Y-27719049D01*
X30519647Y-27691699D01*
X30504840Y-27670029D01*
X30499048Y-27645232D01*
X30498111Y-27613983D01*
X30508425Y-27552705D01*
X30539248Y-27500640D01*
X30590405Y-27457958D01*
X30661717Y-27424825D01*
X30712600Y-27409964D01*
X30767900Y-27400366D01*
X30834147Y-27394936D01*
X30907294Y-27393367D01*
X30983297Y-27395351D01*
G36*
X30983297Y-27395351D02*
G01*
X31058112Y-27400581D01*
X31127694Y-27408750D01*
X31187998Y-27419550D01*
X31234980Y-27432673D01*
X31264594Y-27447813D01*
X31269140Y-27452269D01*
X31284946Y-27486850D01*
X31280153Y-27522351D01*
X31255636Y-27552725D01*
X31254466Y-27553596D01*
X31240046Y-27562954D01*
X31224992Y-27567876D01*
X31203995Y-27568473D01*
X31171743Y-27564861D01*
X31122927Y-27557154D01*
X31119000Y-27556505D01*
X31046261Y-27547569D01*
X30967783Y-27543161D01*
X30889073Y-27543119D01*
X30815639Y-27547279D01*
X30752989Y-27555479D01*
X30706630Y-27567557D01*
X30703584Y-27568771D01*
X30669952Y-27587615D01*
X30658136Y-27606685D01*
X30667386Y-27625439D01*
X30696953Y-27643337D01*
X30746089Y-27659837D01*
X30814043Y-27674396D01*
X30859355Y-27681406D01*
X30953544Y-27694889D01*
X31028456Y-27707214D01*
X31087283Y-27719449D01*
X31133215Y-27732661D01*
X31169445Y-27747917D01*
X31199162Y-27766285D01*
X31225558Y-27788831D01*
X31246770Y-27810971D01*
X31271935Y-27841819D01*
X31284319Y-27868345D01*
X31288192Y-27901026D01*
X31288333Y-27912995D01*
X31285424Y-27952712D01*
X31273798Y-27982259D01*
X31253677Y-28008486D01*
X31212784Y-28048576D01*
X31167183Y-28079149D01*
X31113487Y-28101203D01*
X31048308Y-28115735D01*
X30968256Y-28123741D01*
X30869943Y-28126218D01*
X30853711Y-28126177D01*
X30788151Y-28124818D01*
X30723134Y-28121730D01*
X30665748Y-28117356D01*
X30623078Y-28112140D01*
X30619628Y-28111541D01*
X30577204Y-28101491D01*
X30541220Y-28088796D01*
X30520850Y-28077190D01*
X30501893Y-28046572D01*
X30500573Y-28010918D01*
X30516915Y-27979144D01*
X30520571Y-27975551D01*
X30535685Y-27964876D01*
X30554585Y-27960276D01*
X30583838Y-27961059D01*
X30619349Y-27965127D01*
X30659030Y-27968762D01*
X30714655Y-27971828D01*
X30779594Y-27974053D01*
X30847215Y-27975164D01*
X30865000Y-27975237D01*
X30932872Y-27974964D01*
X30982546Y-27973646D01*
X31018390Y-27970827D01*
X31044776Y-27966050D01*
X31066074Y-27958857D01*
X31078874Y-27952867D01*
X31107000Y-27936233D01*
X31124932Y-27921168D01*
X31127553Y-27916897D01*
X31122024Y-27899263D01*
X31095740Y-27882192D01*
X31050522Y-27866458D01*
X30988192Y-27852838D01*
X30969829Y-27849804D01*
X30873910Y-27834738D01*
X30797359Y-27822146D01*
X30737220Y-27811111D01*
X30690540Y-27800720D01*
X30654363Y-27790056D01*
X30625735Y-27778205D01*
X30601702Y-27764251D01*
X30579308Y-27747281D01*
X30555598Y-27726378D01*
X30547620Y-27719049D01*
X30519647Y-27691699D01*
X30504840Y-27670029D01*
X30499048Y-27645232D01*
X30498111Y-27613983D01*
X30508425Y-27552705D01*
X30539248Y-27500640D01*
X30590405Y-27457958D01*
X30661717Y-27424825D01*
X30712600Y-27409964D01*
X30767900Y-27400366D01*
X30834147Y-27394936D01*
X30907294Y-27393367D01*
X30983297Y-27395351D01*
G37*
X35003429Y-23074071D02*
X35163570Y-23095245D01*
X35327510Y-23135385D01*
X35497313Y-23194889D01*
X35675043Y-23274154D01*
X35686310Y-23279699D01*
X35744005Y-23307725D01*
X35795552Y-23331802D01*
X35837191Y-23350249D01*
X35865162Y-23361386D01*
X35874733Y-23363933D01*
X35893950Y-23368941D01*
X35898561Y-23373147D01*
X35893458Y-23383580D01*
X35877418Y-23409868D01*
X35852288Y-23449257D01*
X35819914Y-23498991D01*
X35782143Y-23556315D01*
X35740822Y-23618476D01*
X35697798Y-23682718D01*
X35654917Y-23746285D01*
X35614026Y-23806425D01*
X35576971Y-23860380D01*
X35545600Y-23905397D01*
X35521759Y-23938721D01*
X35507294Y-23957597D01*
X35505309Y-23959787D01*
X35495191Y-23955138D01*
X35472850Y-23937962D01*
X35442280Y-23911440D01*
X35426536Y-23896964D01*
X35330047Y-23821682D01*
X35223336Y-23766241D01*
X35107832Y-23731141D01*
X34984962Y-23716880D01*
X34915561Y-23718051D01*
X34794423Y-23735212D01*
X34685205Y-23771094D01*
X34587582Y-23825959D01*
X34501228Y-23900070D01*
X34425815Y-23993688D01*
X34361018Y-24107076D01*
X34323601Y-24193667D01*
X34279748Y-24329366D01*
X34247428Y-24476850D01*
X34226557Y-24632314D01*
X34217051Y-24791956D01*
X34218827Y-24951973D01*
X34231803Y-25108561D01*
X34255894Y-25257918D01*
X34291018Y-25396240D01*
X34337092Y-25519724D01*
X34353373Y-25553978D01*
X34421620Y-25668064D01*
X34502079Y-25764557D01*
X34593570Y-25842670D01*
X34694911Y-25901617D01*
X34804920Y-25940612D01*
X34922415Y-25958868D01*
X34963883Y-25960211D01*
X35085441Y-25949290D01*
X35205878Y-25916474D01*
X35323666Y-25862439D01*
X35437277Y-25787865D01*
X35528685Y-25709539D01*
X35575215Y-25665008D01*
X35756483Y-25962271D01*
X35801580Y-26036433D01*
X35842819Y-26104646D01*
X35878735Y-26164459D01*
X35907866Y-26213420D01*
X35928750Y-26249079D01*
X35939924Y-26268984D01*
X35941375Y-26272079D01*
X35933146Y-26281718D01*
X35907567Y-26298999D01*
X35867873Y-26322283D01*
X35817297Y-26349934D01*
X35759074Y-26380315D01*
X35696437Y-26411790D01*
X35632621Y-26442722D01*
X35570860Y-26471473D01*
X35514388Y-26496408D01*
X35466438Y-26515889D01*
X35442986Y-26524318D01*
X35309221Y-26562133D01*
X35171327Y-26587136D01*
X35023622Y-26600140D01*
X34896833Y-26602468D01*
X34828878Y-26601373D01*
X34763277Y-26599275D01*
X34705847Y-26596434D01*
X34662403Y-26593106D01*
X34648298Y-26591422D01*
X34509284Y-26562587D01*
X34367757Y-26517468D01*
X34230275Y-26458750D01*
X34103394Y-26389120D01*
X34025889Y-26336441D01*
X33898481Y-26228239D01*
X33780178Y-26101671D01*
X33673172Y-25959866D01*
X33579652Y-25805951D01*
X33501810Y-25643053D01*
X33457956Y-25525756D01*
X33407708Y-25342128D01*
X33374209Y-25147581D01*
X33357449Y-24946325D01*
X33357416Y-24742568D01*
X33374101Y-24540521D01*
X33407493Y-24344392D01*
X33457580Y-24158391D01*
X33461397Y-24146803D01*
X33524281Y-23984750D01*
X33601028Y-23836832D01*
X33694242Y-23698865D01*
X33806527Y-23566661D01*
X33850392Y-23521399D01*
X33986534Y-23397457D01*
X34126491Y-23294915D01*
X34272411Y-23212656D01*
X34426442Y-23149564D01*
X34590732Y-23104523D01*
X34686289Y-23087033D01*
X34845023Y-23071466D01*
X35003429Y-23074071D01*
G36*
X35003429Y-23074071D02*
G01*
X35163570Y-23095245D01*
X35327510Y-23135385D01*
X35497313Y-23194889D01*
X35675043Y-23274154D01*
X35686310Y-23279699D01*
X35744005Y-23307725D01*
X35795552Y-23331802D01*
X35837191Y-23350249D01*
X35865162Y-23361386D01*
X35874733Y-23363933D01*
X35893950Y-23368941D01*
X35898561Y-23373147D01*
X35893458Y-23383580D01*
X35877418Y-23409868D01*
X35852288Y-23449257D01*
X35819914Y-23498991D01*
X35782143Y-23556315D01*
X35740822Y-23618476D01*
X35697798Y-23682718D01*
X35654917Y-23746285D01*
X35614026Y-23806425D01*
X35576971Y-23860380D01*
X35545600Y-23905397D01*
X35521759Y-23938721D01*
X35507294Y-23957597D01*
X35505309Y-23959787D01*
X35495191Y-23955138D01*
X35472850Y-23937962D01*
X35442280Y-23911440D01*
X35426536Y-23896964D01*
X35330047Y-23821682D01*
X35223336Y-23766241D01*
X35107832Y-23731141D01*
X34984962Y-23716880D01*
X34915561Y-23718051D01*
X34794423Y-23735212D01*
X34685205Y-23771094D01*
X34587582Y-23825959D01*
X34501228Y-23900070D01*
X34425815Y-23993688D01*
X34361018Y-24107076D01*
X34323601Y-24193667D01*
X34279748Y-24329366D01*
X34247428Y-24476850D01*
X34226557Y-24632314D01*
X34217051Y-24791956D01*
X34218827Y-24951973D01*
X34231803Y-25108561D01*
X34255894Y-25257918D01*
X34291018Y-25396240D01*
X34337092Y-25519724D01*
X34353373Y-25553978D01*
X34421620Y-25668064D01*
X34502079Y-25764557D01*
X34593570Y-25842670D01*
X34694911Y-25901617D01*
X34804920Y-25940612D01*
X34922415Y-25958868D01*
X34963883Y-25960211D01*
X35085441Y-25949290D01*
X35205878Y-25916474D01*
X35323666Y-25862439D01*
X35437277Y-25787865D01*
X35528685Y-25709539D01*
X35575215Y-25665008D01*
X35756483Y-25962271D01*
X35801580Y-26036433D01*
X35842819Y-26104646D01*
X35878735Y-26164459D01*
X35907866Y-26213420D01*
X35928750Y-26249079D01*
X35939924Y-26268984D01*
X35941375Y-26272079D01*
X35933146Y-26281718D01*
X35907567Y-26298999D01*
X35867873Y-26322283D01*
X35817297Y-26349934D01*
X35759074Y-26380315D01*
X35696437Y-26411790D01*
X35632621Y-26442722D01*
X35570860Y-26471473D01*
X35514388Y-26496408D01*
X35466438Y-26515889D01*
X35442986Y-26524318D01*
X35309221Y-26562133D01*
X35171327Y-26587136D01*
X35023622Y-26600140D01*
X34896833Y-26602468D01*
X34828878Y-26601373D01*
X34763277Y-26599275D01*
X34705847Y-26596434D01*
X34662403Y-26593106D01*
X34648298Y-26591422D01*
X34509284Y-26562587D01*
X34367757Y-26517468D01*
X34230275Y-26458750D01*
X34103394Y-26389120D01*
X34025889Y-26336441D01*
X33898481Y-26228239D01*
X33780178Y-26101671D01*
X33673172Y-25959866D01*
X33579652Y-25805951D01*
X33501810Y-25643053D01*
X33457956Y-25525756D01*
X33407708Y-25342128D01*
X33374209Y-25147581D01*
X33357449Y-24946325D01*
X33357416Y-24742568D01*
X33374101Y-24540521D01*
X33407493Y-24344392D01*
X33457580Y-24158391D01*
X33461397Y-24146803D01*
X33524281Y-23984750D01*
X33601028Y-23836832D01*
X33694242Y-23698865D01*
X33806527Y-23566661D01*
X33850392Y-23521399D01*
X33986534Y-23397457D01*
X34126491Y-23294915D01*
X34272411Y-23212656D01*
X34426442Y-23149564D01*
X34590732Y-23104523D01*
X34686289Y-23087033D01*
X34845023Y-23071466D01*
X35003429Y-23074071D01*
G37*
X40861507Y-24597245D02*
X40861526Y-24831662D01*
X40861552Y-25044603D01*
X40861625Y-25237168D01*
X40861782Y-25410459D01*
X40862064Y-25565576D01*
X40862509Y-25703620D01*
X40863156Y-25825692D01*
X40864045Y-25932894D01*
X40865213Y-26026326D01*
X40866701Y-26107090D01*
X40868546Y-26176286D01*
X40870789Y-26235015D01*
X40873469Y-26284379D01*
X40876623Y-26325478D01*
X40880292Y-26359413D01*
X40884513Y-26387286D01*
X40889327Y-26410198D01*
X40894773Y-26429249D01*
X40900888Y-26445540D01*
X40907712Y-26460173D01*
X40915285Y-26474249D01*
X40923645Y-26488868D01*
X40928839Y-26497974D01*
X40963104Y-26558689D01*
X40104955Y-26558689D01*
X40104955Y-26462733D01*
X40104224Y-26419370D01*
X40102272Y-26386205D01*
X40099463Y-26368424D01*
X40098221Y-26366778D01*
X40086799Y-26373662D01*
X40064084Y-26391505D01*
X40041385Y-26410879D01*
X39986800Y-26451614D01*
X39917321Y-26492617D01*
X39840270Y-26530123D01*
X39762965Y-26560364D01*
X39732113Y-26570012D01*
X39663616Y-26584578D01*
X39580764Y-26594539D01*
X39491371Y-26599583D01*
X39403248Y-26599396D01*
X39324207Y-26593666D01*
X39286511Y-26587858D01*
X39148414Y-26549797D01*
X39021113Y-26492073D01*
X38905292Y-26415211D01*
X38801637Y-26319739D01*
X38710833Y-26206179D01*
X38644031Y-26095381D01*
X38589164Y-25978625D01*
X38547163Y-25859276D01*
X38517167Y-25733283D01*
X38498311Y-25596594D01*
X38489732Y-25445158D01*
X38489006Y-25367711D01*
X38491100Y-25310934D01*
X39320217Y-25310934D01*
X39320424Y-25404002D01*
X39323337Y-25491692D01*
X39329000Y-25568772D01*
X39337455Y-25630009D01*
X39340038Y-25642350D01*
X39371840Y-25749633D01*
X39413498Y-25836658D01*
X39465363Y-25903642D01*
X39527781Y-25950805D01*
X39601100Y-25978365D01*
X39685669Y-25986541D01*
X39781835Y-25975551D01*
X39845311Y-25959829D01*
X39894454Y-25941639D01*
X39948583Y-25915791D01*
X39989244Y-25892089D01*
X40059800Y-25845721D01*
X40059800Y-24695530D01*
X39992392Y-24651962D01*
X39913867Y-24611040D01*
X39829681Y-24584389D01*
X39744557Y-24572465D01*
X39663216Y-24575722D01*
X39590380Y-24594615D01*
X39558426Y-24610184D01*
X39500501Y-24653181D01*
X39451544Y-24709953D01*
X39410390Y-24782575D01*
X39375874Y-24873121D01*
X39346833Y-24983666D01*
X39345552Y-24989533D01*
X39335381Y-25051788D01*
X39327739Y-25129594D01*
X39322670Y-25217720D01*
X39320217Y-25310934D01*
X38491100Y-25310934D01*
X38496857Y-25154895D01*
X38518802Y-24959059D01*
X38554786Y-24780332D01*
X38604759Y-24618845D01*
X38668668Y-24474726D01*
X38746462Y-24348106D01*
X38838089Y-24239115D01*
X38943497Y-24147883D01*
X38988662Y-24116932D01*
X39089611Y-24060785D01*
X39192901Y-24021174D01*
X39302989Y-23997014D01*
X39424330Y-23987219D01*
X39516836Y-23988265D01*
X39646490Y-23999231D01*
X39759084Y-24021046D01*
X39857875Y-24054714D01*
X39946121Y-24101236D01*
X39994986Y-24135448D01*
X40024353Y-24157362D01*
X40046043Y-24172333D01*
X40054253Y-24176733D01*
X40055868Y-24165904D01*
X40057159Y-24135251D01*
X40058138Y-24087526D01*
X40058817Y-24025479D01*
X40059210Y-23951862D01*
X40059330Y-23869427D01*
X40059188Y-23780925D01*
X40058797Y-23689107D01*
X40058171Y-23596724D01*
X40057320Y-23506528D01*
X40056260Y-23421271D01*
X40055001Y-23343703D01*
X40053556Y-23276576D01*
X40051938Y-23222641D01*
X40050161Y-23184650D01*
X40049669Y-23177667D01*
X40042092Y-23107251D01*
X40030531Y-23052102D01*
X40012792Y-23004981D01*
X39986682Y-22958647D01*
X39980415Y-22949067D01*
X39955983Y-22912378D01*
X40861311Y-22912378D01*
X40861507Y-24597245D01*
G36*
X40861507Y-24597245D02*
G01*
X40861526Y-24831662D01*
X40861552Y-25044603D01*
X40861625Y-25237168D01*
X40861782Y-25410459D01*
X40862064Y-25565576D01*
X40862509Y-25703620D01*
X40863156Y-25825692D01*
X40864045Y-25932894D01*
X40865213Y-26026326D01*
X40866701Y-26107090D01*
X40868546Y-26176286D01*
X40870789Y-26235015D01*
X40873469Y-26284379D01*
X40876623Y-26325478D01*
X40880292Y-26359413D01*
X40884513Y-26387286D01*
X40889327Y-26410198D01*
X40894773Y-26429249D01*
X40900888Y-26445540D01*
X40907712Y-26460173D01*
X40915285Y-26474249D01*
X40923645Y-26488868D01*
X40928839Y-26497974D01*
X40963104Y-26558689D01*
X40104955Y-26558689D01*
X40104955Y-26462733D01*
X40104224Y-26419370D01*
X40102272Y-26386205D01*
X40099463Y-26368424D01*
X40098221Y-26366778D01*
X40086799Y-26373662D01*
X40064084Y-26391505D01*
X40041385Y-26410879D01*
X39986800Y-26451614D01*
X39917321Y-26492617D01*
X39840270Y-26530123D01*
X39762965Y-26560364D01*
X39732113Y-26570012D01*
X39663616Y-26584578D01*
X39580764Y-26594539D01*
X39491371Y-26599583D01*
X39403248Y-26599396D01*
X39324207Y-26593666D01*
X39286511Y-26587858D01*
X39148414Y-26549797D01*
X39021113Y-26492073D01*
X38905292Y-26415211D01*
X38801637Y-26319739D01*
X38710833Y-26206179D01*
X38644031Y-26095381D01*
X38589164Y-25978625D01*
X38547163Y-25859276D01*
X38517167Y-25733283D01*
X38498311Y-25596594D01*
X38489732Y-25445158D01*
X38489006Y-25367711D01*
X38491100Y-25310934D01*
X39320217Y-25310934D01*
X39320424Y-25404002D01*
X39323337Y-25491692D01*
X39329000Y-25568772D01*
X39337455Y-25630009D01*
X39340038Y-25642350D01*
X39371840Y-25749633D01*
X39413498Y-25836658D01*
X39465363Y-25903642D01*
X39527781Y-25950805D01*
X39601100Y-25978365D01*
X39685669Y-25986541D01*
X39781835Y-25975551D01*
X39845311Y-25959829D01*
X39894454Y-25941639D01*
X39948583Y-25915791D01*
X39989244Y-25892089D01*
X40059800Y-25845721D01*
X40059800Y-24695530D01*
X39992392Y-24651962D01*
X39913867Y-24611040D01*
X39829681Y-24584389D01*
X39744557Y-24572465D01*
X39663216Y-24575722D01*
X39590380Y-24594615D01*
X39558426Y-24610184D01*
X39500501Y-24653181D01*
X39451544Y-24709953D01*
X39410390Y-24782575D01*
X39375874Y-24873121D01*
X39346833Y-24983666D01*
X39345552Y-24989533D01*
X39335381Y-25051788D01*
X39327739Y-25129594D01*
X39322670Y-25217720D01*
X39320217Y-25310934D01*
X38491100Y-25310934D01*
X38496857Y-25154895D01*
X38518802Y-24959059D01*
X38554786Y-24780332D01*
X38604759Y-24618845D01*
X38668668Y-24474726D01*
X38746462Y-24348106D01*
X38838089Y-24239115D01*
X38943497Y-24147883D01*
X38988662Y-24116932D01*
X39089611Y-24060785D01*
X39192901Y-24021174D01*
X39302989Y-23997014D01*
X39424330Y-23987219D01*
X39516836Y-23988265D01*
X39646490Y-23999231D01*
X39759084Y-24021046D01*
X39857875Y-24054714D01*
X39946121Y-24101236D01*
X39994986Y-24135448D01*
X40024353Y-24157362D01*
X40046043Y-24172333D01*
X40054253Y-24176733D01*
X40055868Y-24165904D01*
X40057159Y-24135251D01*
X40058138Y-24087526D01*
X40058817Y-24025479D01*
X40059210Y-23951862D01*
X40059330Y-23869427D01*
X40059188Y-23780925D01*
X40058797Y-23689107D01*
X40058171Y-23596724D01*
X40057320Y-23506528D01*
X40056260Y-23421271D01*
X40055001Y-23343703D01*
X40053556Y-23276576D01*
X40051938Y-23222641D01*
X40050161Y-23184650D01*
X40049669Y-23177667D01*
X40042092Y-23107251D01*
X40030531Y-23052102D01*
X40012792Y-23004981D01*
X39986682Y-22958647D01*
X39980415Y-22949067D01*
X39955983Y-22912378D01*
X40861311Y-22912378D01*
X40861507Y-24597245D01*
G37*
X37348574Y-23991552D02*
X37500492Y-24011567D01*
X37635756Y-24045202D01*
X37755239Y-24092725D01*
X37859815Y-24154405D01*
X37937424Y-24217965D01*
X38006265Y-24292099D01*
X38060006Y-24371871D01*
X38102910Y-24464091D01*
X38118384Y-24507161D01*
X38131244Y-24546142D01*
X38142446Y-24582289D01*
X38152120Y-24617434D01*
X38160396Y-24653410D01*
X38167403Y-24692050D01*
X38173272Y-24735185D01*
X38178131Y-24784649D01*
X38182110Y-24842273D01*
X38185340Y-24909891D01*
X38187949Y-24989334D01*
X38190067Y-25082436D01*
X38191824Y-25191027D01*
X38193349Y-25316942D01*
X38194772Y-25462012D01*
X38196025Y-25604778D01*
X38197351Y-25760968D01*
X38198556Y-25896239D01*
X38199766Y-26012246D01*
X38201106Y-26110645D01*
X38202700Y-26193093D01*
X38204675Y-26261246D01*
X38207156Y-26316760D01*
X38210269Y-26361292D01*
X38214138Y-26396498D01*
X38218889Y-26424034D01*
X38224648Y-26445556D01*
X38231539Y-26462722D01*
X38239689Y-26477186D01*
X38249223Y-26490606D01*
X38260266Y-26504638D01*
X38264566Y-26510071D01*
X38280386Y-26532910D01*
X38287422Y-26548463D01*
X38287444Y-26548922D01*
X38276567Y-26551121D01*
X38245582Y-26553147D01*
X38196957Y-26554942D01*
X38133163Y-26556451D01*
X38056669Y-26557616D01*
X37969944Y-26558380D01*
X37875457Y-26558686D01*
X37864550Y-26558689D01*
X37441657Y-26558689D01*
X37438395Y-26462622D01*
X37435133Y-26366556D01*
X37373044Y-26417543D01*
X37275714Y-26485057D01*
X37165813Y-26539749D01*
X37079349Y-26569978D01*
X37010278Y-26584666D01*
X36926925Y-26594659D01*
X36837159Y-26599646D01*
X36748845Y-26599313D01*
X36669851Y-26593351D01*
X36633622Y-26587638D01*
X36493603Y-26549776D01*
X36367178Y-26494932D01*
X36255260Y-26423924D01*
X36158762Y-26337568D01*
X36078600Y-26236679D01*
X36015687Y-26122076D01*
X35971312Y-25995984D01*
X35958978Y-25939401D01*
X35951368Y-25877202D01*
X35947739Y-25802363D01*
X35947245Y-25768467D01*
X35947310Y-25765282D01*
X36707248Y-25765282D01*
X36716541Y-25840333D01*
X36744728Y-25904160D01*
X36793197Y-25959798D01*
X36798254Y-25964211D01*
X36846548Y-25999037D01*
X36898257Y-26021620D01*
X36958989Y-26033540D01*
X37034352Y-26036383D01*
X37052459Y-26035978D01*
X37106278Y-26033325D01*
X37146308Y-26027909D01*
X37181324Y-26017745D01*
X37220103Y-26000850D01*
X37230745Y-25995672D01*
X37291396Y-25959844D01*
X37338215Y-25917212D01*
X37350952Y-25901973D01*
X37395622Y-25845462D01*
X37395622Y-25649586D01*
X37395086Y-25570939D01*
X37393396Y-25512988D01*
X37390428Y-25473875D01*
X37386057Y-25451741D01*
X37381972Y-25445274D01*
X37366047Y-25442111D01*
X37332264Y-25439488D01*
X37285340Y-25437655D01*
X37229993Y-25436857D01*
X37221106Y-25436842D01*
X37100330Y-25442096D01*
X36997660Y-25458263D01*
X36911106Y-25485961D01*
X36838681Y-25525808D01*
X36783751Y-25572758D01*
X36739204Y-25630645D01*
X36714480Y-25693693D01*
X36707248Y-25765282D01*
X35947310Y-25765282D01*
X35949178Y-25674712D01*
X35957522Y-25595812D01*
X35973768Y-25524590D01*
X35999405Y-25453864D01*
X36023401Y-25401493D01*
X36082020Y-25306196D01*
X36160117Y-25218170D01*
X36255315Y-25139017D01*
X36365238Y-25070340D01*
X36487510Y-25013741D01*
X36619755Y-24970821D01*
X36684422Y-24955882D01*
X36820604Y-24933777D01*
X36969049Y-24919194D01*
X37120505Y-24912813D01*
X37247064Y-24914445D01*
X37408950Y-24921224D01*
X37401530Y-24862245D01*
X37382238Y-24763092D01*
X37351104Y-24682372D01*
X37307269Y-24619466D01*
X37249871Y-24573756D01*
X37178048Y-24544622D01*
X37090941Y-24531447D01*
X36987686Y-24533611D01*
X36949711Y-24537612D01*
X36808520Y-24562780D01*
X36671707Y-24603814D01*
X36577178Y-24641815D01*
X36532018Y-24661190D01*
X36493585Y-24676760D01*
X36467234Y-24686405D01*
X36459546Y-24688452D01*
X36449802Y-24679374D01*
X36433083Y-24650405D01*
X36409232Y-24601217D01*
X36378093Y-24531484D01*
X36339507Y-24440879D01*
X36332910Y-24425089D01*
X36302853Y-24352772D01*
X36275874Y-24287425D01*
X36253136Y-24231906D01*
X36235806Y-24189072D01*
X36225048Y-24161781D01*
X36221941Y-24152942D01*
X36231940Y-24148187D01*
X36258217Y-24142910D01*
X36286489Y-24139231D01*
X36316646Y-24134474D01*
X36364433Y-24125028D01*
X36425612Y-24111820D01*
X36495946Y-24095776D01*
X36571194Y-24077820D01*
X36599755Y-24070797D01*
X36704816Y-24045209D01*
X36792480Y-24025147D01*
X36867068Y-24009969D01*
X36932903Y-23999035D01*
X36994307Y-23991704D01*
X37055602Y-23987335D01*
X37121110Y-23985287D01*
X37179128Y-23984889D01*
X37348574Y-23991552D01*
G36*
X37348574Y-23991552D02*
G01*
X37500492Y-24011567D01*
X37635756Y-24045202D01*
X37755239Y-24092725D01*
X37859815Y-24154405D01*
X37937424Y-24217965D01*
X38006265Y-24292099D01*
X38060006Y-24371871D01*
X38102910Y-24464091D01*
X38118384Y-24507161D01*
X38131244Y-24546142D01*
X38142446Y-24582289D01*
X38152120Y-24617434D01*
X38160396Y-24653410D01*
X38167403Y-24692050D01*
X38173272Y-24735185D01*
X38178131Y-24784649D01*
X38182110Y-24842273D01*
X38185340Y-24909891D01*
X38187949Y-24989334D01*
X38190067Y-25082436D01*
X38191824Y-25191027D01*
X38193349Y-25316942D01*
X38194772Y-25462012D01*
X38196025Y-25604778D01*
X38197351Y-25760968D01*
X38198556Y-25896239D01*
X38199766Y-26012246D01*
X38201106Y-26110645D01*
X38202700Y-26193093D01*
X38204675Y-26261246D01*
X38207156Y-26316760D01*
X38210269Y-26361292D01*
X38214138Y-26396498D01*
X38218889Y-26424034D01*
X38224648Y-26445556D01*
X38231539Y-26462722D01*
X38239689Y-26477186D01*
X38249223Y-26490606D01*
X38260266Y-26504638D01*
X38264566Y-26510071D01*
X38280386Y-26532910D01*
X38287422Y-26548463D01*
X38287444Y-26548922D01*
X38276567Y-26551121D01*
X38245582Y-26553147D01*
X38196957Y-26554942D01*
X38133163Y-26556451D01*
X38056669Y-26557616D01*
X37969944Y-26558380D01*
X37875457Y-26558686D01*
X37864550Y-26558689D01*
X37441657Y-26558689D01*
X37438395Y-26462622D01*
X37435133Y-26366556D01*
X37373044Y-26417543D01*
X37275714Y-26485057D01*
X37165813Y-26539749D01*
X37079349Y-26569978D01*
X37010278Y-26584666D01*
X36926925Y-26594659D01*
X36837159Y-26599646D01*
X36748845Y-26599313D01*
X36669851Y-26593351D01*
X36633622Y-26587638D01*
X36493603Y-26549776D01*
X36367178Y-26494932D01*
X36255260Y-26423924D01*
X36158762Y-26337568D01*
X36078600Y-26236679D01*
X36015687Y-26122076D01*
X35971312Y-25995984D01*
X35958978Y-25939401D01*
X35951368Y-25877202D01*
X35947739Y-25802363D01*
X35947245Y-25768467D01*
X35947310Y-25765282D01*
X36707248Y-25765282D01*
X36716541Y-25840333D01*
X36744728Y-25904160D01*
X36793197Y-25959798D01*
X36798254Y-25964211D01*
X36846548Y-25999037D01*
X36898257Y-26021620D01*
X36958989Y-26033540D01*
X37034352Y-26036383D01*
X37052459Y-26035978D01*
X37106278Y-26033325D01*
X37146308Y-26027909D01*
X37181324Y-26017745D01*
X37220103Y-26000850D01*
X37230745Y-25995672D01*
X37291396Y-25959844D01*
X37338215Y-25917212D01*
X37350952Y-25901973D01*
X37395622Y-25845462D01*
X37395622Y-25649586D01*
X37395086Y-25570939D01*
X37393396Y-25512988D01*
X37390428Y-25473875D01*
X37386057Y-25451741D01*
X37381972Y-25445274D01*
X37366047Y-25442111D01*
X37332264Y-25439488D01*
X37285340Y-25437655D01*
X37229993Y-25436857D01*
X37221106Y-25436842D01*
X37100330Y-25442096D01*
X36997660Y-25458263D01*
X36911106Y-25485961D01*
X36838681Y-25525808D01*
X36783751Y-25572758D01*
X36739204Y-25630645D01*
X36714480Y-25693693D01*
X36707248Y-25765282D01*
X35947310Y-25765282D01*
X35949178Y-25674712D01*
X35957522Y-25595812D01*
X35973768Y-25524590D01*
X35999405Y-25453864D01*
X36023401Y-25401493D01*
X36082020Y-25306196D01*
X36160117Y-25218170D01*
X36255315Y-25139017D01*
X36365238Y-25070340D01*
X36487510Y-25013741D01*
X36619755Y-24970821D01*
X36684422Y-24955882D01*
X36820604Y-24933777D01*
X36969049Y-24919194D01*
X37120505Y-24912813D01*
X37247064Y-24914445D01*
X37408950Y-24921224D01*
X37401530Y-24862245D01*
X37382238Y-24763092D01*
X37351104Y-24682372D01*
X37307269Y-24619466D01*
X37249871Y-24573756D01*
X37178048Y-24544622D01*
X37090941Y-24531447D01*
X36987686Y-24533611D01*
X36949711Y-24537612D01*
X36808520Y-24562780D01*
X36671707Y-24603814D01*
X36577178Y-24641815D01*
X36532018Y-24661190D01*
X36493585Y-24676760D01*
X36467234Y-24686405D01*
X36459546Y-24688452D01*
X36449802Y-24679374D01*
X36433083Y-24650405D01*
X36409232Y-24601217D01*
X36378093Y-24531484D01*
X36339507Y-24440879D01*
X36332910Y-24425089D01*
X36302853Y-24352772D01*
X36275874Y-24287425D01*
X36253136Y-24231906D01*
X36235806Y-24189072D01*
X36225048Y-24161781D01*
X36221941Y-24152942D01*
X36231940Y-24148187D01*
X36258217Y-24142910D01*
X36286489Y-24139231D01*
X36316646Y-24134474D01*
X36364433Y-24125028D01*
X36425612Y-24111820D01*
X36495946Y-24095776D01*
X36571194Y-24077820D01*
X36599755Y-24070797D01*
X36704816Y-24045209D01*
X36792480Y-24025147D01*
X36867068Y-24009969D01*
X36932903Y-23999035D01*
X36994307Y-23991704D01*
X37055602Y-23987335D01*
X37121110Y-23985287D01*
X37179128Y-23984889D01*
X37348574Y-23991552D01*
G37*
X31728600Y-22614054D02*
X31739465Y-22727993D01*
X31771082Y-22835616D01*
X31821985Y-22934615D01*
X31890707Y-23022684D01*
X31975781Y-23097516D01*
X32072768Y-23155384D01*
X32179036Y-23195005D01*
X32286050Y-23213573D01*
X32391700Y-23212434D01*
X32493875Y-23192930D01*
X32590466Y-23156406D01*
X32679362Y-23104205D01*
X32758454Y-23037673D01*
X32825631Y-22958152D01*
X32878783Y-22866987D01*
X32915801Y-22765523D01*
X32934573Y-22655102D01*
X32936511Y-22605206D01*
X32936511Y-22517267D01*
X32988440Y-22517267D01*
X33024747Y-22520111D01*
X33051645Y-22531911D01*
X33078751Y-22555649D01*
X33117133Y-22594031D01*
X33117133Y-24785602D01*
X33117124Y-25047739D01*
X33117092Y-25288241D01*
X33117028Y-25508048D01*
X33116924Y-25708101D01*
X33116773Y-25889344D01*
X33116566Y-26052716D01*
X33116294Y-26199160D01*
X33115950Y-26329617D01*
X33115526Y-26445029D01*
X33115013Y-26546338D01*
X33114403Y-26634484D01*
X33113688Y-26710410D01*
X33112860Y-26775057D01*
X33111911Y-26829367D01*
X33110833Y-26874280D01*
X33109617Y-26910740D01*
X33108255Y-26939687D01*
X33106739Y-26962063D01*
X33105062Y-26978809D01*
X33103214Y-26990868D01*
X33101187Y-26999180D01*
X33098975Y-27004687D01*
X33097892Y-27006537D01*
X33093729Y-27013549D01*
X33090195Y-27019996D01*
X33086365Y-27025900D01*
X33081318Y-27031286D01*
X33074129Y-27036178D01*
X33063877Y-27040598D01*
X33049636Y-27044572D01*
X33030486Y-27048121D01*
X33005501Y-27051270D01*
X32973760Y-27054042D01*
X32934338Y-27056461D01*
X32886314Y-27058551D01*
X32828763Y-27060335D01*
X32760763Y-27061837D01*
X32681390Y-27063080D01*
X32589721Y-27064089D01*
X32484834Y-27064885D01*
X32365804Y-27065494D01*
X32231710Y-27065939D01*
X32081627Y-27066243D01*
X31914633Y-27066430D01*
X31729804Y-27066524D01*
X31526217Y-27066548D01*
X31302950Y-27066525D01*
X31059078Y-27066480D01*
X30793679Y-27066437D01*
X30755296Y-27066432D01*
X30488318Y-27066389D01*
X30242998Y-27066318D01*
X30018417Y-27066213D01*
X29813655Y-27066066D01*
X29627794Y-27065869D01*
X29459912Y-27065616D01*
X29309092Y-27065300D01*
X29174413Y-27064913D01*
X29054956Y-27064447D01*
X28949801Y-27063897D01*
X28858029Y-27063253D01*
X28778721Y-27062511D01*
X28710957Y-27061661D01*
X28653818Y-27060697D01*
X28606383Y-27059611D01*
X28567734Y-27058397D01*
X28536951Y-27057047D01*
X28513115Y-27055555D01*
X28495306Y-27053911D01*
X28482605Y-27052111D01*
X28474092Y-27050145D01*
X28469734Y-27048477D01*
X28461272Y-27044906D01*
X28453503Y-27042270D01*
X28446398Y-27039634D01*
X28439927Y-27036062D01*
X28434061Y-27030621D01*
X28428771Y-27022375D01*
X28424026Y-27010390D01*
X28419798Y-26993731D01*
X28416057Y-26971463D01*
X28412773Y-26942652D01*
X28409917Y-26906363D01*
X28407460Y-26861661D01*
X28405371Y-26807611D01*
X28403622Y-26743279D01*
X28402183Y-26667730D01*
X28401024Y-26580030D01*
X28400117Y-26479243D01*
X28399431Y-26364434D01*
X28398937Y-26234670D01*
X28398605Y-26089015D01*
X28398407Y-25926535D01*
X28398313Y-25746295D01*
X28398292Y-25547360D01*
X28398315Y-25328796D01*
X28398354Y-25089668D01*
X28398378Y-24829040D01*
X28398378Y-24786889D01*
X28398364Y-24523992D01*
X28398339Y-24282732D01*
X28398329Y-24062165D01*
X28398358Y-23861352D01*
X28398452Y-23679349D01*
X28398638Y-23515216D01*
X28398941Y-23368011D01*
X28399386Y-23236792D01*
X28399966Y-23126867D01*
X28702803Y-23126867D01*
X28742593Y-23184711D01*
X28753764Y-23200479D01*
X28763834Y-23214441D01*
X28772862Y-23227784D01*
X28780903Y-23241693D01*
X28788014Y-23257356D01*
X28794253Y-23275958D01*
X28799675Y-23298686D01*
X28804338Y-23326727D01*
X28808299Y-23361267D01*
X28811615Y-23403492D01*
X28814341Y-23454589D01*
X28816536Y-23515744D01*
X28818255Y-23588144D01*
X28819556Y-23672975D01*
X28820495Y-23771422D01*
X28821130Y-23884674D01*
X28821516Y-24013916D01*
X28821712Y-24160334D01*
X28821773Y-24325116D01*
X28821757Y-24509447D01*
X28821720Y-24714513D01*
X28821711Y-24837133D01*
X28821735Y-25054082D01*
X28821769Y-25249642D01*
X28821757Y-25424999D01*
X28821642Y-25581341D01*
X28821370Y-25719857D01*
X28820882Y-25841734D01*
X28820124Y-25948160D01*
X28819038Y-26040322D01*
X28817569Y-26119409D01*
X28815660Y-26186608D01*
X28813256Y-26243107D01*
X28810299Y-26290093D01*
X28806734Y-26328755D01*
X28802505Y-26360280D01*
X28797554Y-26385855D01*
X28791827Y-26406670D01*
X28785267Y-26423911D01*
X28777817Y-26438765D01*
X28769421Y-26452422D01*
X28760024Y-26466069D01*
X28749568Y-26480893D01*
X28743477Y-26489783D01*
X28704704Y-26547400D01*
X29236268Y-26547400D01*
X29359517Y-26547365D01*
X29462013Y-26547215D01*
X29545580Y-26546878D01*
X29612044Y-26546286D01*
X29663229Y-26545367D01*
X29700959Y-26544051D01*
X29727060Y-26542269D01*
X29743356Y-26539951D01*
X29751672Y-26537026D01*
X29753832Y-26533424D01*
X29751661Y-26529075D01*
X29750465Y-26527645D01*
X29725315Y-26490573D01*
X29699417Y-26437772D01*
X29675808Y-26375770D01*
X29667539Y-26349357D01*
X29662922Y-26331416D01*
X29659021Y-26310355D01*
X29655752Y-26284089D01*
X29653034Y-26250532D01*
X29650785Y-26207599D01*
X29648923Y-26153204D01*
X29647364Y-26085262D01*
X29646028Y-26001688D01*
X29644831Y-25900395D01*
X29643692Y-25779300D01*
X29643315Y-25734600D01*
X29642298Y-25609449D01*
X29641540Y-25505082D01*
X29641097Y-25419707D01*
X29641030Y-25351533D01*
X29641395Y-25298765D01*
X29642252Y-25259614D01*
X29643659Y-25232285D01*
X29645675Y-25214986D01*
X29648357Y-25205926D01*
X29651764Y-25203312D01*
X29655956Y-25205351D01*
X29660429Y-25209667D01*
X29670784Y-25222602D01*
X29692842Y-25251676D01*
X29725043Y-25294759D01*
X29765826Y-25349718D01*
X29813630Y-25414423D01*
X29866895Y-25486742D01*
X29924060Y-25564544D01*
X29983563Y-25645698D01*
X30043845Y-25728072D01*
X30103345Y-25809536D01*
X30160502Y-25887957D01*
X30213755Y-25961204D01*
X30261543Y-26027147D01*
X30302307Y-26083654D01*
X30334484Y-26128593D01*
X30356515Y-26159834D01*
X30361083Y-26166466D01*
X30384004Y-26203369D01*
X30410812Y-26251359D01*
X30436211Y-26300897D01*
X30439432Y-26307577D01*
X30461110Y-26355772D01*
X30473696Y-26393334D01*
X30479426Y-26429160D01*
X30480544Y-26471200D01*
X30479910Y-26547400D01*
X31634349Y-26547400D01*
X31629347Y-26542257D01*
X31841489Y-26542257D01*
X31852396Y-26543334D01*
X31883589Y-26544335D01*
X31932777Y-26545235D01*
X31997667Y-26546010D01*
X32075970Y-26546637D01*
X32165393Y-26547091D01*
X32263644Y-26547349D01*
X32332555Y-26547400D01*
X32437548Y-26547180D01*
X32534390Y-26546548D01*
X32620893Y-26545549D01*
X32694868Y-26544227D01*
X32754126Y-26542626D01*
X32796480Y-26540791D01*
X32819740Y-26538765D01*
X32823622Y-26537493D01*
X32815924Y-26522591D01*
X32807926Y-26514560D01*
X32794754Y-26497434D01*
X32777515Y-26467183D01*
X32765593Y-26442622D01*
X32738955Y-26383711D01*
X32735880Y-25206845D01*
X32732805Y-24029978D01*
X32287147Y-24029978D01*
X32189330Y-24030142D01*
X32098936Y-24030611D01*
X32018370Y-24031347D01*
X31950038Y-24032316D01*
X31896344Y-24033480D01*
X31859695Y-24034803D01*
X31842496Y-24036249D01*
X31841489Y-24036702D01*
X31847398Y-24049659D01*
X31861728Y-24071908D01*
X31862775Y-24073391D01*
X31881562Y-24103544D01*
X31901209Y-24140375D01*
X31905108Y-24148511D01*
X31908644Y-24156940D01*
X31911770Y-24167059D01*
X31914514Y-24180260D01*
X31916908Y-24197938D01*
X31918981Y-24221484D01*
X31920765Y-24252293D01*
X31922288Y-24291757D01*
X31923581Y-24341269D01*
X31924674Y-24402223D01*
X31925597Y-24476011D01*
X31926381Y-24564028D01*
X31927055Y-24667665D01*
X31927650Y-24788316D01*
X31928195Y-24927374D01*
X31928721Y-25086232D01*
X31929255Y-25265089D01*
X31929794Y-25450207D01*
X31930228Y-25614145D01*
X31930491Y-25758303D01*
X31930516Y-25884079D01*
X31930235Y-25992871D01*
X31929581Y-26086077D01*
X31928486Y-26165097D01*
X31926882Y-26231328D01*
X31924703Y-26286170D01*
X31921881Y-26331021D01*
X31918349Y-26367278D01*
X31914039Y-26396341D01*
X31908883Y-26419609D01*
X31902815Y-26438479D01*
X31895767Y-26454351D01*
X31887671Y-26468622D01*
X31878460Y-26482691D01*
X31869960Y-26495158D01*
X31852824Y-26521452D01*
X31842678Y-26539037D01*
X31841489Y-26542257D01*
X31629347Y-26542257D01*
X31543185Y-26453669D01*
X31496388Y-26403775D01*
X31446101Y-26347295D01*
X31400056Y-26293026D01*
X31379631Y-26267673D01*
X31349193Y-26228128D01*
X31309138Y-26174916D01*
X31260639Y-26109667D01*
X31204865Y-26034011D01*
X31142989Y-25949577D01*
X31076181Y-25857994D01*
X31005613Y-25760892D01*
X30932455Y-25659901D01*
X30857879Y-25556650D01*
X30783056Y-25452768D01*
X30709157Y-25349885D01*
X30637354Y-25249631D01*
X30568816Y-25153636D01*
X30504716Y-25063527D01*
X30446225Y-24980936D01*
X30394514Y-24907492D01*
X30350753Y-24844824D01*
X30316115Y-24794561D01*
X30291770Y-24758334D01*
X30278889Y-24737771D01*
X30277131Y-24733668D01*
X30285090Y-24722342D01*
X30305885Y-24695162D01*
X30338153Y-24653829D01*
X30380530Y-24600044D01*
X30431653Y-24535506D01*
X30490159Y-24461918D01*
X30554686Y-24380978D01*
X30623869Y-24294388D01*
X30696347Y-24203848D01*
X30770754Y-24111060D01*
X30830483Y-24036702D01*
X30845730Y-24017722D01*
X30919910Y-23925537D01*
X30991931Y-23836204D01*
X31060431Y-23751424D01*
X31124045Y-23672898D01*
X31181412Y-23602326D01*
X31231167Y-23541409D01*
X31271948Y-23491847D01*
X31289112Y-23471178D01*
X31375404Y-23370516D01*
X31452003Y-23287259D01*
X31520817Y-23219438D01*
X31583752Y-23165089D01*
X31593133Y-23157722D01*
X31632644Y-23127117D01*
X30500884Y-23126867D01*
X30506173Y-23174844D01*
X30502870Y-23232188D01*
X30481339Y-23300463D01*
X30441365Y-23380212D01*
X30396057Y-23452495D01*
X30379839Y-23475140D01*
X30351786Y-23512696D01*
X30313570Y-23563021D01*
X30266863Y-23623973D01*
X30213339Y-23693411D01*
X30154669Y-23769194D01*
X30092525Y-23849180D01*
X30028579Y-23931228D01*
X29964505Y-24013196D01*
X29901973Y-24092943D01*
X29842657Y-24168327D01*
X29788229Y-24237207D01*
X29740361Y-24297442D01*
X29700725Y-24346889D01*
X29670994Y-24383408D01*
X29652839Y-24404858D01*
X29649780Y-24408156D01*
X29646921Y-24400149D01*
X29644707Y-24369855D01*
X29643143Y-24317556D01*
X29642233Y-24243531D01*
X29641980Y-24148063D01*
X29642387Y-24031434D01*
X29643296Y-23911445D01*
X29644618Y-23779333D01*
X29646143Y-23667594D01*
X29648119Y-23574025D01*
X29650794Y-23496419D01*
X29654418Y-23432574D01*
X29659239Y-23380283D01*
X29665506Y-23337344D01*
X29673468Y-23301551D01*
X29683373Y-23270700D01*
X29695469Y-23242586D01*
X29710007Y-23215005D01*
X29724689Y-23189966D01*
X29762686Y-23126867D01*
X28702803Y-23126867D01*
X28399966Y-23126867D01*
X28399999Y-23120617D01*
X28400805Y-23018544D01*
X28401830Y-22929633D01*
X28403100Y-22852941D01*
X28404640Y-22787527D01*
X28406476Y-22732449D01*
X28408633Y-22686765D01*
X28411137Y-22649534D01*
X28414013Y-22619813D01*
X28417287Y-22596662D01*
X28420985Y-22579139D01*
X28425131Y-22566301D01*
X28429753Y-22557208D01*
X28434874Y-22550918D01*
X28440522Y-22546488D01*
X28446721Y-22542978D01*
X28453496Y-22539445D01*
X28459492Y-22535876D01*
X28464725Y-22533300D01*
X28472901Y-22530972D01*
X28485114Y-22528878D01*
X28502459Y-22527007D01*
X28526031Y-22525347D01*
X28556923Y-22523884D01*
X28596232Y-22522608D01*
X28645050Y-22521504D01*
X28704473Y-22520561D01*
X28775596Y-22519767D01*
X28859512Y-22519109D01*
X28957317Y-22518575D01*
X29070106Y-22518153D01*
X29198971Y-22517829D01*
X29345009Y-22517592D01*
X29509314Y-22517430D01*
X29692980Y-22517330D01*
X29897103Y-22517280D01*
X30108247Y-22517267D01*
X31728600Y-22517267D01*
X31728600Y-22614054D01*
G36*
X31728600Y-22614054D02*
G01*
X31739465Y-22727993D01*
X31771082Y-22835616D01*
X31821985Y-22934615D01*
X31890707Y-23022684D01*
X31975781Y-23097516D01*
X32072768Y-23155384D01*
X32179036Y-23195005D01*
X32286050Y-23213573D01*
X32391700Y-23212434D01*
X32493875Y-23192930D01*
X32590466Y-23156406D01*
X32679362Y-23104205D01*
X32758454Y-23037673D01*
X32825631Y-22958152D01*
X32878783Y-22866987D01*
X32915801Y-22765523D01*
X32934573Y-22655102D01*
X32936511Y-22605206D01*
X32936511Y-22517267D01*
X32988440Y-22517267D01*
X33024747Y-22520111D01*
X33051645Y-22531911D01*
X33078751Y-22555649D01*
X33117133Y-22594031D01*
X33117133Y-24785602D01*
X33117124Y-25047739D01*
X33117092Y-25288241D01*
X33117028Y-25508048D01*
X33116924Y-25708101D01*
X33116773Y-25889344D01*
X33116566Y-26052716D01*
X33116294Y-26199160D01*
X33115950Y-26329617D01*
X33115526Y-26445029D01*
X33115013Y-26546338D01*
X33114403Y-26634484D01*
X33113688Y-26710410D01*
X33112860Y-26775057D01*
X33111911Y-26829367D01*
X33110833Y-26874280D01*
X33109617Y-26910740D01*
X33108255Y-26939687D01*
X33106739Y-26962063D01*
X33105062Y-26978809D01*
X33103214Y-26990868D01*
X33101187Y-26999180D01*
X33098975Y-27004687D01*
X33097892Y-27006537D01*
X33093729Y-27013549D01*
X33090195Y-27019996D01*
X33086365Y-27025900D01*
X33081318Y-27031286D01*
X33074129Y-27036178D01*
X33063877Y-27040598D01*
X33049636Y-27044572D01*
X33030486Y-27048121D01*
X33005501Y-27051270D01*
X32973760Y-27054042D01*
X32934338Y-27056461D01*
X32886314Y-27058551D01*
X32828763Y-27060335D01*
X32760763Y-27061837D01*
X32681390Y-27063080D01*
X32589721Y-27064089D01*
X32484834Y-27064885D01*
X32365804Y-27065494D01*
X32231710Y-27065939D01*
X32081627Y-27066243D01*
X31914633Y-27066430D01*
X31729804Y-27066524D01*
X31526217Y-27066548D01*
X31302950Y-27066525D01*
X31059078Y-27066480D01*
X30793679Y-27066437D01*
X30755296Y-27066432D01*
X30488318Y-27066389D01*
X30242998Y-27066318D01*
X30018417Y-27066213D01*
X29813655Y-27066066D01*
X29627794Y-27065869D01*
X29459912Y-27065616D01*
X29309092Y-27065300D01*
X29174413Y-27064913D01*
X29054956Y-27064447D01*
X28949801Y-27063897D01*
X28858029Y-27063253D01*
X28778721Y-27062511D01*
X28710957Y-27061661D01*
X28653818Y-27060697D01*
X28606383Y-27059611D01*
X28567734Y-27058397D01*
X28536951Y-27057047D01*
X28513115Y-27055555D01*
X28495306Y-27053911D01*
X28482605Y-27052111D01*
X28474092Y-27050145D01*
X28469734Y-27048477D01*
X28461272Y-27044906D01*
X28453503Y-27042270D01*
X28446398Y-27039634D01*
X28439927Y-27036062D01*
X28434061Y-27030621D01*
X28428771Y-27022375D01*
X28424026Y-27010390D01*
X28419798Y-26993731D01*
X28416057Y-26971463D01*
X28412773Y-26942652D01*
X28409917Y-26906363D01*
X28407460Y-26861661D01*
X28405371Y-26807611D01*
X28403622Y-26743279D01*
X28402183Y-26667730D01*
X28401024Y-26580030D01*
X28400117Y-26479243D01*
X28399431Y-26364434D01*
X28398937Y-26234670D01*
X28398605Y-26089015D01*
X28398407Y-25926535D01*
X28398313Y-25746295D01*
X28398292Y-25547360D01*
X28398315Y-25328796D01*
X28398354Y-25089668D01*
X28398378Y-24829040D01*
X28398378Y-24786889D01*
X28398364Y-24523992D01*
X28398339Y-24282732D01*
X28398329Y-24062165D01*
X28398358Y-23861352D01*
X28398452Y-23679349D01*
X28398638Y-23515216D01*
X28398941Y-23368011D01*
X28399386Y-23236792D01*
X28399966Y-23126867D01*
X28702803Y-23126867D01*
X28742593Y-23184711D01*
X28753764Y-23200479D01*
X28763834Y-23214441D01*
X28772862Y-23227784D01*
X28780903Y-23241693D01*
X28788014Y-23257356D01*
X28794253Y-23275958D01*
X28799675Y-23298686D01*
X28804338Y-23326727D01*
X28808299Y-23361267D01*
X28811615Y-23403492D01*
X28814341Y-23454589D01*
X28816536Y-23515744D01*
X28818255Y-23588144D01*
X28819556Y-23672975D01*
X28820495Y-23771422D01*
X28821130Y-23884674D01*
X28821516Y-24013916D01*
X28821712Y-24160334D01*
X28821773Y-24325116D01*
X28821757Y-24509447D01*
X28821720Y-24714513D01*
X28821711Y-24837133D01*
X28821735Y-25054082D01*
X28821769Y-25249642D01*
X28821757Y-25424999D01*
X28821642Y-25581341D01*
X28821370Y-25719857D01*
X28820882Y-25841734D01*
X28820124Y-25948160D01*
X28819038Y-26040322D01*
X28817569Y-26119409D01*
X28815660Y-26186608D01*
X28813256Y-26243107D01*
X28810299Y-26290093D01*
X28806734Y-26328755D01*
X28802505Y-26360280D01*
X28797554Y-26385855D01*
X28791827Y-26406670D01*
X28785267Y-26423911D01*
X28777817Y-26438765D01*
X28769421Y-26452422D01*
X28760024Y-26466069D01*
X28749568Y-26480893D01*
X28743477Y-26489783D01*
X28704704Y-26547400D01*
X29236268Y-26547400D01*
X29359517Y-26547365D01*
X29462013Y-26547215D01*
X29545580Y-26546878D01*
X29612044Y-26546286D01*
X29663229Y-26545367D01*
X29700959Y-26544051D01*
X29727060Y-26542269D01*
X29743356Y-26539951D01*
X29751672Y-26537026D01*
X29753832Y-26533424D01*
X29751661Y-26529075D01*
X29750465Y-26527645D01*
X29725315Y-26490573D01*
X29699417Y-26437772D01*
X29675808Y-26375770D01*
X29667539Y-26349357D01*
X29662922Y-26331416D01*
X29659021Y-26310355D01*
X29655752Y-26284089D01*
X29653034Y-26250532D01*
X29650785Y-26207599D01*
X29648923Y-26153204D01*
X29647364Y-26085262D01*
X29646028Y-26001688D01*
X29644831Y-25900395D01*
X29643692Y-25779300D01*
X29643315Y-25734600D01*
X29642298Y-25609449D01*
X29641540Y-25505082D01*
X29641097Y-25419707D01*
X29641030Y-25351533D01*
X29641395Y-25298765D01*
X29642252Y-25259614D01*
X29643659Y-25232285D01*
X29645675Y-25214986D01*
X29648357Y-25205926D01*
X29651764Y-25203312D01*
X29655956Y-25205351D01*
X29660429Y-25209667D01*
X29670784Y-25222602D01*
X29692842Y-25251676D01*
X29725043Y-25294759D01*
X29765826Y-25349718D01*
X29813630Y-25414423D01*
X29866895Y-25486742D01*
X29924060Y-25564544D01*
X29983563Y-25645698D01*
X30043845Y-25728072D01*
X30103345Y-25809536D01*
X30160502Y-25887957D01*
X30213755Y-25961204D01*
X30261543Y-26027147D01*
X30302307Y-26083654D01*
X30334484Y-26128593D01*
X30356515Y-26159834D01*
X30361083Y-26166466D01*
X30384004Y-26203369D01*
X30410812Y-26251359D01*
X30436211Y-26300897D01*
X30439432Y-26307577D01*
X30461110Y-26355772D01*
X30473696Y-26393334D01*
X30479426Y-26429160D01*
X30480544Y-26471200D01*
X30479910Y-26547400D01*
X31634349Y-26547400D01*
X31629347Y-26542257D01*
X31841489Y-26542257D01*
X31852396Y-26543334D01*
X31883589Y-26544335D01*
X31932777Y-26545235D01*
X31997667Y-26546010D01*
X32075970Y-26546637D01*
X32165393Y-26547091D01*
X32263644Y-26547349D01*
X32332555Y-26547400D01*
X32437548Y-26547180D01*
X32534390Y-26546548D01*
X32620893Y-26545549D01*
X32694868Y-26544227D01*
X32754126Y-26542626D01*
X32796480Y-26540791D01*
X32819740Y-26538765D01*
X32823622Y-26537493D01*
X32815924Y-26522591D01*
X32807926Y-26514560D01*
X32794754Y-26497434D01*
X32777515Y-26467183D01*
X32765593Y-26442622D01*
X32738955Y-26383711D01*
X32735880Y-25206845D01*
X32732805Y-24029978D01*
X32287147Y-24029978D01*
X32189330Y-24030142D01*
X32098936Y-24030611D01*
X32018370Y-24031347D01*
X31950038Y-24032316D01*
X31896344Y-24033480D01*
X31859695Y-24034803D01*
X31842496Y-24036249D01*
X31841489Y-24036702D01*
X31847398Y-24049659D01*
X31861728Y-24071908D01*
X31862775Y-24073391D01*
X31881562Y-24103544D01*
X31901209Y-24140375D01*
X31905108Y-24148511D01*
X31908644Y-24156940D01*
X31911770Y-24167059D01*
X31914514Y-24180260D01*
X31916908Y-24197938D01*
X31918981Y-24221484D01*
X31920765Y-24252293D01*
X31922288Y-24291757D01*
X31923581Y-24341269D01*
X31924674Y-24402223D01*
X31925597Y-24476011D01*
X31926381Y-24564028D01*
X31927055Y-24667665D01*
X31927650Y-24788316D01*
X31928195Y-24927374D01*
X31928721Y-25086232D01*
X31929255Y-25265089D01*
X31929794Y-25450207D01*
X31930228Y-25614145D01*
X31930491Y-25758303D01*
X31930516Y-25884079D01*
X31930235Y-25992871D01*
X31929581Y-26086077D01*
X31928486Y-26165097D01*
X31926882Y-26231328D01*
X31924703Y-26286170D01*
X31921881Y-26331021D01*
X31918349Y-26367278D01*
X31914039Y-26396341D01*
X31908883Y-26419609D01*
X31902815Y-26438479D01*
X31895767Y-26454351D01*
X31887671Y-26468622D01*
X31878460Y-26482691D01*
X31869960Y-26495158D01*
X31852824Y-26521452D01*
X31842678Y-26539037D01*
X31841489Y-26542257D01*
X31629347Y-26542257D01*
X31543185Y-26453669D01*
X31496388Y-26403775D01*
X31446101Y-26347295D01*
X31400056Y-26293026D01*
X31379631Y-26267673D01*
X31349193Y-26228128D01*
X31309138Y-26174916D01*
X31260639Y-26109667D01*
X31204865Y-26034011D01*
X31142989Y-25949577D01*
X31076181Y-25857994D01*
X31005613Y-25760892D01*
X30932455Y-25659901D01*
X30857879Y-25556650D01*
X30783056Y-25452768D01*
X30709157Y-25349885D01*
X30637354Y-25249631D01*
X30568816Y-25153636D01*
X30504716Y-25063527D01*
X30446225Y-24980936D01*
X30394514Y-24907492D01*
X30350753Y-24844824D01*
X30316115Y-24794561D01*
X30291770Y-24758334D01*
X30278889Y-24737771D01*
X30277131Y-24733668D01*
X30285090Y-24722342D01*
X30305885Y-24695162D01*
X30338153Y-24653829D01*
X30380530Y-24600044D01*
X30431653Y-24535506D01*
X30490159Y-24461918D01*
X30554686Y-24380978D01*
X30623869Y-24294388D01*
X30696347Y-24203848D01*
X30770754Y-24111060D01*
X30830483Y-24036702D01*
X30845730Y-24017722D01*
X30919910Y-23925537D01*
X30991931Y-23836204D01*
X31060431Y-23751424D01*
X31124045Y-23672898D01*
X31181412Y-23602326D01*
X31231167Y-23541409D01*
X31271948Y-23491847D01*
X31289112Y-23471178D01*
X31375404Y-23370516D01*
X31452003Y-23287259D01*
X31520817Y-23219438D01*
X31583752Y-23165089D01*
X31593133Y-23157722D01*
X31632644Y-23127117D01*
X30500884Y-23126867D01*
X30506173Y-23174844D01*
X30502870Y-23232188D01*
X30481339Y-23300463D01*
X30441365Y-23380212D01*
X30396057Y-23452495D01*
X30379839Y-23475140D01*
X30351786Y-23512696D01*
X30313570Y-23563021D01*
X30266863Y-23623973D01*
X30213339Y-23693411D01*
X30154669Y-23769194D01*
X30092525Y-23849180D01*
X30028579Y-23931228D01*
X29964505Y-24013196D01*
X29901973Y-24092943D01*
X29842657Y-24168327D01*
X29788229Y-24237207D01*
X29740361Y-24297442D01*
X29700725Y-24346889D01*
X29670994Y-24383408D01*
X29652839Y-24404858D01*
X29649780Y-24408156D01*
X29646921Y-24400149D01*
X29644707Y-24369855D01*
X29643143Y-24317556D01*
X29642233Y-24243531D01*
X29641980Y-24148063D01*
X29642387Y-24031434D01*
X29643296Y-23911445D01*
X29644618Y-23779333D01*
X29646143Y-23667594D01*
X29648119Y-23574025D01*
X29650794Y-23496419D01*
X29654418Y-23432574D01*
X29659239Y-23380283D01*
X29665506Y-23337344D01*
X29673468Y-23301551D01*
X29683373Y-23270700D01*
X29695469Y-23242586D01*
X29710007Y-23215005D01*
X29724689Y-23189966D01*
X29762686Y-23126867D01*
X28702803Y-23126867D01*
X28399966Y-23126867D01*
X28399999Y-23120617D01*
X28400805Y-23018544D01*
X28401830Y-22929633D01*
X28403100Y-22852941D01*
X28404640Y-22787527D01*
X28406476Y-22732449D01*
X28408633Y-22686765D01*
X28411137Y-22649534D01*
X28414013Y-22619813D01*
X28417287Y-22596662D01*
X28420985Y-22579139D01*
X28425131Y-22566301D01*
X28429753Y-22557208D01*
X28434874Y-22550918D01*
X28440522Y-22546488D01*
X28446721Y-22542978D01*
X28453496Y-22539445D01*
X28459492Y-22535876D01*
X28464725Y-22533300D01*
X28472901Y-22530972D01*
X28485114Y-22528878D01*
X28502459Y-22527007D01*
X28526031Y-22525347D01*
X28556923Y-22523884D01*
X28596232Y-22522608D01*
X28645050Y-22521504D01*
X28704473Y-22520561D01*
X28775596Y-22519767D01*
X28859512Y-22519109D01*
X28957317Y-22518575D01*
X29070106Y-22518153D01*
X29198971Y-22517829D01*
X29345009Y-22517592D01*
X29509314Y-22517430D01*
X29692980Y-22517330D01*
X29897103Y-22517280D01*
X30108247Y-22517267D01*
X31728600Y-22517267D01*
X31728600Y-22614054D01*
G37*
D11*
%TO.C,J104*%
X53400000Y-68460000D02*
X53400000Y-69200000D01*
X53400000Y-69200000D02*
X53900000Y-69200000D01*
X53640000Y-59039000D02*
X53640000Y-68960000D01*
X53640000Y-59039000D02*
X63760000Y-59039000D01*
X53640000Y-61999000D02*
X63760000Y-61999000D01*
X53640000Y-66900000D02*
X63760000Y-66900000D01*
X53640000Y-68400000D02*
X63760000Y-68400000D01*
X53640000Y-68960000D02*
X63760000Y-68960000D01*
X59973000Y-65323000D02*
X59926000Y-65369000D01*
X60166000Y-65539000D02*
X60131000Y-65574000D01*
X62270000Y-63025000D02*
X62235000Y-63061000D01*
X62475000Y-63231000D02*
X62428000Y-63277000D01*
X63760000Y-59039000D02*
X63760000Y-68960000D01*
X54664573Y-64983042D02*
G75*
G02*
X54665000Y-63616000I1535420J683041D01*
G01*
X55516958Y-62764573D02*
G75*
G02*
X56884000Y-62765000I683041J-1535420D01*
G01*
X56228805Y-65980253D02*
G75*
G02*
X55516000Y-65835000I-28806J1680254D01*
G01*
X56883318Y-65834756D02*
G75*
G02*
X56200000Y-65980000I-683318J1534756D01*
G01*
X57735427Y-63616958D02*
G75*
G02*
X57735000Y-64984000I-1535427J-683042D01*
G01*
X62880000Y-64300000D02*
G75*
G02*
X59520000Y-64300000I-1680000J0D01*
G01*
X59520000Y-64300000D02*
G75*
G02*
X62880000Y-64300000I1680000J0D01*
G01*
%TO.C,D101*%
X45800000Y-24960000D02*
X48485000Y-24960000D01*
X48485000Y-23040000D02*
X45800000Y-23040000D01*
X48485000Y-24960000D02*
X48485000Y-23040000D01*
%TO.C,U101*%
X54140000Y-47420000D02*
X54140000Y-21990000D01*
X54140000Y-47420000D02*
X56680000Y-47420000D01*
X56680000Y-47420000D02*
X56680000Y-54320000D01*
X56680000Y-54320000D02*
X80000000Y-54320000D01*
X77880000Y-19860000D02*
X56270000Y-19860000D01*
X80000000Y-54320000D02*
X80000000Y-21990000D01*
X54140000Y-21990000D02*
G75*
G02*
X56270000Y-19860000I2130002J-2D01*
G01*
X77870000Y-19860000D02*
G75*
G02*
X80000000Y-21990000I0J-2130000D01*
G01*
D13*
X53735000Y-28200000D02*
X53100000Y-28835000D01*
X53100000Y-27565000D01*
X53735000Y-28200000D01*
G36*
X53735000Y-28200000D02*
G01*
X53100000Y-28835000D01*
X53100000Y-27565000D01*
X53735000Y-28200000D01*
G37*
D11*
%TO.C,J103*%
X20805000Y-50900000D02*
X20805000Y-51400000D01*
X21045000Y-51140000D02*
X21045000Y-61260000D01*
X21545000Y-50900000D02*
X20805000Y-50900000D01*
X21605000Y-51140000D02*
X21605000Y-61260000D01*
X23105000Y-51140000D02*
X23105000Y-61260000D01*
X24466000Y-57666000D02*
X24431000Y-57631000D01*
X24682000Y-57473000D02*
X24636000Y-57426000D01*
X26774000Y-59975000D02*
X26728000Y-59928000D01*
X26980000Y-59770000D02*
X26944000Y-59735000D01*
X28006000Y-51140000D02*
X28006000Y-61260000D01*
X30966000Y-51140000D02*
X21045000Y-51140000D01*
X30966000Y-51140000D02*
X30966000Y-61260000D01*
X30966000Y-61260000D02*
X21045000Y-61260000D01*
X24024747Y-53728805D02*
G75*
G02*
X24170000Y-53016000I1680254J28806D01*
G01*
X24170244Y-54383318D02*
G75*
G02*
X24025000Y-53700000I1534756J683318D01*
G01*
X25021958Y-52164573D02*
G75*
G02*
X26389000Y-52165000I683041J-1535420D01*
G01*
X26388042Y-55235427D02*
G75*
G02*
X25021000Y-55235000I-683042J1535427D01*
G01*
X27240427Y-53016958D02*
G75*
G02*
X27240000Y-54384000I-1535420J-683041D01*
G01*
X27385000Y-58700000D02*
G75*
G02*
X24025000Y-58700000I-1680000J0D01*
G01*
X24025000Y-58700000D02*
G75*
G02*
X27385000Y-58700000I1680000J0D01*
G01*
%TO.C,J101*%
X20805000Y-28500000D02*
X20805000Y-29000000D01*
X21045000Y-28740000D02*
X21045000Y-38860000D01*
X21545000Y-28500000D02*
X20805000Y-28500000D01*
X21605000Y-28740000D02*
X21605000Y-38860000D01*
X23105000Y-28740000D02*
X23105000Y-38860000D01*
X24466000Y-35266000D02*
X24431000Y-35231000D01*
X24682000Y-35073000D02*
X24636000Y-35026000D01*
X26774000Y-37575000D02*
X26728000Y-37528000D01*
X26980000Y-37370000D02*
X26944000Y-37335000D01*
X28006000Y-28740000D02*
X28006000Y-38860000D01*
X30966000Y-28740000D02*
X21045000Y-28740000D01*
X30966000Y-28740000D02*
X30966000Y-38860000D01*
X30966000Y-38860000D02*
X21045000Y-38860000D01*
X24024747Y-31328805D02*
G75*
G02*
X24170000Y-30616000I1680254J28806D01*
G01*
X24170244Y-31983318D02*
G75*
G02*
X24025000Y-31300000I1534756J683318D01*
G01*
X25021958Y-29764573D02*
G75*
G02*
X26389000Y-29765000I683041J-1535420D01*
G01*
X26388042Y-32835427D02*
G75*
G02*
X25021000Y-32835000I-683042J1535427D01*
G01*
X27240427Y-30616958D02*
G75*
G02*
X27240000Y-31984000I-1535420J-683041D01*
G01*
X27385000Y-36300000D02*
G75*
G02*
X24025000Y-36300000I-1680000J0D01*
G01*
X24025000Y-36300000D02*
G75*
G02*
X27385000Y-36300000I1680000J0D01*
G01*
%TO.C,Q101*%
X49887500Y-44240000D02*
X49237500Y-44240000D01*
X49887500Y-44240000D02*
X50537500Y-44240000D01*
X49887500Y-47360000D02*
X49237500Y-47360000D01*
X49887500Y-47360000D02*
X50537500Y-47360000D01*
X51290000Y-47640000D02*
X50810000Y-47640000D01*
X51050000Y-47310000D01*
X51290000Y-47640000D01*
G36*
X51290000Y-47640000D02*
G01*
X50810000Y-47640000D01*
X51050000Y-47310000D01*
X51290000Y-47640000D01*
G37*
%TO.C,D102*%
X45115000Y-27440000D02*
X45115000Y-29360000D01*
X45115000Y-29360000D02*
X47800000Y-29360000D01*
X47800000Y-27440000D02*
X45115000Y-27440000D01*
%TO.C,R105*%
X52477500Y-47337742D02*
X52477500Y-47812258D01*
X53522500Y-47337742D02*
X53522500Y-47812258D01*
%TO.C,R102*%
X43262742Y-27877500D02*
X43737258Y-27877500D01*
X43262742Y-28922500D02*
X43737258Y-28922500D01*
%TO.C,K101*%
X36200000Y-68600000D02*
X36200000Y-48800000D01*
X37950000Y-53750000D02*
X37950000Y-56250000D01*
X39800000Y-64350000D02*
X42250000Y-64350000D01*
X40350000Y-59650000D02*
X40350000Y-52850000D01*
X42150000Y-54250000D02*
X45750000Y-54250000D01*
X42150000Y-56250000D02*
X37950000Y-56250000D01*
X42150000Y-58250000D02*
X42150000Y-54250000D01*
X42150000Y-58250000D02*
X45750000Y-54250000D01*
X42800000Y-48800000D02*
X36200000Y-48800000D01*
X43950000Y-52850000D02*
X40350000Y-52850000D01*
X43950000Y-52850000D02*
X43950000Y-52050000D01*
X43950000Y-59650000D02*
X40350000Y-59650000D01*
X43950000Y-59650000D02*
X43950000Y-61150000D01*
X43950000Y-61150000D02*
X46450000Y-65750000D01*
X45750000Y-54250000D02*
X45750000Y-58250000D01*
X45750000Y-58250000D02*
X42150000Y-58250000D01*
X48200000Y-64350000D02*
X45700000Y-64350000D01*
X49950000Y-56250000D02*
X45750000Y-56250000D01*
X49950000Y-56250000D02*
X49950000Y-53750000D01*
X51800000Y-48800000D02*
X45200000Y-48800000D01*
X51800000Y-48800000D02*
X51800000Y-68600000D01*
X51800000Y-68600000D02*
X36200000Y-68600000D01*
%TO.C,D103*%
X45800000Y-27160000D02*
X48485000Y-27160000D01*
X48485000Y-25240000D02*
X45800000Y-25240000D01*
X48485000Y-27160000D02*
X48485000Y-25240000D01*
D12*
%TO.C,REF\u002A\u002A*%
X40277600Y-35258752D02*
X40294948Y-35266334D01*
X40336356Y-35299128D01*
X40371765Y-35346547D01*
X40393664Y-35397151D01*
X40397229Y-35422098D01*
X40385279Y-35456927D01*
X40359067Y-35475357D01*
X40330964Y-35486516D01*
X40318095Y-35488572D01*
X40311829Y-35473649D01*
X40299456Y-35441175D01*
X40294028Y-35426502D01*
X40263590Y-35375744D01*
X40219520Y-35350427D01*
X40163010Y-35351206D01*
X40158825Y-35352203D01*
X40128655Y-35366507D01*
X40106476Y-35394393D01*
X40091327Y-35439287D01*
X40082250Y-35504615D01*
X40078286Y-35593804D01*
X40077914Y-35641261D01*
X40077730Y-35716071D01*
X40076522Y-35767069D01*
X40073309Y-35799471D01*
X40067109Y-35818495D01*
X40056940Y-35829356D01*
X40041819Y-35837272D01*
X40040946Y-35837670D01*
X40011828Y-35849981D01*
X39997403Y-35854514D01*
X39995186Y-35840809D01*
X39993289Y-35802925D01*
X39991847Y-35745715D01*
X39990998Y-35674027D01*
X39990829Y-35621565D01*
X39991692Y-35520047D01*
X39995070Y-35443032D01*
X40002142Y-35386023D01*
X40014088Y-35344526D01*
X40032090Y-35314043D01*
X40057327Y-35290080D01*
X40082247Y-35273355D01*
X40142171Y-35251097D01*
X40211911Y-35246076D01*
X40277600Y-35258752D01*
G36*
X40277600Y-35258752D02*
G01*
X40294948Y-35266334D01*
X40336356Y-35299128D01*
X40371765Y-35346547D01*
X40393664Y-35397151D01*
X40397229Y-35422098D01*
X40385279Y-35456927D01*
X40359067Y-35475357D01*
X40330964Y-35486516D01*
X40318095Y-35488572D01*
X40311829Y-35473649D01*
X40299456Y-35441175D01*
X40294028Y-35426502D01*
X40263590Y-35375744D01*
X40219520Y-35350427D01*
X40163010Y-35351206D01*
X40158825Y-35352203D01*
X40128655Y-35366507D01*
X40106476Y-35394393D01*
X40091327Y-35439287D01*
X40082250Y-35504615D01*
X40078286Y-35593804D01*
X40077914Y-35641261D01*
X40077730Y-35716071D01*
X40076522Y-35767069D01*
X40073309Y-35799471D01*
X40067109Y-35818495D01*
X40056940Y-35829356D01*
X40041819Y-35837272D01*
X40040946Y-35837670D01*
X40011828Y-35849981D01*
X39997403Y-35854514D01*
X39995186Y-35840809D01*
X39993289Y-35802925D01*
X39991847Y-35745715D01*
X39990998Y-35674027D01*
X39990829Y-35621565D01*
X39991692Y-35520047D01*
X39995070Y-35443032D01*
X40002142Y-35386023D01*
X40014088Y-35344526D01*
X40032090Y-35314043D01*
X40057327Y-35290080D01*
X40082247Y-35273355D01*
X40142171Y-35251097D01*
X40211911Y-35246076D01*
X40277600Y-35258752D01*
G37*
X36341093Y-35227780D02*
X36387672Y-35254723D01*
X36420057Y-35281466D01*
X36443742Y-35309484D01*
X36460059Y-35343748D01*
X36470339Y-35389227D01*
X36475914Y-35450892D01*
X36478116Y-35533711D01*
X36478371Y-35593246D01*
X36478371Y-35812391D01*
X36416686Y-35840044D01*
X36355000Y-35867697D01*
X36347743Y-35627670D01*
X36344744Y-35538028D01*
X36341598Y-35472962D01*
X36337701Y-35428026D01*
X36332447Y-35398770D01*
X36325231Y-35380748D01*
X36315450Y-35369511D01*
X36312312Y-35367079D01*
X36264761Y-35348083D01*
X36216697Y-35355600D01*
X36188086Y-35375543D01*
X36176447Y-35389675D01*
X36168391Y-35408220D01*
X36163271Y-35436334D01*
X36160441Y-35479173D01*
X36159256Y-35541895D01*
X36159057Y-35607261D01*
X36159018Y-35689268D01*
X36157614Y-35747316D01*
X36152914Y-35786465D01*
X36142987Y-35811780D01*
X36125903Y-35828323D01*
X36099732Y-35841156D01*
X36064775Y-35854491D01*
X36026596Y-35869007D01*
X36031141Y-35611389D01*
X36032971Y-35518519D01*
X36035112Y-35449889D01*
X36038181Y-35400711D01*
X36042794Y-35366198D01*
X36049568Y-35341562D01*
X36059119Y-35322016D01*
X36070634Y-35304770D01*
X36126190Y-35249680D01*
X36193980Y-35217822D01*
X36267713Y-35210191D01*
X36341093Y-35227780D01*
G36*
X36341093Y-35227780D02*
G01*
X36387672Y-35254723D01*
X36420057Y-35281466D01*
X36443742Y-35309484D01*
X36460059Y-35343748D01*
X36470339Y-35389227D01*
X36475914Y-35450892D01*
X36478116Y-35533711D01*
X36478371Y-35593246D01*
X36478371Y-35812391D01*
X36416686Y-35840044D01*
X36355000Y-35867697D01*
X36347743Y-35627670D01*
X36344744Y-35538028D01*
X36341598Y-35472962D01*
X36337701Y-35428026D01*
X36332447Y-35398770D01*
X36325231Y-35380748D01*
X36315450Y-35369511D01*
X36312312Y-35367079D01*
X36264761Y-35348083D01*
X36216697Y-35355600D01*
X36188086Y-35375543D01*
X36176447Y-35389675D01*
X36168391Y-35408220D01*
X36163271Y-35436334D01*
X36160441Y-35479173D01*
X36159256Y-35541895D01*
X36159057Y-35607261D01*
X36159018Y-35689268D01*
X36157614Y-35747316D01*
X36152914Y-35786465D01*
X36142987Y-35811780D01*
X36125903Y-35828323D01*
X36099732Y-35841156D01*
X36064775Y-35854491D01*
X36026596Y-35869007D01*
X36031141Y-35611389D01*
X36032971Y-35518519D01*
X36035112Y-35449889D01*
X36038181Y-35400711D01*
X36042794Y-35366198D01*
X36049568Y-35341562D01*
X36059119Y-35322016D01*
X36070634Y-35304770D01*
X36126190Y-35249680D01*
X36193980Y-35217822D01*
X36267713Y-35210191D01*
X36341093Y-35227780D01*
G37*
X38154926Y-35249755D02*
X38220858Y-35274084D01*
X38274273Y-35317117D01*
X38295164Y-35347409D01*
X38317939Y-35402994D01*
X38317466Y-35443186D01*
X38293562Y-35470217D01*
X38284717Y-35474813D01*
X38246530Y-35489144D01*
X38227028Y-35485472D01*
X38220422Y-35461407D01*
X38220086Y-35448114D01*
X38207992Y-35399210D01*
X38176471Y-35364999D01*
X38132659Y-35348476D01*
X38083695Y-35352634D01*
X38043894Y-35374227D01*
X38030450Y-35386544D01*
X38020921Y-35401487D01*
X38014485Y-35424075D01*
X38010317Y-35459328D01*
X38007597Y-35512266D01*
X38005502Y-35587907D01*
X38004960Y-35611857D01*
X38002981Y-35693790D01*
X38000731Y-35751455D01*
X37997357Y-35789608D01*
X37992006Y-35813004D01*
X37983824Y-35826398D01*
X37971959Y-35834545D01*
X37964362Y-35838144D01*
X37932102Y-35850452D01*
X37913111Y-35854514D01*
X37906836Y-35840948D01*
X37903006Y-35799934D01*
X37901600Y-35730999D01*
X37902598Y-35633669D01*
X37902908Y-35618657D01*
X37905101Y-35529859D01*
X37907693Y-35465019D01*
X37911382Y-35419067D01*
X37916864Y-35386935D01*
X37924835Y-35363553D01*
X37935993Y-35343852D01*
X37941830Y-35335410D01*
X37975296Y-35298057D01*
X38012727Y-35269003D01*
X38017309Y-35266467D01*
X38084426Y-35246443D01*
X38154926Y-35249755D01*
G36*
X38154926Y-35249755D02*
G01*
X38220858Y-35274084D01*
X38274273Y-35317117D01*
X38295164Y-35347409D01*
X38317939Y-35402994D01*
X38317466Y-35443186D01*
X38293562Y-35470217D01*
X38284717Y-35474813D01*
X38246530Y-35489144D01*
X38227028Y-35485472D01*
X38220422Y-35461407D01*
X38220086Y-35448114D01*
X38207992Y-35399210D01*
X38176471Y-35364999D01*
X38132659Y-35348476D01*
X38083695Y-35352634D01*
X38043894Y-35374227D01*
X38030450Y-35386544D01*
X38020921Y-35401487D01*
X38014485Y-35424075D01*
X38010317Y-35459328D01*
X38007597Y-35512266D01*
X38005502Y-35587907D01*
X38004960Y-35611857D01*
X38002981Y-35693790D01*
X38000731Y-35751455D01*
X37997357Y-35789608D01*
X37992006Y-35813004D01*
X37983824Y-35826398D01*
X37971959Y-35834545D01*
X37964362Y-35838144D01*
X37932102Y-35850452D01*
X37913111Y-35854514D01*
X37906836Y-35840948D01*
X37903006Y-35799934D01*
X37901600Y-35730999D01*
X37902598Y-35633669D01*
X37902908Y-35618657D01*
X37905101Y-35529859D01*
X37907693Y-35465019D01*
X37911382Y-35419067D01*
X37916864Y-35386935D01*
X37924835Y-35363553D01*
X37935993Y-35343852D01*
X37941830Y-35335410D01*
X37975296Y-35298057D01*
X38012727Y-35269003D01*
X38017309Y-35266467D01*
X38084426Y-35246443D01*
X38154926Y-35249755D01*
G37*
X37000886Y-35151289D02*
X37005139Y-35210613D01*
X37010025Y-35245572D01*
X37016795Y-35260820D01*
X37026702Y-35261015D01*
X37029914Y-35259195D01*
X37072644Y-35246015D01*
X37128227Y-35246785D01*
X37184737Y-35260333D01*
X37220082Y-35277861D01*
X37256321Y-35305861D01*
X37282813Y-35337549D01*
X37300999Y-35377813D01*
X37312322Y-35431543D01*
X37318222Y-35503626D01*
X37320143Y-35598951D01*
X37320177Y-35617237D01*
X37320200Y-35822646D01*
X37274491Y-35838580D01*
X37242027Y-35849420D01*
X37224215Y-35854468D01*
X37223691Y-35854514D01*
X37221937Y-35840828D01*
X37220444Y-35803076D01*
X37219326Y-35746224D01*
X37218697Y-35675234D01*
X37218600Y-35632073D01*
X37218398Y-35546973D01*
X37217358Y-35485981D01*
X37214831Y-35444177D01*
X37210164Y-35416642D01*
X37202707Y-35398456D01*
X37191811Y-35384698D01*
X37185007Y-35378073D01*
X37138272Y-35351375D01*
X37087272Y-35349375D01*
X37041001Y-35371955D01*
X37032444Y-35380107D01*
X37019893Y-35395436D01*
X37011188Y-35413618D01*
X37005631Y-35439909D01*
X37002526Y-35479562D01*
X37001176Y-35537832D01*
X37000886Y-35618173D01*
X37000886Y-35822646D01*
X36955177Y-35838580D01*
X36922713Y-35849420D01*
X36904901Y-35854468D01*
X36904377Y-35854514D01*
X36903037Y-35840623D01*
X36901828Y-35801439D01*
X36900801Y-35740700D01*
X36900002Y-35662141D01*
X36899481Y-35569498D01*
X36899286Y-35466509D01*
X36899286Y-35069342D01*
X36946457Y-35049444D01*
X36993629Y-35029547D01*
X37000886Y-35151289D01*
G36*
X37000886Y-35151289D02*
G01*
X37005139Y-35210613D01*
X37010025Y-35245572D01*
X37016795Y-35260820D01*
X37026702Y-35261015D01*
X37029914Y-35259195D01*
X37072644Y-35246015D01*
X37128227Y-35246785D01*
X37184737Y-35260333D01*
X37220082Y-35277861D01*
X37256321Y-35305861D01*
X37282813Y-35337549D01*
X37300999Y-35377813D01*
X37312322Y-35431543D01*
X37318222Y-35503626D01*
X37320143Y-35598951D01*
X37320177Y-35617237D01*
X37320200Y-35822646D01*
X37274491Y-35838580D01*
X37242027Y-35849420D01*
X37224215Y-35854468D01*
X37223691Y-35854514D01*
X37221937Y-35840828D01*
X37220444Y-35803076D01*
X37219326Y-35746224D01*
X37218697Y-35675234D01*
X37218600Y-35632073D01*
X37218398Y-35546973D01*
X37217358Y-35485981D01*
X37214831Y-35444177D01*
X37210164Y-35416642D01*
X37202707Y-35398456D01*
X37191811Y-35384698D01*
X37185007Y-35378073D01*
X37138272Y-35351375D01*
X37087272Y-35349375D01*
X37041001Y-35371955D01*
X37032444Y-35380107D01*
X37019893Y-35395436D01*
X37011188Y-35413618D01*
X37005631Y-35439909D01*
X37002526Y-35479562D01*
X37001176Y-35537832D01*
X37000886Y-35618173D01*
X37000886Y-35822646D01*
X36955177Y-35838580D01*
X36922713Y-35849420D01*
X36904901Y-35854468D01*
X36904377Y-35854514D01*
X36903037Y-35840623D01*
X36901828Y-35801439D01*
X36900801Y-35740700D01*
X36900002Y-35662141D01*
X36899481Y-35569498D01*
X36899286Y-35466509D01*
X36899286Y-35069342D01*
X36946457Y-35049444D01*
X36993629Y-35029547D01*
X37000886Y-35151289D01*
G37*
X39404833Y-35258663D02*
X39407048Y-35296850D01*
X39408784Y-35354886D01*
X39409899Y-35428180D01*
X39410257Y-35505055D01*
X39410257Y-35765196D01*
X39364326Y-35811127D01*
X39332675Y-35839429D01*
X39304890Y-35850893D01*
X39266915Y-35850168D01*
X39251840Y-35848321D01*
X39204726Y-35842948D01*
X39165756Y-35839869D01*
X39156257Y-35839585D01*
X39124233Y-35841445D01*
X39078432Y-35846114D01*
X39060674Y-35848321D01*
X39017057Y-35851735D01*
X38987745Y-35844320D01*
X38958680Y-35821427D01*
X38948188Y-35811127D01*
X38902257Y-35765196D01*
X38902257Y-35278602D01*
X38939226Y-35261758D01*
X38971059Y-35249282D01*
X38989683Y-35244914D01*
X38994458Y-35258718D01*
X38998921Y-35297286D01*
X39002775Y-35356356D01*
X39005722Y-35431663D01*
X39007143Y-35495286D01*
X39011114Y-35745657D01*
X39045759Y-35750556D01*
X39077268Y-35747131D01*
X39092708Y-35736041D01*
X39097023Y-35715308D01*
X39100708Y-35671145D01*
X39103469Y-35609146D01*
X39105012Y-35534909D01*
X39105235Y-35496706D01*
X39105457Y-35276783D01*
X39151166Y-35260849D01*
X39183518Y-35250015D01*
X39201115Y-35244962D01*
X39201623Y-35244914D01*
X39203388Y-35258648D01*
X39205329Y-35296730D01*
X39207282Y-35354482D01*
X39209084Y-35427227D01*
X39210343Y-35495286D01*
X39214314Y-35745657D01*
X39301400Y-35745657D01*
X39305396Y-35517240D01*
X39309392Y-35288822D01*
X39351847Y-35266868D01*
X39383192Y-35251793D01*
X39401744Y-35244951D01*
X39402279Y-35244914D01*
X39404833Y-35258663D01*
G36*
X39404833Y-35258663D02*
G01*
X39407048Y-35296850D01*
X39408784Y-35354886D01*
X39409899Y-35428180D01*
X39410257Y-35505055D01*
X39410257Y-35765196D01*
X39364326Y-35811127D01*
X39332675Y-35839429D01*
X39304890Y-35850893D01*
X39266915Y-35850168D01*
X39251840Y-35848321D01*
X39204726Y-35842948D01*
X39165756Y-35839869D01*
X39156257Y-35839585D01*
X39124233Y-35841445D01*
X39078432Y-35846114D01*
X39060674Y-35848321D01*
X39017057Y-35851735D01*
X38987745Y-35844320D01*
X38958680Y-35821427D01*
X38948188Y-35811127D01*
X38902257Y-35765196D01*
X38902257Y-35278602D01*
X38939226Y-35261758D01*
X38971059Y-35249282D01*
X38989683Y-35244914D01*
X38994458Y-35258718D01*
X38998921Y-35297286D01*
X39002775Y-35356356D01*
X39005722Y-35431663D01*
X39007143Y-35495286D01*
X39011114Y-35745657D01*
X39045759Y-35750556D01*
X39077268Y-35747131D01*
X39092708Y-35736041D01*
X39097023Y-35715308D01*
X39100708Y-35671145D01*
X39103469Y-35609146D01*
X39105012Y-35534909D01*
X39105235Y-35496706D01*
X39105457Y-35276783D01*
X39151166Y-35260849D01*
X39183518Y-35250015D01*
X39201115Y-35244962D01*
X39201623Y-35244914D01*
X39203388Y-35258648D01*
X39205329Y-35296730D01*
X39207282Y-35354482D01*
X39209084Y-35427227D01*
X39210343Y-35495286D01*
X39214314Y-35745657D01*
X39301400Y-35745657D01*
X39305396Y-35517240D01*
X39309392Y-35288822D01*
X39351847Y-35266868D01*
X39383192Y-35251793D01*
X39401744Y-35244951D01*
X39402279Y-35244914D01*
X39404833Y-35258663D01*
G37*
X34666115Y-35221962D02*
X34734145Y-35257733D01*
X34784351Y-35315301D01*
X34802185Y-35352312D01*
X34816063Y-35407882D01*
X34823167Y-35478096D01*
X34823840Y-35554727D01*
X34818427Y-35629552D01*
X34807270Y-35694342D01*
X34790714Y-35740873D01*
X34785626Y-35748887D01*
X34725355Y-35808707D01*
X34653769Y-35844535D01*
X34576092Y-35855020D01*
X34497548Y-35838810D01*
X34475689Y-35829092D01*
X34433122Y-35799143D01*
X34395763Y-35759433D01*
X34392232Y-35754397D01*
X34377881Y-35730124D01*
X34368394Y-35704178D01*
X34362790Y-35670022D01*
X34360086Y-35621119D01*
X34359299Y-35550935D01*
X34359286Y-35535200D01*
X34359322Y-35530192D01*
X34504429Y-35530192D01*
X34505273Y-35596430D01*
X34508596Y-35640386D01*
X34515583Y-35668779D01*
X34527416Y-35688325D01*
X34533457Y-35694857D01*
X34568186Y-35719680D01*
X34601903Y-35718548D01*
X34635995Y-35697016D01*
X34656329Y-35674029D01*
X34668371Y-35640478D01*
X34675134Y-35587569D01*
X34675598Y-35581399D01*
X34676752Y-35485513D01*
X34664688Y-35414299D01*
X34639570Y-35368194D01*
X34601560Y-35347635D01*
X34587992Y-35346514D01*
X34552364Y-35352152D01*
X34527994Y-35371686D01*
X34513093Y-35409042D01*
X34505875Y-35468150D01*
X34504429Y-35530192D01*
X34359322Y-35530192D01*
X34359826Y-35460413D01*
X34362096Y-35408159D01*
X34367068Y-35371949D01*
X34375713Y-35345299D01*
X34389005Y-35321722D01*
X34391943Y-35317338D01*
X34441313Y-35258249D01*
X34495109Y-35223947D01*
X34560602Y-35210331D01*
X34582842Y-35209665D01*
X34666115Y-35221962D01*
G36*
X34666115Y-35221962D02*
G01*
X34734145Y-35257733D01*
X34784351Y-35315301D01*
X34802185Y-35352312D01*
X34816063Y-35407882D01*
X34823167Y-35478096D01*
X34823840Y-35554727D01*
X34818427Y-35629552D01*
X34807270Y-35694342D01*
X34790714Y-35740873D01*
X34785626Y-35748887D01*
X34725355Y-35808707D01*
X34653769Y-35844535D01*
X34576092Y-35855020D01*
X34497548Y-35838810D01*
X34475689Y-35829092D01*
X34433122Y-35799143D01*
X34395763Y-35759433D01*
X34392232Y-35754397D01*
X34377881Y-35730124D01*
X34368394Y-35704178D01*
X34362790Y-35670022D01*
X34360086Y-35621119D01*
X34359299Y-35550935D01*
X34359286Y-35535200D01*
X34359322Y-35530192D01*
X34504429Y-35530192D01*
X34505273Y-35596430D01*
X34508596Y-35640386D01*
X34515583Y-35668779D01*
X34527416Y-35688325D01*
X34533457Y-35694857D01*
X34568186Y-35719680D01*
X34601903Y-35718548D01*
X34635995Y-35697016D01*
X34656329Y-35674029D01*
X34668371Y-35640478D01*
X34675134Y-35587569D01*
X34675598Y-35581399D01*
X34676752Y-35485513D01*
X34664688Y-35414299D01*
X34639570Y-35368194D01*
X34601560Y-35347635D01*
X34587992Y-35346514D01*
X34552364Y-35352152D01*
X34527994Y-35371686D01*
X34513093Y-35409042D01*
X34505875Y-35468150D01*
X34504429Y-35530192D01*
X34359322Y-35530192D01*
X34359826Y-35460413D01*
X34362096Y-35408159D01*
X34367068Y-35371949D01*
X34375713Y-35345299D01*
X34389005Y-35321722D01*
X34391943Y-35317338D01*
X34441313Y-35258249D01*
X34495109Y-35223947D01*
X34560602Y-35210331D01*
X34582842Y-35209665D01*
X34666115Y-35221962D01*
G37*
X40778595Y-35266966D02*
X40836021Y-35304497D01*
X40863719Y-35338096D01*
X40885662Y-35399064D01*
X40887405Y-35447308D01*
X40883457Y-35511816D01*
X40734686Y-35576934D01*
X40662349Y-35610202D01*
X40615084Y-35636964D01*
X40590507Y-35660144D01*
X40586237Y-35682667D01*
X40599889Y-35707455D01*
X40614943Y-35723886D01*
X40658746Y-35750235D01*
X40706389Y-35752081D01*
X40750145Y-35731546D01*
X40782289Y-35690752D01*
X40788038Y-35676347D01*
X40815576Y-35631356D01*
X40847258Y-35612182D01*
X40890714Y-35595779D01*
X40890714Y-35657966D01*
X40886872Y-35700283D01*
X40871823Y-35735969D01*
X40840280Y-35776943D01*
X40835592Y-35782267D01*
X40800506Y-35818720D01*
X40770347Y-35838283D01*
X40732615Y-35847283D01*
X40701335Y-35850230D01*
X40645385Y-35850965D01*
X40605555Y-35841660D01*
X40580708Y-35827846D01*
X40541656Y-35797467D01*
X40514625Y-35764613D01*
X40497517Y-35723294D01*
X40488238Y-35667521D01*
X40484693Y-35591305D01*
X40484410Y-35552622D01*
X40485372Y-35506247D01*
X40573007Y-35506247D01*
X40574023Y-35531126D01*
X40576556Y-35535200D01*
X40593274Y-35529665D01*
X40629249Y-35515017D01*
X40677331Y-35494190D01*
X40687386Y-35489714D01*
X40748152Y-35458814D01*
X40781632Y-35431657D01*
X40788990Y-35406220D01*
X40771391Y-35380481D01*
X40756856Y-35369109D01*
X40704410Y-35346364D01*
X40655322Y-35350122D01*
X40614227Y-35377884D01*
X40585758Y-35427152D01*
X40576631Y-35466257D01*
X40573007Y-35506247D01*
X40485372Y-35506247D01*
X40486285Y-35462249D01*
X40493196Y-35395384D01*
X40506884Y-35346695D01*
X40529096Y-35310849D01*
X40561574Y-35282513D01*
X40575733Y-35273355D01*
X40640053Y-35249507D01*
X40710473Y-35248006D01*
X40778595Y-35266966D01*
G36*
X40778595Y-35266966D02*
G01*
X40836021Y-35304497D01*
X40863719Y-35338096D01*
X40885662Y-35399064D01*
X40887405Y-35447308D01*
X40883457Y-35511816D01*
X40734686Y-35576934D01*
X40662349Y-35610202D01*
X40615084Y-35636964D01*
X40590507Y-35660144D01*
X40586237Y-35682667D01*
X40599889Y-35707455D01*
X40614943Y-35723886D01*
X40658746Y-35750235D01*
X40706389Y-35752081D01*
X40750145Y-35731546D01*
X40782289Y-35690752D01*
X40788038Y-35676347D01*
X40815576Y-35631356D01*
X40847258Y-35612182D01*
X40890714Y-35595779D01*
X40890714Y-35657966D01*
X40886872Y-35700283D01*
X40871823Y-35735969D01*
X40840280Y-35776943D01*
X40835592Y-35782267D01*
X40800506Y-35818720D01*
X40770347Y-35838283D01*
X40732615Y-35847283D01*
X40701335Y-35850230D01*
X40645385Y-35850965D01*
X40605555Y-35841660D01*
X40580708Y-35827846D01*
X40541656Y-35797467D01*
X40514625Y-35764613D01*
X40497517Y-35723294D01*
X40488238Y-35667521D01*
X40484693Y-35591305D01*
X40484410Y-35552622D01*
X40485372Y-35506247D01*
X40573007Y-35506247D01*
X40574023Y-35531126D01*
X40576556Y-35535200D01*
X40593274Y-35529665D01*
X40629249Y-35515017D01*
X40677331Y-35494190D01*
X40687386Y-35489714D01*
X40748152Y-35458814D01*
X40781632Y-35431657D01*
X40788990Y-35406220D01*
X40771391Y-35380481D01*
X40756856Y-35369109D01*
X40704410Y-35346364D01*
X40655322Y-35350122D01*
X40614227Y-35377884D01*
X40585758Y-35427152D01*
X40576631Y-35466257D01*
X40573007Y-35506247D01*
X40485372Y-35506247D01*
X40486285Y-35462249D01*
X40493196Y-35395384D01*
X40506884Y-35346695D01*
X40529096Y-35310849D01*
X40561574Y-35282513D01*
X40575733Y-35273355D01*
X40640053Y-35249507D01*
X40710473Y-35248006D01*
X40778595Y-35266966D01*
G37*
X38815117Y-35365358D02*
X38814933Y-35473837D01*
X38814219Y-35557287D01*
X38812675Y-35619704D01*
X38810001Y-35665085D01*
X38805894Y-35697429D01*
X38800055Y-35720733D01*
X38792182Y-35738995D01*
X38786221Y-35749418D01*
X38736855Y-35805945D01*
X38674264Y-35841377D01*
X38605013Y-35854090D01*
X38535668Y-35842463D01*
X38494375Y-35821568D01*
X38451025Y-35785422D01*
X38421481Y-35741276D01*
X38403655Y-35683462D01*
X38395463Y-35606313D01*
X38394302Y-35549714D01*
X38394458Y-35545647D01*
X38495857Y-35545647D01*
X38496476Y-35610550D01*
X38499314Y-35653514D01*
X38505840Y-35681622D01*
X38517523Y-35701953D01*
X38531483Y-35717288D01*
X38578365Y-35746890D01*
X38628701Y-35749419D01*
X38676276Y-35724705D01*
X38679979Y-35721356D01*
X38695783Y-35703935D01*
X38705693Y-35683209D01*
X38711058Y-35652362D01*
X38713228Y-35604577D01*
X38713571Y-35551748D01*
X38712827Y-35485381D01*
X38709748Y-35441106D01*
X38703061Y-35412009D01*
X38691496Y-35391173D01*
X38682013Y-35380107D01*
X38637960Y-35352198D01*
X38587224Y-35348843D01*
X38538796Y-35370159D01*
X38529450Y-35378073D01*
X38513540Y-35395647D01*
X38503610Y-35416587D01*
X38498278Y-35447782D01*
X38496163Y-35496122D01*
X38495857Y-35545647D01*
X38394458Y-35545647D01*
X38397810Y-35458568D01*
X38409726Y-35390086D01*
X38432135Y-35338600D01*
X38467124Y-35298443D01*
X38494375Y-35277861D01*
X38543907Y-35255625D01*
X38601316Y-35245304D01*
X38654682Y-35248067D01*
X38684543Y-35259212D01*
X38696261Y-35262383D01*
X38704037Y-35250557D01*
X38709465Y-35218866D01*
X38713571Y-35170593D01*
X38718067Y-35116829D01*
X38724313Y-35084482D01*
X38735676Y-35065985D01*
X38755528Y-35053770D01*
X38768000Y-35048362D01*
X38815171Y-35028601D01*
X38815117Y-35365358D01*
G36*
X38815117Y-35365358D02*
G01*
X38814933Y-35473837D01*
X38814219Y-35557287D01*
X38812675Y-35619704D01*
X38810001Y-35665085D01*
X38805894Y-35697429D01*
X38800055Y-35720733D01*
X38792182Y-35738995D01*
X38786221Y-35749418D01*
X38736855Y-35805945D01*
X38674264Y-35841377D01*
X38605013Y-35854090D01*
X38535668Y-35842463D01*
X38494375Y-35821568D01*
X38451025Y-35785422D01*
X38421481Y-35741276D01*
X38403655Y-35683462D01*
X38395463Y-35606313D01*
X38394302Y-35549714D01*
X38394458Y-35545647D01*
X38495857Y-35545647D01*
X38496476Y-35610550D01*
X38499314Y-35653514D01*
X38505840Y-35681622D01*
X38517523Y-35701953D01*
X38531483Y-35717288D01*
X38578365Y-35746890D01*
X38628701Y-35749419D01*
X38676276Y-35724705D01*
X38679979Y-35721356D01*
X38695783Y-35703935D01*
X38705693Y-35683209D01*
X38711058Y-35652362D01*
X38713228Y-35604577D01*
X38713571Y-35551748D01*
X38712827Y-35485381D01*
X38709748Y-35441106D01*
X38703061Y-35412009D01*
X38691496Y-35391173D01*
X38682013Y-35380107D01*
X38637960Y-35352198D01*
X38587224Y-35348843D01*
X38538796Y-35370159D01*
X38529450Y-35378073D01*
X38513540Y-35395647D01*
X38503610Y-35416587D01*
X38498278Y-35447782D01*
X38496163Y-35496122D01*
X38495857Y-35545647D01*
X38394458Y-35545647D01*
X38397810Y-35458568D01*
X38409726Y-35390086D01*
X38432135Y-35338600D01*
X38467124Y-35298443D01*
X38494375Y-35277861D01*
X38543907Y-35255625D01*
X38601316Y-35245304D01*
X38654682Y-35248067D01*
X38684543Y-35259212D01*
X38696261Y-35262383D01*
X38704037Y-35250557D01*
X38709465Y-35218866D01*
X38713571Y-35170593D01*
X38718067Y-35116829D01*
X38724313Y-35084482D01*
X38735676Y-35065985D01*
X38755528Y-35053770D01*
X38768000Y-35048362D01*
X38815171Y-35028601D01*
X38815117Y-35365358D01*
G37*
X35793303Y-35231239D02*
X35850527Y-35269735D01*
X35894749Y-35325335D01*
X35921167Y-35396086D01*
X35926510Y-35448162D01*
X35925903Y-35469893D01*
X35920822Y-35486531D01*
X35906855Y-35501437D01*
X35879589Y-35517973D01*
X35834612Y-35539498D01*
X35767511Y-35569374D01*
X35767171Y-35569524D01*
X35705407Y-35597813D01*
X35654759Y-35622933D01*
X35620404Y-35642179D01*
X35607518Y-35652848D01*
X35607514Y-35652934D01*
X35618872Y-35676166D01*
X35645431Y-35701774D01*
X35675923Y-35720221D01*
X35691370Y-35723886D01*
X35733515Y-35711212D01*
X35769808Y-35679471D01*
X35787517Y-35644572D01*
X35804552Y-35618845D01*
X35837922Y-35589546D01*
X35877149Y-35564235D01*
X35911756Y-35550471D01*
X35918993Y-35549714D01*
X35927139Y-35562160D01*
X35927630Y-35593972D01*
X35921643Y-35636866D01*
X35910357Y-35682558D01*
X35894950Y-35722761D01*
X35894171Y-35724322D01*
X35847804Y-35789062D01*
X35787711Y-35833097D01*
X35719465Y-35854711D01*
X35648638Y-35852185D01*
X35580804Y-35823804D01*
X35577788Y-35821808D01*
X35524427Y-35773448D01*
X35489340Y-35710352D01*
X35469922Y-35627387D01*
X35467316Y-35604078D01*
X35462701Y-35494055D01*
X35468233Y-35442748D01*
X35607514Y-35442748D01*
X35609324Y-35474753D01*
X35619222Y-35484093D01*
X35643898Y-35477105D01*
X35682795Y-35460587D01*
X35726275Y-35439881D01*
X35727356Y-35439333D01*
X35764209Y-35419949D01*
X35779000Y-35407013D01*
X35775353Y-35393451D01*
X35759995Y-35375632D01*
X35720923Y-35349845D01*
X35678846Y-35347950D01*
X35641103Y-35366717D01*
X35615034Y-35402915D01*
X35607514Y-35442748D01*
X35468233Y-35442748D01*
X35472194Y-35406027D01*
X35496550Y-35336212D01*
X35530456Y-35287302D01*
X35591653Y-35237878D01*
X35659063Y-35213359D01*
X35727880Y-35211797D01*
X35793303Y-35231239D01*
G36*
X35793303Y-35231239D02*
G01*
X35850527Y-35269735D01*
X35894749Y-35325335D01*
X35921167Y-35396086D01*
X35926510Y-35448162D01*
X35925903Y-35469893D01*
X35920822Y-35486531D01*
X35906855Y-35501437D01*
X35879589Y-35517973D01*
X35834612Y-35539498D01*
X35767511Y-35569374D01*
X35767171Y-35569524D01*
X35705407Y-35597813D01*
X35654759Y-35622933D01*
X35620404Y-35642179D01*
X35607518Y-35652848D01*
X35607514Y-35652934D01*
X35618872Y-35676166D01*
X35645431Y-35701774D01*
X35675923Y-35720221D01*
X35691370Y-35723886D01*
X35733515Y-35711212D01*
X35769808Y-35679471D01*
X35787517Y-35644572D01*
X35804552Y-35618845D01*
X35837922Y-35589546D01*
X35877149Y-35564235D01*
X35911756Y-35550471D01*
X35918993Y-35549714D01*
X35927139Y-35562160D01*
X35927630Y-35593972D01*
X35921643Y-35636866D01*
X35910357Y-35682558D01*
X35894950Y-35722761D01*
X35894171Y-35724322D01*
X35847804Y-35789062D01*
X35787711Y-35833097D01*
X35719465Y-35854711D01*
X35648638Y-35852185D01*
X35580804Y-35823804D01*
X35577788Y-35821808D01*
X35524427Y-35773448D01*
X35489340Y-35710352D01*
X35469922Y-35627387D01*
X35467316Y-35604078D01*
X35462701Y-35494055D01*
X35468233Y-35442748D01*
X35607514Y-35442748D01*
X35609324Y-35474753D01*
X35619222Y-35484093D01*
X35643898Y-35477105D01*
X35682795Y-35460587D01*
X35726275Y-35439881D01*
X35727356Y-35439333D01*
X35764209Y-35419949D01*
X35779000Y-35407013D01*
X35775353Y-35393451D01*
X35759995Y-35375632D01*
X35720923Y-35349845D01*
X35678846Y-35347950D01*
X35641103Y-35366717D01*
X35615034Y-35402915D01*
X35607514Y-35442748D01*
X35468233Y-35442748D01*
X35472194Y-35406027D01*
X35496550Y-35336212D01*
X35530456Y-35287302D01*
X35591653Y-35237878D01*
X35659063Y-35213359D01*
X35727880Y-35211797D01*
X35793303Y-35231239D01*
G37*
X37664744Y-35250968D02*
X37721616Y-35272087D01*
X37722267Y-35272493D01*
X37757440Y-35298380D01*
X37783407Y-35328633D01*
X37801670Y-35368058D01*
X37813732Y-35421462D01*
X37821096Y-35493651D01*
X37825264Y-35589432D01*
X37825629Y-35603078D01*
X37830876Y-35808842D01*
X37786716Y-35831678D01*
X37754763Y-35847110D01*
X37735470Y-35854423D01*
X37734578Y-35854514D01*
X37731239Y-35841022D01*
X37728587Y-35804626D01*
X37726956Y-35751452D01*
X37726600Y-35708393D01*
X37726592Y-35638641D01*
X37723403Y-35594837D01*
X37712288Y-35573944D01*
X37688501Y-35572925D01*
X37647296Y-35588741D01*
X37585086Y-35617815D01*
X37539341Y-35641963D01*
X37515813Y-35662913D01*
X37508896Y-35685747D01*
X37508886Y-35686877D01*
X37520299Y-35726212D01*
X37554092Y-35747462D01*
X37605809Y-35750539D01*
X37643061Y-35750006D01*
X37662703Y-35760735D01*
X37674952Y-35786505D01*
X37682002Y-35819337D01*
X37671842Y-35837966D01*
X37668017Y-35840632D01*
X37632001Y-35851340D01*
X37581566Y-35852856D01*
X37529626Y-35845759D01*
X37492822Y-35832788D01*
X37441938Y-35789585D01*
X37413014Y-35729446D01*
X37407286Y-35682462D01*
X37411657Y-35640082D01*
X37427475Y-35605488D01*
X37458797Y-35574763D01*
X37509678Y-35543990D01*
X37584176Y-35509252D01*
X37588714Y-35507288D01*
X37655821Y-35476287D01*
X37697232Y-35450862D01*
X37714981Y-35428014D01*
X37711107Y-35404745D01*
X37687643Y-35378056D01*
X37680627Y-35371914D01*
X37633630Y-35348100D01*
X37584933Y-35349103D01*
X37542522Y-35372451D01*
X37514384Y-35415675D01*
X37511769Y-35424160D01*
X37486308Y-35465308D01*
X37454001Y-35485128D01*
X37407286Y-35504770D01*
X37407286Y-35453950D01*
X37421496Y-35380082D01*
X37463675Y-35312327D01*
X37485624Y-35289661D01*
X37535517Y-35260569D01*
X37598967Y-35247400D01*
X37664744Y-35250968D01*
G36*
X37664744Y-35250968D02*
G01*
X37721616Y-35272087D01*
X37722267Y-35272493D01*
X37757440Y-35298380D01*
X37783407Y-35328633D01*
X37801670Y-35368058D01*
X37813732Y-35421462D01*
X37821096Y-35493651D01*
X37825264Y-35589432D01*
X37825629Y-35603078D01*
X37830876Y-35808842D01*
X37786716Y-35831678D01*
X37754763Y-35847110D01*
X37735470Y-35854423D01*
X37734578Y-35854514D01*
X37731239Y-35841022D01*
X37728587Y-35804626D01*
X37726956Y-35751452D01*
X37726600Y-35708393D01*
X37726592Y-35638641D01*
X37723403Y-35594837D01*
X37712288Y-35573944D01*
X37688501Y-35572925D01*
X37647296Y-35588741D01*
X37585086Y-35617815D01*
X37539341Y-35641963D01*
X37515813Y-35662913D01*
X37508896Y-35685747D01*
X37508886Y-35686877D01*
X37520299Y-35726212D01*
X37554092Y-35747462D01*
X37605809Y-35750539D01*
X37643061Y-35750006D01*
X37662703Y-35760735D01*
X37674952Y-35786505D01*
X37682002Y-35819337D01*
X37671842Y-35837966D01*
X37668017Y-35840632D01*
X37632001Y-35851340D01*
X37581566Y-35852856D01*
X37529626Y-35845759D01*
X37492822Y-35832788D01*
X37441938Y-35789585D01*
X37413014Y-35729446D01*
X37407286Y-35682462D01*
X37411657Y-35640082D01*
X37427475Y-35605488D01*
X37458797Y-35574763D01*
X37509678Y-35543990D01*
X37584176Y-35509252D01*
X37588714Y-35507288D01*
X37655821Y-35476287D01*
X37697232Y-35450862D01*
X37714981Y-35428014D01*
X37711107Y-35404745D01*
X37687643Y-35378056D01*
X37680627Y-35371914D01*
X37633630Y-35348100D01*
X37584933Y-35349103D01*
X37542522Y-35372451D01*
X37514384Y-35415675D01*
X37511769Y-35424160D01*
X37486308Y-35465308D01*
X37454001Y-35485128D01*
X37407286Y-35504770D01*
X37407286Y-35453950D01*
X37421496Y-35380082D01*
X37463675Y-35312327D01*
X37485624Y-35289661D01*
X37535517Y-35260569D01*
X37598967Y-35247400D01*
X37664744Y-35250968D01*
G37*
X35224744Y-35219918D02*
X35280201Y-35247568D01*
X35329148Y-35298480D01*
X35342629Y-35317338D01*
X35357314Y-35342015D01*
X35366842Y-35368816D01*
X35372293Y-35404587D01*
X35374747Y-35456169D01*
X35375286Y-35524267D01*
X35372852Y-35617588D01*
X35364394Y-35687657D01*
X35348174Y-35739931D01*
X35322454Y-35779869D01*
X35285497Y-35812929D01*
X35282782Y-35814886D01*
X35246360Y-35834908D01*
X35202502Y-35844815D01*
X35146724Y-35847257D01*
X35056048Y-35847257D01*
X35056010Y-35935283D01*
X35055166Y-35984308D01*
X35050024Y-36013065D01*
X35036587Y-36030311D01*
X35010858Y-36044808D01*
X35004679Y-36047769D01*
X34975764Y-36061648D01*
X34953376Y-36070414D01*
X34936729Y-36071171D01*
X34925036Y-36061023D01*
X34917510Y-36037073D01*
X34913366Y-35996426D01*
X34911815Y-35936186D01*
X34912071Y-35853455D01*
X34913349Y-35745339D01*
X34913748Y-35713000D01*
X34915185Y-35601524D01*
X34916472Y-35528603D01*
X35055971Y-35528603D01*
X35056755Y-35590499D01*
X35060240Y-35630997D01*
X35068124Y-35657708D01*
X35082105Y-35678244D01*
X35091597Y-35688260D01*
X35130404Y-35717567D01*
X35164763Y-35719952D01*
X35200216Y-35695750D01*
X35201114Y-35694857D01*
X35215539Y-35676153D01*
X35224313Y-35650732D01*
X35228739Y-35611584D01*
X35230118Y-35551697D01*
X35230143Y-35538430D01*
X35226812Y-35455901D01*
X35215969Y-35398691D01*
X35196340Y-35363766D01*
X35166650Y-35348094D01*
X35149491Y-35346514D01*
X35108766Y-35353926D01*
X35080832Y-35378330D01*
X35064017Y-35422980D01*
X35056650Y-35491130D01*
X35055971Y-35528603D01*
X34916472Y-35528603D01*
X34916708Y-35515245D01*
X34918677Y-35450333D01*
X34921450Y-35402958D01*
X34925388Y-35369290D01*
X34930849Y-35345498D01*
X34938192Y-35327753D01*
X34947777Y-35312224D01*
X34951887Y-35306381D01*
X35006405Y-35251185D01*
X35075336Y-35219890D01*
X35155072Y-35211165D01*
X35224744Y-35219918D01*
G36*
X35224744Y-35219918D02*
G01*
X35280201Y-35247568D01*
X35329148Y-35298480D01*
X35342629Y-35317338D01*
X35357314Y-35342015D01*
X35366842Y-35368816D01*
X35372293Y-35404587D01*
X35374747Y-35456169D01*
X35375286Y-35524267D01*
X35372852Y-35617588D01*
X35364394Y-35687657D01*
X35348174Y-35739931D01*
X35322454Y-35779869D01*
X35285497Y-35812929D01*
X35282782Y-35814886D01*
X35246360Y-35834908D01*
X35202502Y-35844815D01*
X35146724Y-35847257D01*
X35056048Y-35847257D01*
X35056010Y-35935283D01*
X35055166Y-35984308D01*
X35050024Y-36013065D01*
X35036587Y-36030311D01*
X35010858Y-36044808D01*
X35004679Y-36047769D01*
X34975764Y-36061648D01*
X34953376Y-36070414D01*
X34936729Y-36071171D01*
X34925036Y-36061023D01*
X34917510Y-36037073D01*
X34913366Y-35996426D01*
X34911815Y-35936186D01*
X34912071Y-35853455D01*
X34913349Y-35745339D01*
X34913748Y-35713000D01*
X34915185Y-35601524D01*
X34916472Y-35528603D01*
X35055971Y-35528603D01*
X35056755Y-35590499D01*
X35060240Y-35630997D01*
X35068124Y-35657708D01*
X35082105Y-35678244D01*
X35091597Y-35688260D01*
X35130404Y-35717567D01*
X35164763Y-35719952D01*
X35200216Y-35695750D01*
X35201114Y-35694857D01*
X35215539Y-35676153D01*
X35224313Y-35650732D01*
X35228739Y-35611584D01*
X35230118Y-35551697D01*
X35230143Y-35538430D01*
X35226812Y-35455901D01*
X35215969Y-35398691D01*
X35196340Y-35363766D01*
X35166650Y-35348094D01*
X35149491Y-35346514D01*
X35108766Y-35353926D01*
X35080832Y-35378330D01*
X35064017Y-35422980D01*
X35056650Y-35491130D01*
X35055971Y-35528603D01*
X34916472Y-35528603D01*
X34916708Y-35515245D01*
X34918677Y-35450333D01*
X34921450Y-35402958D01*
X34925388Y-35369290D01*
X34930849Y-35345498D01*
X34938192Y-35327753D01*
X34947777Y-35312224D01*
X34951887Y-35306381D01*
X35006405Y-35251185D01*
X35075336Y-35219890D01*
X35155072Y-35211165D01*
X35224744Y-35219918D01*
G37*
X39769876Y-35256335D02*
X39811667Y-35275344D01*
X39844469Y-35298378D01*
X39868503Y-35324133D01*
X39885097Y-35357358D01*
X39895577Y-35402800D01*
X39901271Y-35465207D01*
X39903507Y-35549327D01*
X39903743Y-35604721D01*
X39903743Y-35820826D01*
X39866774Y-35837670D01*
X39837656Y-35849981D01*
X39823231Y-35854514D01*
X39820472Y-35841025D01*
X39818282Y-35804653D01*
X39816942Y-35751542D01*
X39816657Y-35709372D01*
X39815434Y-35648447D01*
X39812136Y-35600115D01*
X39807321Y-35570518D01*
X39803496Y-35564229D01*
X39777783Y-35570652D01*
X39737418Y-35587125D01*
X39690679Y-35609458D01*
X39645845Y-35633457D01*
X39611193Y-35654930D01*
X39595002Y-35669685D01*
X39594938Y-35669845D01*
X39596330Y-35697152D01*
X39608818Y-35723219D01*
X39630743Y-35744392D01*
X39662743Y-35751474D01*
X39690092Y-35750649D01*
X39728826Y-35750042D01*
X39749158Y-35759116D01*
X39761369Y-35783092D01*
X39762909Y-35787613D01*
X39768203Y-35821806D01*
X39754047Y-35842568D01*
X39717148Y-35852462D01*
X39677289Y-35854292D01*
X39605562Y-35840727D01*
X39568432Y-35821355D01*
X39522576Y-35775845D01*
X39498256Y-35719983D01*
X39496073Y-35660957D01*
X39516629Y-35605953D01*
X39547549Y-35571486D01*
X39578420Y-35552189D01*
X39626942Y-35527759D01*
X39683485Y-35502985D01*
X39692910Y-35499199D01*
X39755019Y-35471791D01*
X39790822Y-35447634D01*
X39802337Y-35423619D01*
X39791580Y-35396635D01*
X39773114Y-35375543D01*
X39729469Y-35349572D01*
X39681446Y-35347624D01*
X39637406Y-35367637D01*
X39605709Y-35407551D01*
X39601549Y-35417848D01*
X39577327Y-35455724D01*
X39541965Y-35483842D01*
X39497343Y-35506917D01*
X39497343Y-35441485D01*
X39499969Y-35401506D01*
X39511230Y-35369997D01*
X39536199Y-35336378D01*
X39560169Y-35310484D01*
X39597441Y-35273817D01*
X39626401Y-35254121D01*
X39657505Y-35246220D01*
X39692713Y-35244914D01*
X39769876Y-35256335D01*
G36*
X39769876Y-35256335D02*
G01*
X39811667Y-35275344D01*
X39844469Y-35298378D01*
X39868503Y-35324133D01*
X39885097Y-35357358D01*
X39895577Y-35402800D01*
X39901271Y-35465207D01*
X39903507Y-35549327D01*
X39903743Y-35604721D01*
X39903743Y-35820826D01*
X39866774Y-35837670D01*
X39837656Y-35849981D01*
X39823231Y-35854514D01*
X39820472Y-35841025D01*
X39818282Y-35804653D01*
X39816942Y-35751542D01*
X39816657Y-35709372D01*
X39815434Y-35648447D01*
X39812136Y-35600115D01*
X39807321Y-35570518D01*
X39803496Y-35564229D01*
X39777783Y-35570652D01*
X39737418Y-35587125D01*
X39690679Y-35609458D01*
X39645845Y-35633457D01*
X39611193Y-35654930D01*
X39595002Y-35669685D01*
X39594938Y-35669845D01*
X39596330Y-35697152D01*
X39608818Y-35723219D01*
X39630743Y-35744392D01*
X39662743Y-35751474D01*
X39690092Y-35750649D01*
X39728826Y-35750042D01*
X39749158Y-35759116D01*
X39761369Y-35783092D01*
X39762909Y-35787613D01*
X39768203Y-35821806D01*
X39754047Y-35842568D01*
X39717148Y-35852462D01*
X39677289Y-35854292D01*
X39605562Y-35840727D01*
X39568432Y-35821355D01*
X39522576Y-35775845D01*
X39498256Y-35719983D01*
X39496073Y-35660957D01*
X39516629Y-35605953D01*
X39547549Y-35571486D01*
X39578420Y-35552189D01*
X39626942Y-35527759D01*
X39683485Y-35502985D01*
X39692910Y-35499199D01*
X39755019Y-35471791D01*
X39790822Y-35447634D01*
X39802337Y-35423619D01*
X39791580Y-35396635D01*
X39773114Y-35375543D01*
X39729469Y-35349572D01*
X39681446Y-35347624D01*
X39637406Y-35367637D01*
X39605709Y-35407551D01*
X39601549Y-35417848D01*
X39577327Y-35455724D01*
X39541965Y-35483842D01*
X39497343Y-35506917D01*
X39497343Y-35441485D01*
X39499969Y-35401506D01*
X39511230Y-35369997D01*
X39536199Y-35336378D01*
X39560169Y-35310484D01*
X39597441Y-35273817D01*
X39626401Y-35254121D01*
X39657505Y-35246220D01*
X39692713Y-35244914D01*
X39769876Y-35256335D01*
G37*
X37728910Y-30542348D02*
X37807454Y-30542778D01*
X37864298Y-30543942D01*
X37903105Y-30546207D01*
X37927538Y-30549940D01*
X37941262Y-30555506D01*
X37947940Y-30563273D01*
X37951236Y-30573605D01*
X37951556Y-30574943D01*
X37956562Y-30599079D01*
X37965829Y-30646701D01*
X37978392Y-30712741D01*
X37993287Y-30792128D01*
X38009551Y-30879796D01*
X38010119Y-30882875D01*
X38026410Y-30968789D01*
X38041652Y-31044696D01*
X38054861Y-31106045D01*
X38065054Y-31148282D01*
X38071248Y-31166855D01*
X38071543Y-31167184D01*
X38089788Y-31176253D01*
X38127405Y-31191367D01*
X38176271Y-31209262D01*
X38176543Y-31209358D01*
X38238093Y-31232493D01*
X38310657Y-31261965D01*
X38379057Y-31291597D01*
X38382294Y-31293062D01*
X38493702Y-31343626D01*
X38740399Y-31175160D01*
X38816077Y-31123803D01*
X38884631Y-31077889D01*
X38942088Y-31040030D01*
X38984476Y-31012837D01*
X39007825Y-30998921D01*
X39010042Y-30997889D01*
X39027010Y-31002484D01*
X39058701Y-31024655D01*
X39106352Y-31065447D01*
X39171198Y-31125905D01*
X39237397Y-31190227D01*
X39301214Y-31253612D01*
X39358329Y-31311451D01*
X39405305Y-31360175D01*
X39438703Y-31396210D01*
X39455085Y-31415984D01*
X39455694Y-31417002D01*
X39457505Y-31430572D01*
X39450683Y-31452733D01*
X39433540Y-31486478D01*
X39404393Y-31534800D01*
X39361555Y-31600692D01*
X39304448Y-31685517D01*
X39253766Y-31760177D01*
X39208461Y-31827140D01*
X39171150Y-31882516D01*
X39144452Y-31922420D01*
X39130985Y-31942962D01*
X39130137Y-31944356D01*
X39131781Y-31964038D01*
X39144245Y-32002293D01*
X39165048Y-32051889D01*
X39172462Y-32067728D01*
X39204814Y-32138290D01*
X39239328Y-32218353D01*
X39267365Y-32287629D01*
X39287568Y-32339045D01*
X39303615Y-32378119D01*
X39312888Y-32398541D01*
X39314041Y-32400114D01*
X39331096Y-32402721D01*
X39371298Y-32409863D01*
X39429302Y-32420523D01*
X39499763Y-32433685D01*
X39577335Y-32448333D01*
X39656672Y-32463449D01*
X39732431Y-32478018D01*
X39799264Y-32491022D01*
X39851828Y-32501445D01*
X39884776Y-32508270D01*
X39892857Y-32510199D01*
X39901205Y-32514962D01*
X39907506Y-32525718D01*
X39912045Y-32546098D01*
X39915104Y-32579734D01*
X39916967Y-32630255D01*
X39917918Y-32701292D01*
X39918240Y-32796476D01*
X39918257Y-32835492D01*
X39918257Y-33152799D01*
X39842057Y-33167839D01*
X39799663Y-33175995D01*
X39736400Y-33187899D01*
X39659962Y-33202116D01*
X39578043Y-33217210D01*
X39555400Y-33221355D01*
X39479806Y-33236053D01*
X39413953Y-33250505D01*
X39363366Y-33263375D01*
X39333574Y-33273322D01*
X39328612Y-33276287D01*
X39316426Y-33297283D01*
X39298953Y-33337967D01*
X39279577Y-33390322D01*
X39275734Y-33401600D01*
X39250339Y-33471523D01*
X39218817Y-33550418D01*
X39187969Y-33621266D01*
X39187817Y-33621595D01*
X39136447Y-33732733D01*
X39305399Y-33981253D01*
X39474352Y-34229772D01*
X39257429Y-34447058D01*
X39191819Y-34511726D01*
X39131979Y-34568733D01*
X39081267Y-34615033D01*
X39043046Y-34647584D01*
X39020675Y-34663343D01*
X39017466Y-34664343D01*
X38998626Y-34656469D01*
X38960180Y-34634578D01*
X38906330Y-34601267D01*
X38841276Y-34559131D01*
X38770940Y-34511943D01*
X38699555Y-34463810D01*
X38635908Y-34421928D01*
X38584041Y-34388871D01*
X38547995Y-34367218D01*
X38531867Y-34359543D01*
X38512189Y-34366037D01*
X38474875Y-34383150D01*
X38427621Y-34407326D01*
X38422612Y-34410013D01*
X38358977Y-34441927D01*
X38315341Y-34457579D01*
X38288202Y-34457745D01*
X38274057Y-34443204D01*
X38273975Y-34443000D01*
X38266905Y-34425779D01*
X38250042Y-34384899D01*
X38224695Y-34323525D01*
X38192171Y-34244819D01*
X38153778Y-34151947D01*
X38110822Y-34048072D01*
X38069222Y-33947502D01*
X38023504Y-33836516D01*
X37981526Y-33733703D01*
X37944548Y-33642215D01*
X37913827Y-33565201D01*
X37890622Y-33505815D01*
X37876190Y-33467209D01*
X37871743Y-33452800D01*
X37882896Y-33436272D01*
X37912069Y-33409930D01*
X37950971Y-33380887D01*
X38061757Y-33289039D01*
X38148351Y-33183759D01*
X38209716Y-33067266D01*
X38244815Y-32941776D01*
X38252608Y-32809507D01*
X38246943Y-32748457D01*
X38216078Y-32621795D01*
X38162920Y-32509941D01*
X38090767Y-32414001D01*
X38002917Y-32335076D01*
X37902665Y-32274270D01*
X37793310Y-32232687D01*
X37678147Y-32211428D01*
X37560475Y-32211599D01*
X37443590Y-32234301D01*
X37330789Y-32280638D01*
X37225369Y-32351713D01*
X37181368Y-32391911D01*
X37096979Y-32495129D01*
X37038222Y-32607925D01*
X37004704Y-32727010D01*
X36996035Y-32849095D01*
X37011823Y-32970893D01*
X37051678Y-33089116D01*
X37115207Y-33200475D01*
X37202021Y-33301684D01*
X37299029Y-33380887D01*
X37339437Y-33411162D01*
X37367982Y-33437219D01*
X37378257Y-33452825D01*
X37372877Y-33469843D01*
X37357575Y-33510500D01*
X37333612Y-33571642D01*
X37302244Y-33650119D01*
X37264732Y-33742780D01*
X37222333Y-33846472D01*
X37180663Y-33947526D01*
X37134690Y-34058607D01*
X37092107Y-34161541D01*
X37054221Y-34253165D01*
X37022340Y-34330316D01*
X36997771Y-34389831D01*
X36981820Y-34428544D01*
X36975910Y-34443000D01*
X36961948Y-34457685D01*
X36934940Y-34457642D01*
X36891413Y-34442099D01*
X36827890Y-34410284D01*
X36827388Y-34410013D01*
X36779560Y-34385323D01*
X36740897Y-34367338D01*
X36719095Y-34359614D01*
X36718133Y-34359543D01*
X36701721Y-34367378D01*
X36665487Y-34389165D01*
X36613474Y-34422328D01*
X36549725Y-34464291D01*
X36479060Y-34511943D01*
X36407116Y-34560191D01*
X36342274Y-34602151D01*
X36288735Y-34635227D01*
X36250697Y-34656821D01*
X36232533Y-34664343D01*
X36215808Y-34654457D01*
X36182180Y-34626826D01*
X36135010Y-34584495D01*
X36077658Y-34530505D01*
X36013484Y-34467899D01*
X35992497Y-34446983D01*
X35775499Y-34229623D01*
X35940668Y-33987220D01*
X35990864Y-33912781D01*
X36034919Y-33845972D01*
X36070362Y-33790665D01*
X36094719Y-33750729D01*
X36105522Y-33730036D01*
X36105838Y-33728563D01*
X36100143Y-33709058D01*
X36084826Y-33669822D01*
X36062537Y-33617430D01*
X36046893Y-33582355D01*
X36017641Y-33515201D01*
X35990094Y-33447358D01*
X35968737Y-33390034D01*
X35962935Y-33372572D01*
X35946452Y-33325938D01*
X35930340Y-33289905D01*
X35921490Y-33276287D01*
X35901960Y-33267952D01*
X35859334Y-33256137D01*
X35799145Y-33242181D01*
X35726922Y-33227422D01*
X35694600Y-33221355D01*
X35612522Y-33206273D01*
X35533795Y-33191669D01*
X35466109Y-33178980D01*
X35417160Y-33169642D01*
X35407943Y-33167839D01*
X35331743Y-33152799D01*
X35331743Y-32835492D01*
X35331914Y-32731154D01*
X35332616Y-32652213D01*
X35334134Y-32595038D01*
X35336749Y-32555999D01*
X35340746Y-32531465D01*
X35346409Y-32517805D01*
X35354020Y-32511389D01*
X35357143Y-32510199D01*
X35375978Y-32505980D01*
X35417588Y-32497562D01*
X35476630Y-32485961D01*
X35547757Y-32472195D01*
X35625625Y-32457280D01*
X35704887Y-32442232D01*
X35780198Y-32428069D01*
X35846213Y-32415806D01*
X35897587Y-32406461D01*
X35928975Y-32401050D01*
X35935959Y-32400114D01*
X35942285Y-32387596D01*
X35956290Y-32354246D01*
X35975355Y-32306377D01*
X35982634Y-32287629D01*
X36011996Y-32215195D01*
X36046571Y-32135170D01*
X36077537Y-32067728D01*
X36100323Y-32016159D01*
X36115482Y-31973785D01*
X36120542Y-31947834D01*
X36119736Y-31944356D01*
X36109041Y-31927936D01*
X36084620Y-31891417D01*
X36049095Y-31838687D01*
X36005087Y-31773635D01*
X35955217Y-31700151D01*
X35945356Y-31685645D01*
X35887492Y-31599704D01*
X35844956Y-31534261D01*
X35816054Y-31486304D01*
X35799090Y-31452820D01*
X35792367Y-31430795D01*
X35794190Y-31417217D01*
X35794236Y-31417131D01*
X35808586Y-31399297D01*
X35840323Y-31364817D01*
X35886010Y-31317268D01*
X35942204Y-31260222D01*
X36005468Y-31197255D01*
X36012602Y-31190227D01*
X36092330Y-31113020D01*
X36153857Y-31056330D01*
X36198421Y-31019110D01*
X36227257Y-31000315D01*
X36239958Y-30997889D01*
X36258494Y-31008471D01*
X36296961Y-31032916D01*
X36351386Y-31068612D01*
X36417798Y-31112947D01*
X36492225Y-31163311D01*
X36509601Y-31175160D01*
X36756297Y-31343626D01*
X36867706Y-31293062D01*
X36935457Y-31263595D01*
X37008183Y-31233959D01*
X37070703Y-31210330D01*
X37073457Y-31209358D01*
X37122360Y-31191457D01*
X37160057Y-31176320D01*
X37178425Y-31167210D01*
X37178456Y-31167184D01*
X37184285Y-31150717D01*
X37194192Y-31110219D01*
X37207195Y-31050242D01*
X37222309Y-30975340D01*
X37238552Y-30890064D01*
X37239881Y-30882875D01*
X37256175Y-30795014D01*
X37271133Y-30715260D01*
X37283791Y-30648681D01*
X37293186Y-30600347D01*
X37298354Y-30575325D01*
X37298444Y-30574943D01*
X37301589Y-30564299D01*
X37307704Y-30556262D01*
X37320453Y-30550467D01*
X37343500Y-30546547D01*
X37380509Y-30544135D01*
X37435144Y-30542865D01*
X37511067Y-30542371D01*
X37611944Y-30542286D01*
X37625000Y-30542286D01*
X37728910Y-30542348D01*
G36*
X37728910Y-30542348D02*
G01*
X37807454Y-30542778D01*
X37864298Y-30543942D01*
X37903105Y-30546207D01*
X37927538Y-30549940D01*
X37941262Y-30555506D01*
X37947940Y-30563273D01*
X37951236Y-30573605D01*
X37951556Y-30574943D01*
X37956562Y-30599079D01*
X37965829Y-30646701D01*
X37978392Y-30712741D01*
X37993287Y-30792128D01*
X38009551Y-30879796D01*
X38010119Y-30882875D01*
X38026410Y-30968789D01*
X38041652Y-31044696D01*
X38054861Y-31106045D01*
X38065054Y-31148282D01*
X38071248Y-31166855D01*
X38071543Y-31167184D01*
X38089788Y-31176253D01*
X38127405Y-31191367D01*
X38176271Y-31209262D01*
X38176543Y-31209358D01*
X38238093Y-31232493D01*
X38310657Y-31261965D01*
X38379057Y-31291597D01*
X38382294Y-31293062D01*
X38493702Y-31343626D01*
X38740399Y-31175160D01*
X38816077Y-31123803D01*
X38884631Y-31077889D01*
X38942088Y-31040030D01*
X38984476Y-31012837D01*
X39007825Y-30998921D01*
X39010042Y-30997889D01*
X39027010Y-31002484D01*
X39058701Y-31024655D01*
X39106352Y-31065447D01*
X39171198Y-31125905D01*
X39237397Y-31190227D01*
X39301214Y-31253612D01*
X39358329Y-31311451D01*
X39405305Y-31360175D01*
X39438703Y-31396210D01*
X39455085Y-31415984D01*
X39455694Y-31417002D01*
X39457505Y-31430572D01*
X39450683Y-31452733D01*
X39433540Y-31486478D01*
X39404393Y-31534800D01*
X39361555Y-31600692D01*
X39304448Y-31685517D01*
X39253766Y-31760177D01*
X39208461Y-31827140D01*
X39171150Y-31882516D01*
X39144452Y-31922420D01*
X39130985Y-31942962D01*
X39130137Y-31944356D01*
X39131781Y-31964038D01*
X39144245Y-32002293D01*
X39165048Y-32051889D01*
X39172462Y-32067728D01*
X39204814Y-32138290D01*
X39239328Y-32218353D01*
X39267365Y-32287629D01*
X39287568Y-32339045D01*
X39303615Y-32378119D01*
X39312888Y-32398541D01*
X39314041Y-32400114D01*
X39331096Y-32402721D01*
X39371298Y-32409863D01*
X39429302Y-32420523D01*
X39499763Y-32433685D01*
X39577335Y-32448333D01*
X39656672Y-32463449D01*
X39732431Y-32478018D01*
X39799264Y-32491022D01*
X39851828Y-32501445D01*
X39884776Y-32508270D01*
X39892857Y-32510199D01*
X39901205Y-32514962D01*
X39907506Y-32525718D01*
X39912045Y-32546098D01*
X39915104Y-32579734D01*
X39916967Y-32630255D01*
X39917918Y-32701292D01*
X39918240Y-32796476D01*
X39918257Y-32835492D01*
X39918257Y-33152799D01*
X39842057Y-33167839D01*
X39799663Y-33175995D01*
X39736400Y-33187899D01*
X39659962Y-33202116D01*
X39578043Y-33217210D01*
X39555400Y-33221355D01*
X39479806Y-33236053D01*
X39413953Y-33250505D01*
X39363366Y-33263375D01*
X39333574Y-33273322D01*
X39328612Y-33276287D01*
X39316426Y-33297283D01*
X39298953Y-33337967D01*
X39279577Y-33390322D01*
X39275734Y-33401600D01*
X39250339Y-33471523D01*
X39218817Y-33550418D01*
X39187969Y-33621266D01*
X39187817Y-33621595D01*
X39136447Y-33732733D01*
X39305399Y-33981253D01*
X39474352Y-34229772D01*
X39257429Y-34447058D01*
X39191819Y-34511726D01*
X39131979Y-34568733D01*
X39081267Y-34615033D01*
X39043046Y-34647584D01*
X39020675Y-34663343D01*
X39017466Y-34664343D01*
X38998626Y-34656469D01*
X38960180Y-34634578D01*
X38906330Y-34601267D01*
X38841276Y-34559131D01*
X38770940Y-34511943D01*
X38699555Y-34463810D01*
X38635908Y-34421928D01*
X38584041Y-34388871D01*
X38547995Y-34367218D01*
X38531867Y-34359543D01*
X38512189Y-34366037D01*
X38474875Y-34383150D01*
X38427621Y-34407326D01*
X38422612Y-34410013D01*
X38358977Y-34441927D01*
X38315341Y-34457579D01*
X38288202Y-34457745D01*
X38274057Y-34443204D01*
X38273975Y-34443000D01*
X38266905Y-34425779D01*
X38250042Y-34384899D01*
X38224695Y-34323525D01*
X38192171Y-34244819D01*
X38153778Y-34151947D01*
X38110822Y-34048072D01*
X38069222Y-33947502D01*
X38023504Y-33836516D01*
X37981526Y-33733703D01*
X37944548Y-33642215D01*
X37913827Y-33565201D01*
X37890622Y-33505815D01*
X37876190Y-33467209D01*
X37871743Y-33452800D01*
X37882896Y-33436272D01*
X37912069Y-33409930D01*
X37950971Y-33380887D01*
X38061757Y-33289039D01*
X38148351Y-33183759D01*
X38209716Y-33067266D01*
X38244815Y-32941776D01*
X38252608Y-32809507D01*
X38246943Y-32748457D01*
X38216078Y-32621795D01*
X38162920Y-32509941D01*
X38090767Y-32414001D01*
X38002917Y-32335076D01*
X37902665Y-32274270D01*
X37793310Y-32232687D01*
X37678147Y-32211428D01*
X37560475Y-32211599D01*
X37443590Y-32234301D01*
X37330789Y-32280638D01*
X37225369Y-32351713D01*
X37181368Y-32391911D01*
X37096979Y-32495129D01*
X37038222Y-32607925D01*
X37004704Y-32727010D01*
X36996035Y-32849095D01*
X37011823Y-32970893D01*
X37051678Y-33089116D01*
X37115207Y-33200475D01*
X37202021Y-33301684D01*
X37299029Y-33380887D01*
X37339437Y-33411162D01*
X37367982Y-33437219D01*
X37378257Y-33452825D01*
X37372877Y-33469843D01*
X37357575Y-33510500D01*
X37333612Y-33571642D01*
X37302244Y-33650119D01*
X37264732Y-33742780D01*
X37222333Y-33846472D01*
X37180663Y-33947526D01*
X37134690Y-34058607D01*
X37092107Y-34161541D01*
X37054221Y-34253165D01*
X37022340Y-34330316D01*
X36997771Y-34389831D01*
X36981820Y-34428544D01*
X36975910Y-34443000D01*
X36961948Y-34457685D01*
X36934940Y-34457642D01*
X36891413Y-34442099D01*
X36827890Y-34410284D01*
X36827388Y-34410013D01*
X36779560Y-34385323D01*
X36740897Y-34367338D01*
X36719095Y-34359614D01*
X36718133Y-34359543D01*
X36701721Y-34367378D01*
X36665487Y-34389165D01*
X36613474Y-34422328D01*
X36549725Y-34464291D01*
X36479060Y-34511943D01*
X36407116Y-34560191D01*
X36342274Y-34602151D01*
X36288735Y-34635227D01*
X36250697Y-34656821D01*
X36232533Y-34664343D01*
X36215808Y-34654457D01*
X36182180Y-34626826D01*
X36135010Y-34584495D01*
X36077658Y-34530505D01*
X36013484Y-34467899D01*
X35992497Y-34446983D01*
X35775499Y-34229623D01*
X35940668Y-33987220D01*
X35990864Y-33912781D01*
X36034919Y-33845972D01*
X36070362Y-33790665D01*
X36094719Y-33750729D01*
X36105522Y-33730036D01*
X36105838Y-33728563D01*
X36100143Y-33709058D01*
X36084826Y-33669822D01*
X36062537Y-33617430D01*
X36046893Y-33582355D01*
X36017641Y-33515201D01*
X35990094Y-33447358D01*
X35968737Y-33390034D01*
X35962935Y-33372572D01*
X35946452Y-33325938D01*
X35930340Y-33289905D01*
X35921490Y-33276287D01*
X35901960Y-33267952D01*
X35859334Y-33256137D01*
X35799145Y-33242181D01*
X35726922Y-33227422D01*
X35694600Y-33221355D01*
X35612522Y-33206273D01*
X35533795Y-33191669D01*
X35466109Y-33178980D01*
X35417160Y-33169642D01*
X35407943Y-33167839D01*
X35331743Y-33152799D01*
X35331743Y-32835492D01*
X35331914Y-32731154D01*
X35332616Y-32652213D01*
X35334134Y-32595038D01*
X35336749Y-32555999D01*
X35340746Y-32531465D01*
X35346409Y-32517805D01*
X35354020Y-32511389D01*
X35357143Y-32510199D01*
X35375978Y-32505980D01*
X35417588Y-32497562D01*
X35476630Y-32485961D01*
X35547757Y-32472195D01*
X35625625Y-32457280D01*
X35704887Y-32442232D01*
X35780198Y-32428069D01*
X35846213Y-32415806D01*
X35897587Y-32406461D01*
X35928975Y-32401050D01*
X35935959Y-32400114D01*
X35942285Y-32387596D01*
X35956290Y-32354246D01*
X35975355Y-32306377D01*
X35982634Y-32287629D01*
X36011996Y-32215195D01*
X36046571Y-32135170D01*
X36077537Y-32067728D01*
X36100323Y-32016159D01*
X36115482Y-31973785D01*
X36120542Y-31947834D01*
X36119736Y-31944356D01*
X36109041Y-31927936D01*
X36084620Y-31891417D01*
X36049095Y-31838687D01*
X36005087Y-31773635D01*
X35955217Y-31700151D01*
X35945356Y-31685645D01*
X35887492Y-31599704D01*
X35844956Y-31534261D01*
X35816054Y-31486304D01*
X35799090Y-31452820D01*
X35792367Y-31430795D01*
X35794190Y-31417217D01*
X35794236Y-31417131D01*
X35808586Y-31399297D01*
X35840323Y-31364817D01*
X35886010Y-31317268D01*
X35942204Y-31260222D01*
X36005468Y-31197255D01*
X36012602Y-31190227D01*
X36092330Y-31113020D01*
X36153857Y-31056330D01*
X36198421Y-31019110D01*
X36227257Y-31000315D01*
X36239958Y-30997889D01*
X36258494Y-31008471D01*
X36296961Y-31032916D01*
X36351386Y-31068612D01*
X36417798Y-31112947D01*
X36492225Y-31163311D01*
X36509601Y-31175160D01*
X36756297Y-31343626D01*
X36867706Y-31293062D01*
X36935457Y-31263595D01*
X37008183Y-31233959D01*
X37070703Y-31210330D01*
X37073457Y-31209358D01*
X37122360Y-31191457D01*
X37160057Y-31176320D01*
X37178425Y-31167210D01*
X37178456Y-31167184D01*
X37184285Y-31150717D01*
X37194192Y-31110219D01*
X37207195Y-31050242D01*
X37222309Y-30975340D01*
X37238552Y-30890064D01*
X37239881Y-30882875D01*
X37256175Y-30795014D01*
X37271133Y-30715260D01*
X37283791Y-30648681D01*
X37293186Y-30600347D01*
X37298354Y-30575325D01*
X37298444Y-30574943D01*
X37301589Y-30564299D01*
X37307704Y-30556262D01*
X37320453Y-30550467D01*
X37343500Y-30546547D01*
X37380509Y-30544135D01*
X37435144Y-30542865D01*
X37511067Y-30542371D01*
X37611944Y-30542286D01*
X37625000Y-30542286D01*
X37728910Y-30542348D01*
G37*
D11*
%TO.C,R106*%
X65962258Y-52477500D02*
X65487742Y-52477500D01*
X65962258Y-53522500D02*
X65487742Y-53522500D01*
%TO.C,R103*%
X43737258Y-25677500D02*
X43262742Y-25677500D01*
X43737258Y-26722500D02*
X43262742Y-26722500D01*
%TO.C,D105*%
X40490000Y-44150000D02*
X40490000Y-47450000D01*
X40490000Y-44150000D02*
X46000000Y-44150000D01*
X40490000Y-47450000D02*
X46000000Y-47450000D01*
%TO.C,R107*%
X73237742Y-45077500D02*
X73712258Y-45077500D01*
X73237742Y-46122500D02*
X73712258Y-46122500D01*
D14*
%TO.C,U103*%
X65642500Y-51600000D02*
X65642500Y-51500000D01*
X65647500Y-47020000D02*
X73557500Y-47020000D01*
X65647500Y-47120000D02*
X65647500Y-47020000D01*
X65647500Y-48960000D02*
X65647500Y-49660000D01*
X73557500Y-47020000D02*
X73557500Y-47120000D01*
X73557500Y-48960000D02*
X73557500Y-49660000D01*
X73557500Y-51500000D02*
X73557500Y-51600000D01*
X73557500Y-51600000D02*
X65642500Y-51600000D01*
D15*
X65297500Y-46800000D02*
G75*
G02*
X64997500Y-46800000I-150000J0D01*
G01*
X64997500Y-46800000D02*
G75*
G02*
X65297500Y-46800000I150000J0D01*
G01*
X66297500Y-47520000D02*
G75*
G02*
X65997500Y-47520000I-150000J0D01*
G01*
X65997500Y-47520000D02*
G75*
G02*
X66297500Y-47520000I150000J0D01*
G01*
%TD*%
%LPC*%
D16*
%TO.C,R101*%
X44325000Y-24000000D03*
X42675000Y-24000000D03*
%TD*%
%TO.C,R104*%
X44325000Y-30600000D03*
X42675000Y-30600000D03*
%TD*%
D17*
%TO.C,H104*%
X85000000Y-65000000D03*
%TD*%
D18*
%TO.C,D104*%
X47737500Y-30600000D03*
X45862500Y-30600000D03*
%TD*%
D19*
%TO.C,F101*%
X34825000Y-45800000D03*
X39100000Y-45800000D03*
%TD*%
D20*
%TO.C,J102*%
X25705000Y-42500000D03*
D21*
X25705000Y-47500000D03*
%TD*%
D20*
%TO.C,J105*%
X67400000Y-64300000D03*
D21*
X72400000Y-64300000D03*
%TD*%
D17*
%TO.C,H102*%
X85000000Y-25000000D03*
%TD*%
%TO.C,H101*%
X25000000Y-25000000D03*
%TD*%
D20*
%TO.C,J104*%
X56200000Y-64300000D03*
D21*
X61200000Y-64300000D03*
%TD*%
D18*
%TO.C,D101*%
X47737500Y-24000000D03*
X45862500Y-24000000D03*
%TD*%
D22*
%TO.C,U101*%
X55640000Y-28200000D03*
D23*
X55640000Y-30740000D03*
X55640000Y-33280000D03*
X55640000Y-35820000D03*
X55640000Y-38360000D03*
X55640000Y-40900000D03*
X55640000Y-43440000D03*
X55640000Y-45980000D03*
X78500000Y-45980000D03*
X78500000Y-43440000D03*
X78500000Y-40900000D03*
X78500000Y-38360000D03*
X78500000Y-35820000D03*
X78500000Y-33280000D03*
X78500000Y-30740000D03*
X78500000Y-28200000D03*
%TD*%
D20*
%TO.C,J103*%
X25705000Y-53700000D03*
D21*
X25705000Y-58700000D03*
%TD*%
D20*
%TO.C,J101*%
X25705000Y-31300000D03*
D21*
X25705000Y-36300000D03*
%TD*%
D24*
%TO.C,Q101*%
X50825000Y-46750000D03*
X50825000Y-44850000D03*
X48950000Y-45800000D03*
%TD*%
D25*
%TO.C,D102*%
X45862500Y-28400000D03*
X47737500Y-28400000D03*
%TD*%
D26*
%TO.C,R105*%
X53000000Y-46750000D03*
X53000000Y-48400000D03*
%TD*%
D27*
%TO.C,R102*%
X42675000Y-28400000D03*
X44325000Y-28400000D03*
%TD*%
D17*
%TO.C,K101*%
X44000000Y-50200000D03*
D28*
X37950000Y-52150000D03*
D17*
X37950000Y-64350000D03*
X50000000Y-64400000D03*
D28*
X49950000Y-52150000D03*
%TD*%
D18*
%TO.C,D103*%
X47737500Y-26200000D03*
X45862500Y-26200000D03*
%TD*%
D16*
%TO.C,R106*%
X66550000Y-53000000D03*
X64900000Y-53000000D03*
%TD*%
D17*
%TO.C,H103*%
X25000000Y-65000000D03*
%TD*%
D16*
%TO.C,R103*%
X44325000Y-26200000D03*
X42675000Y-26200000D03*
%TD*%
D29*
%TO.C,D105*%
X42000000Y-45800000D03*
X46000000Y-45800000D03*
%TD*%
D27*
%TO.C,R107*%
X72650000Y-45600000D03*
X74300000Y-45600000D03*
%TD*%
D30*
%TO.C,U103*%
X64907500Y-48040000D03*
X64907500Y-50580000D03*
X74297500Y-50580000D03*
X74297500Y-48040000D03*
%TD*%
%LPD*%
M02*
