%TF.GenerationSoftware,KiCad,Pcbnew,8.0.4-8.0.4-0~ubuntu22.04.1*%
%TF.CreationDate,2024-08-18T10:29:15-05:00*%
%TF.ProjectId,Doorbell with External ESP8266,446f6f72-6265-46c6-9c20-776974682045,v1.1*%
%TF.SameCoordinates,Original*%
%TF.FileFunction,Legend,Bot*%
%TF.FilePolarity,Positive*%
%FSLAX46Y46*%
G04 Gerber Fmt 4.6, Leading zero omitted, Abs format (unit mm)*
G04 Created by KiCad (PCBNEW 8.0.4-8.0.4-0~ubuntu22.04.1) date 2024-08-18 10:29:15*
%MOMM*%
%LPD*%
G01*
G04 APERTURE LIST*
%ADD10C,0.153000*%
%ADD11C,3.000000*%
%ADD12R,2.600000X2.600000*%
%ADD13C,2.600000*%
%ADD14R,2.000000X2.000000*%
%ADD15O,2.000000X1.600000*%
%ADD16C,2.500000*%
G04 APERTURE END LIST*
D10*
X43375533Y-21269663D02*
X43375533Y-21983948D01*
X43375533Y-21983948D02*
X43423152Y-22126805D01*
X43423152Y-22126805D02*
X43518390Y-22222044D01*
X43518390Y-22222044D02*
X43661247Y-22269663D01*
X43661247Y-22269663D02*
X43756485Y-22269663D01*
X42423152Y-22269663D02*
X42899342Y-22269663D01*
X42899342Y-22269663D02*
X42899342Y-21269663D01*
X41518390Y-22174424D02*
X41566009Y-22222044D01*
X41566009Y-22222044D02*
X41708866Y-22269663D01*
X41708866Y-22269663D02*
X41804104Y-22269663D01*
X41804104Y-22269663D02*
X41946961Y-22222044D01*
X41946961Y-22222044D02*
X42042199Y-22126805D01*
X42042199Y-22126805D02*
X42089818Y-22031567D01*
X42089818Y-22031567D02*
X42137437Y-21841091D01*
X42137437Y-21841091D02*
X42137437Y-21698234D01*
X42137437Y-21698234D02*
X42089818Y-21507758D01*
X42089818Y-21507758D02*
X42042199Y-21412520D01*
X42042199Y-21412520D02*
X41946961Y-21317282D01*
X41946961Y-21317282D02*
X41804104Y-21269663D01*
X41804104Y-21269663D02*
X41708866Y-21269663D01*
X41708866Y-21269663D02*
X41566009Y-21317282D01*
X41566009Y-21317282D02*
X41518390Y-21364901D01*
X40804104Y-21269663D02*
X40804104Y-21983948D01*
X40804104Y-21983948D02*
X40851723Y-22126805D01*
X40851723Y-22126805D02*
X40946961Y-22222044D01*
X40946961Y-22222044D02*
X41089818Y-22269663D01*
X41089818Y-22269663D02*
X41185056Y-22269663D01*
X39851723Y-22269663D02*
X40327913Y-22269663D01*
X40327913Y-22269663D02*
X40327913Y-21269663D01*
X38946961Y-22174424D02*
X38994580Y-22222044D01*
X38994580Y-22222044D02*
X39137437Y-22269663D01*
X39137437Y-22269663D02*
X39232675Y-22269663D01*
X39232675Y-22269663D02*
X39375532Y-22222044D01*
X39375532Y-22222044D02*
X39470770Y-22126805D01*
X39470770Y-22126805D02*
X39518389Y-22031567D01*
X39518389Y-22031567D02*
X39566008Y-21841091D01*
X39566008Y-21841091D02*
X39566008Y-21698234D01*
X39566008Y-21698234D02*
X39518389Y-21507758D01*
X39518389Y-21507758D02*
X39470770Y-21412520D01*
X39470770Y-21412520D02*
X39375532Y-21317282D01*
X39375532Y-21317282D02*
X39232675Y-21269663D01*
X39232675Y-21269663D02*
X39137437Y-21269663D01*
X39137437Y-21269663D02*
X38994580Y-21317282D01*
X38994580Y-21317282D02*
X38946961Y-21364901D01*
X38232675Y-21269663D02*
X38232675Y-21983948D01*
X38232675Y-21983948D02*
X38280294Y-22126805D01*
X38280294Y-22126805D02*
X38375532Y-22222044D01*
X38375532Y-22222044D02*
X38518389Y-22269663D01*
X38518389Y-22269663D02*
X38613627Y-22269663D01*
X37280294Y-22269663D02*
X37756484Y-22269663D01*
X37756484Y-22269663D02*
X37756484Y-21269663D01*
X36375532Y-22174424D02*
X36423151Y-22222044D01*
X36423151Y-22222044D02*
X36566008Y-22269663D01*
X36566008Y-22269663D02*
X36661246Y-22269663D01*
X36661246Y-22269663D02*
X36804103Y-22222044D01*
X36804103Y-22222044D02*
X36899341Y-22126805D01*
X36899341Y-22126805D02*
X36946960Y-22031567D01*
X36946960Y-22031567D02*
X36994579Y-21841091D01*
X36994579Y-21841091D02*
X36994579Y-21698234D01*
X36994579Y-21698234D02*
X36946960Y-21507758D01*
X36946960Y-21507758D02*
X36899341Y-21412520D01*
X36899341Y-21412520D02*
X36804103Y-21317282D01*
X36804103Y-21317282D02*
X36661246Y-21269663D01*
X36661246Y-21269663D02*
X36566008Y-21269663D01*
X36566008Y-21269663D02*
X36423151Y-21317282D01*
X36423151Y-21317282D02*
X36375532Y-21364901D01*
X35661246Y-21269663D02*
X35661246Y-21983948D01*
X35661246Y-21983948D02*
X35708865Y-22126805D01*
X35708865Y-22126805D02*
X35804103Y-22222044D01*
X35804103Y-22222044D02*
X35946960Y-22269663D01*
X35946960Y-22269663D02*
X36042198Y-22269663D01*
X34708865Y-22269663D02*
X35185055Y-22269663D01*
X35185055Y-22269663D02*
X35185055Y-21269663D01*
X33804103Y-22174424D02*
X33851722Y-22222044D01*
X33851722Y-22222044D02*
X33994579Y-22269663D01*
X33994579Y-22269663D02*
X34089817Y-22269663D01*
X34089817Y-22269663D02*
X34232674Y-22222044D01*
X34232674Y-22222044D02*
X34327912Y-22126805D01*
X34327912Y-22126805D02*
X34375531Y-22031567D01*
X34375531Y-22031567D02*
X34423150Y-21841091D01*
X34423150Y-21841091D02*
X34423150Y-21698234D01*
X34423150Y-21698234D02*
X34375531Y-21507758D01*
X34375531Y-21507758D02*
X34327912Y-21412520D01*
X34327912Y-21412520D02*
X34232674Y-21317282D01*
X34232674Y-21317282D02*
X34089817Y-21269663D01*
X34089817Y-21269663D02*
X33994579Y-21269663D01*
X33994579Y-21269663D02*
X33851722Y-21317282D01*
X33851722Y-21317282D02*
X33804103Y-21364901D01*
%LPC*%
D11*
%TO.C,H104*%
X85000000Y-65000000D03*
%TD*%
D12*
%TO.C,J102*%
X25705000Y-42500000D03*
D13*
X25705000Y-47500000D03*
%TD*%
D12*
%TO.C,J105*%
X67400000Y-64300000D03*
D13*
X72400000Y-64300000D03*
%TD*%
D11*
%TO.C,H102*%
X85000000Y-25000000D03*
%TD*%
%TO.C,H101*%
X25000000Y-25000000D03*
%TD*%
D12*
%TO.C,J104*%
X56200000Y-64300000D03*
D13*
X61200000Y-64300000D03*
%TD*%
D14*
%TO.C,U101*%
X55640000Y-28200000D03*
D15*
X55640000Y-30740000D03*
X55640000Y-33280000D03*
X55640000Y-35820000D03*
X55640000Y-38360000D03*
X55640000Y-40900000D03*
X55640000Y-43440000D03*
X55640000Y-45980000D03*
X78500000Y-45980000D03*
X78500000Y-43440000D03*
X78500000Y-40900000D03*
X78500000Y-38360000D03*
X78500000Y-35820000D03*
X78500000Y-33280000D03*
X78500000Y-30740000D03*
X78500000Y-28200000D03*
%TD*%
D12*
%TO.C,J103*%
X25705000Y-53700000D03*
D13*
X25705000Y-58700000D03*
%TD*%
D12*
%TO.C,J101*%
X25705000Y-31300000D03*
D13*
X25705000Y-36300000D03*
%TD*%
D11*
%TO.C,K101*%
X44000000Y-50200000D03*
D16*
X37950000Y-52150000D03*
D11*
X37950000Y-64350000D03*
X50000000Y-64400000D03*
D16*
X49950000Y-52150000D03*
%TD*%
D11*
%TO.C,H103*%
X25000000Y-65000000D03*
%TD*%
%LPD*%
M02*
