M48
; DRILL file {KiCad 8.0.4-8.0.4-0~ubuntu22.04.1} date 2024-08-18T10:29:15-0500
; FORMAT={-:-/ absolute / inch / decimal}
; #@! TF.CreationDate,2024-08-18T10:29:15-05:00
; #@! TF.GenerationSoftware,Kicad,Pcbnew,8.0.4-8.0.4-0~ubuntu22.04.1
; #@! TF.FileFunction,Plated,1,4,PTH
FMAT,2
INCH
; #@! TA.AperFunction,Plated,PTH,ViaDrill
T1C0.0157
; #@! TA.AperFunction,Plated,PTH,ComponentDrill
T2C0.0394
; #@! TA.AperFunction,Plated,PTH,ComponentDrill
T3C0.0512
%
G90
G05
T1
X1.1781Y-2.1142
X1.6299Y-0.9449
X1.6299Y-1.0315
X1.6299Y-1.1181
X1.6299Y-1.2047
X1.6535Y-1.7087
X1.8794Y-0.878
X2.001Y-1.7096
X2.0866Y-1.9587
X2.2717Y-1.811
X2.5551Y-1.8031
X2.9252Y-2.0787
X3.0197Y-1.7126
T2
X1.4941Y-2.0531
X1.9665Y-2.0531
X2.1906Y-1.1102
X2.1906Y-1.2102
X2.1906Y-1.3102
X2.1906Y-1.4102
X2.1906Y-1.5102
X2.1906Y-1.6102
X2.1906Y-1.7102
X2.1906Y-1.8102
X3.0906Y-1.1102
X3.0906Y-1.2102
X3.0906Y-1.3102
X3.0906Y-1.4102
X3.0906Y-1.5102
X3.0906Y-1.6102
X3.0906Y-1.7102
X3.0906Y-1.8102
T3
X1.012Y-1.2323
X1.012Y-1.4291
X1.012Y-1.6732
X1.012Y-1.8701
X1.012Y-2.1142
X1.012Y-2.311
X1.4941Y-2.5335
X1.7323Y-1.9764
X1.9685Y-2.5354
X2.2126Y-2.5315
X2.4094Y-2.5315
X2.6535Y-2.5315
X2.8504Y-2.5315
M30
