%TF.GenerationSoftware,KiCad,Pcbnew,8.0.4-8.0.4-0~ubuntu22.04.1*%
%TF.CreationDate,2024-08-18T10:29:15-05:00*%
%TF.ProjectId,Doorbell with External ESP8266,446f6f72-6265-46c6-9c20-776974682045,v1.1*%
%TF.SameCoordinates,Original*%
%TF.FileFunction,Soldermask,Top*%
%TF.FilePolarity,Negative*%
%FSLAX46Y46*%
G04 Gerber Fmt 4.6, Leading zero omitted, Abs format (unit mm)*
G04 Created by KiCad (PCBNEW 8.0.4-8.0.4-0~ubuntu22.04.1) date 2024-08-18 10:29:15*
%MOMM*%
%LPD*%
G01*
G04 APERTURE LIST*
G04 Aperture macros list*
%AMRoundRect*
0 Rectangle with rounded corners*
0 $1 Rounding radius*
0 $2 $3 $4 $5 $6 $7 $8 $9 X,Y pos of 4 corners*
0 Add a 4 corners polygon primitive as box body*
4,1,4,$2,$3,$4,$5,$6,$7,$8,$9,$2,$3,0*
0 Add four circle primitives for the rounded corners*
1,1,$1+$1,$2,$3*
1,1,$1+$1,$4,$5*
1,1,$1+$1,$6,$7*
1,1,$1+$1,$8,$9*
0 Add four rect primitives between the rounded corners*
20,1,$1+$1,$2,$3,$4,$5,0*
20,1,$1+$1,$4,$5,$6,$7,0*
20,1,$1+$1,$6,$7,$8,$9,0*
20,1,$1+$1,$8,$9,$2,$3,0*%
G04 Aperture macros list end*
%ADD10RoundRect,0.200000X0.200000X0.275000X-0.200000X0.275000X-0.200000X-0.275000X0.200000X-0.275000X0*%
%ADD11C,3.000000*%
%ADD12RoundRect,0.243750X0.243750X0.456250X-0.243750X0.456250X-0.243750X-0.456250X0.243750X-0.456250X0*%
%ADD13RoundRect,0.250000X-0.312500X-1.450000X0.312500X-1.450000X0.312500X1.450000X-0.312500X1.450000X0*%
%ADD14R,2.600000X2.600000*%
%ADD15C,2.600000*%
%ADD16R,2.000000X2.000000*%
%ADD17O,2.000000X1.600000*%
%ADD18RoundRect,0.150000X0.587500X0.150000X-0.587500X0.150000X-0.587500X-0.150000X0.587500X-0.150000X0*%
%ADD19RoundRect,0.243750X-0.243750X-0.456250X0.243750X-0.456250X0.243750X0.456250X-0.243750X0.456250X0*%
%ADD20RoundRect,0.200000X-0.275000X0.200000X-0.275000X-0.200000X0.275000X-0.200000X0.275000X0.200000X0*%
%ADD21RoundRect,0.200000X-0.200000X-0.275000X0.200000X-0.275000X0.200000X0.275000X-0.200000X0.275000X0*%
%ADD22C,2.500000*%
%ADD23RoundRect,0.250000X-1.000000X-0.650000X1.000000X-0.650000X1.000000X0.650000X-1.000000X0.650000X0*%
%ADD24R,1.680000X1.710000*%
G04 APERTURE END LIST*
D10*
%TO.C,R101*%
X44325000Y-24000000D03*
X42675000Y-24000000D03*
%TD*%
%TO.C,R104*%
X44325000Y-30600000D03*
X42675000Y-30600000D03*
%TD*%
D11*
%TO.C,H104*%
X85000000Y-65000000D03*
%TD*%
D12*
%TO.C,D104*%
X47737500Y-30600000D03*
X45862500Y-30600000D03*
%TD*%
D13*
%TO.C,F101*%
X34825000Y-45800000D03*
X39100000Y-45800000D03*
%TD*%
D14*
%TO.C,J102*%
X25705000Y-42500000D03*
D15*
X25705000Y-47500000D03*
%TD*%
D14*
%TO.C,J105*%
X67400000Y-64300000D03*
D15*
X72400000Y-64300000D03*
%TD*%
D11*
%TO.C,H102*%
X85000000Y-25000000D03*
%TD*%
%TO.C,H101*%
X25000000Y-25000000D03*
%TD*%
D14*
%TO.C,J104*%
X56200000Y-64300000D03*
D15*
X61200000Y-64300000D03*
%TD*%
D12*
%TO.C,D101*%
X47737500Y-24000000D03*
X45862500Y-24000000D03*
%TD*%
D16*
%TO.C,U101*%
X55640000Y-28200000D03*
D17*
X55640000Y-30740000D03*
X55640000Y-33280000D03*
X55640000Y-35820000D03*
X55640000Y-38360000D03*
X55640000Y-40900000D03*
X55640000Y-43440000D03*
X55640000Y-45980000D03*
X78500000Y-45980000D03*
X78500000Y-43440000D03*
X78500000Y-40900000D03*
X78500000Y-38360000D03*
X78500000Y-35820000D03*
X78500000Y-33280000D03*
X78500000Y-30740000D03*
X78500000Y-28200000D03*
%TD*%
D14*
%TO.C,J103*%
X25705000Y-53700000D03*
D15*
X25705000Y-58700000D03*
%TD*%
D14*
%TO.C,J101*%
X25705000Y-31300000D03*
D15*
X25705000Y-36300000D03*
%TD*%
D18*
%TO.C,Q101*%
X50825000Y-46750000D03*
X50825000Y-44850000D03*
X48950000Y-45800000D03*
%TD*%
D19*
%TO.C,D102*%
X45862500Y-28400000D03*
X47737500Y-28400000D03*
%TD*%
D20*
%TO.C,R105*%
X53000000Y-46750000D03*
X53000000Y-48400000D03*
%TD*%
D21*
%TO.C,R102*%
X42675000Y-28400000D03*
X44325000Y-28400000D03*
%TD*%
D11*
%TO.C,K101*%
X44000000Y-50200000D03*
D22*
X37950000Y-52150000D03*
D11*
X37950000Y-64350000D03*
X50000000Y-64400000D03*
D22*
X49950000Y-52150000D03*
%TD*%
D12*
%TO.C,D103*%
X47737500Y-26200000D03*
X45862500Y-26200000D03*
%TD*%
D10*
%TO.C,R106*%
X66550000Y-53000000D03*
X64900000Y-53000000D03*
%TD*%
D11*
%TO.C,H103*%
X25000000Y-65000000D03*
%TD*%
D10*
%TO.C,R103*%
X44325000Y-26200000D03*
X42675000Y-26200000D03*
%TD*%
D23*
%TO.C,D105*%
X42000000Y-45800000D03*
X46000000Y-45800000D03*
%TD*%
D21*
%TO.C,R107*%
X72650000Y-45600000D03*
X74300000Y-45600000D03*
%TD*%
D24*
%TO.C,U103*%
X64907500Y-48040000D03*
X64907500Y-50580000D03*
X74297500Y-50580000D03*
X74297500Y-48040000D03*
%TD*%
M02*
