%TF.GenerationSoftware,KiCad,Pcbnew,8.0.4-8.0.4-0~ubuntu22.04.1*%
%TF.CreationDate,2024-08-18T10:29:15-05:00*%
%TF.ProjectId,Doorbell with External ESP8266,446f6f72-6265-46c6-9c20-776974682045,v1.1*%
%TF.SameCoordinates,Original*%
%TF.FileFunction,Copper,L1,Top*%
%TF.FilePolarity,Positive*%
%FSLAX46Y46*%
G04 Gerber Fmt 4.6, Leading zero omitted, Abs format (unit mm)*
G04 Created by KiCad (PCBNEW 8.0.4-8.0.4-0~ubuntu22.04.1) date 2024-08-18 10:29:15*
%MOMM*%
%LPD*%
G01*
G04 APERTURE LIST*
G04 Aperture macros list*
%AMRoundRect*
0 Rectangle with rounded corners*
0 $1 Rounding radius*
0 $2 $3 $4 $5 $6 $7 $8 $9 X,Y pos of 4 corners*
0 Add a 4 corners polygon primitive as box body*
4,1,4,$2,$3,$4,$5,$6,$7,$8,$9,$2,$3,0*
0 Add four circle primitives for the rounded corners*
1,1,$1+$1,$2,$3*
1,1,$1+$1,$4,$5*
1,1,$1+$1,$6,$7*
1,1,$1+$1,$8,$9*
0 Add four rect primitives between the rounded corners*
20,1,$1+$1,$2,$3,$4,$5,0*
20,1,$1+$1,$4,$5,$6,$7,0*
20,1,$1+$1,$6,$7,$8,$9,0*
20,1,$1+$1,$8,$9,$2,$3,0*%
G04 Aperture macros list end*
%TA.AperFunction,SMDPad,CuDef*%
%ADD10RoundRect,0.200000X0.200000X0.275000X-0.200000X0.275000X-0.200000X-0.275000X0.200000X-0.275000X0*%
%TD*%
%TA.AperFunction,SMDPad,CuDef*%
%ADD11RoundRect,0.243750X0.243750X0.456250X-0.243750X0.456250X-0.243750X-0.456250X0.243750X-0.456250X0*%
%TD*%
%TA.AperFunction,SMDPad,CuDef*%
%ADD12RoundRect,0.250000X-0.312500X-1.450000X0.312500X-1.450000X0.312500X1.450000X-0.312500X1.450000X0*%
%TD*%
%TA.AperFunction,ComponentPad*%
%ADD13R,2.600000X2.600000*%
%TD*%
%TA.AperFunction,ComponentPad*%
%ADD14C,2.600000*%
%TD*%
%TA.AperFunction,ComponentPad*%
%ADD15R,2.000000X2.000000*%
%TD*%
%TA.AperFunction,ComponentPad*%
%ADD16O,2.000000X1.600000*%
%TD*%
%TA.AperFunction,SMDPad,CuDef*%
%ADD17RoundRect,0.150000X0.587500X0.150000X-0.587500X0.150000X-0.587500X-0.150000X0.587500X-0.150000X0*%
%TD*%
%TA.AperFunction,SMDPad,CuDef*%
%ADD18RoundRect,0.243750X-0.243750X-0.456250X0.243750X-0.456250X0.243750X0.456250X-0.243750X0.456250X0*%
%TD*%
%TA.AperFunction,SMDPad,CuDef*%
%ADD19RoundRect,0.200000X-0.275000X0.200000X-0.275000X-0.200000X0.275000X-0.200000X0.275000X0.200000X0*%
%TD*%
%TA.AperFunction,SMDPad,CuDef*%
%ADD20RoundRect,0.200000X-0.200000X-0.275000X0.200000X-0.275000X0.200000X0.275000X-0.200000X0.275000X0*%
%TD*%
%TA.AperFunction,ComponentPad*%
%ADD21C,3.000000*%
%TD*%
%TA.AperFunction,ComponentPad*%
%ADD22C,2.500000*%
%TD*%
%TA.AperFunction,SMDPad,CuDef*%
%ADD23RoundRect,0.250000X-1.000000X-0.650000X1.000000X-0.650000X1.000000X0.650000X-1.000000X0.650000X0*%
%TD*%
%TA.AperFunction,SMDPad,CuDef*%
%ADD24R,1.680000X1.710000*%
%TD*%
%TA.AperFunction,ViaPad*%
%ADD25C,0.800000*%
%TD*%
%TA.AperFunction,Conductor*%
%ADD26C,0.500000*%
%TD*%
%TA.AperFunction,Conductor*%
%ADD27C,0.200000*%
%TD*%
G04 APERTURE END LIST*
D10*
%TO.P,R101,1*%
%TO.N,Net-(D101-A)*%
X44325000Y-24000000D03*
%TO.P,R101,2*%
%TO.N,+3V3*%
X42675000Y-24000000D03*
%TD*%
%TO.P,R104,1*%
%TO.N,Net-(D104-A)*%
X44325000Y-30600000D03*
%TO.P,R104,2*%
%TO.N,+3V3*%
X42675000Y-30600000D03*
%TD*%
D11*
%TO.P,D104,1,K*%
%TO.N,/RELAY_LED*%
X47737500Y-30600000D03*
%TO.P,D104,2,A*%
%TO.N,Net-(D104-A)*%
X45862500Y-30600000D03*
%TD*%
D12*
%TO.P,F101,1*%
%TO.N,Net-(J102-Pin_2)*%
X34825000Y-45800000D03*
%TO.P,F101,2*%
%TO.N,VCC*%
X39100000Y-45800000D03*
%TD*%
D13*
%TO.P,J102,1,Pin_1*%
%TO.N,GND*%
X25705000Y-42500000D03*
D14*
%TO.P,J102,2,Pin_2*%
%TO.N,Net-(J102-Pin_2)*%
X25705000Y-47500000D03*
%TD*%
D13*
%TO.P,J105,1,Pin_1*%
%TO.N,Net-(J105-Pin_1)*%
X67400000Y-64300000D03*
D14*
%TO.P,J105,2,Pin_2*%
%TO.N,GND*%
X72400000Y-64300000D03*
%TD*%
D13*
%TO.P,J104,1,Pin_1*%
%TO.N,Net-(J104-Pin_1)*%
X56200000Y-64300000D03*
D14*
%TO.P,J104,2,Pin_2*%
%TO.N,/AC_B*%
X61200000Y-64300000D03*
%TD*%
D11*
%TO.P,D101,1,K*%
%TO.N,GND*%
X47737500Y-24000000D03*
%TO.P,D101,2,A*%
%TO.N,Net-(D101-A)*%
X45862500Y-24000000D03*
%TD*%
D15*
%TO.P,U101,1,~{RST}*%
%TO.N,unconnected-(U101-~{RST}-Pad1)*%
X55640000Y-28200000D03*
D16*
%TO.P,U101,2,A0*%
%TO.N,unconnected-(U101-A0-Pad2)*%
X55640000Y-30740000D03*
%TO.P,U101,3,D0*%
%TO.N,unconnected-(U101-D0-Pad3)*%
X55640000Y-33280000D03*
%TO.P,U101,4,SCK/D5*%
%TO.N,/HA_STATUS*%
X55640000Y-35820000D03*
%TO.P,U101,5,MISO/D6*%
%TO.N,/CHIME*%
X55640000Y-38360000D03*
%TO.P,U101,6,MOSI/D7*%
%TO.N,unconnected-(U101-MOSI{slash}D7-Pad6)*%
X55640000Y-40900000D03*
%TO.P,U101,7,CS/D8*%
%TO.N,unconnected-(U101-CS{slash}D8-Pad7)*%
X55640000Y-43440000D03*
%TO.P,U101,8,3V3*%
%TO.N,+3V3*%
X55640000Y-45980000D03*
%TO.P,U101,9,5V*%
%TO.N,VCC*%
X78500000Y-45980000D03*
%TO.P,U101,10,GND*%
%TO.N,GND*%
X78500000Y-43440000D03*
%TO.P,U101,11,D4*%
%TO.N,unconnected-(U101-D4-Pad11)*%
X78500000Y-40900000D03*
%TO.P,U101,12,D3*%
%TO.N,unconnected-(U101-D3-Pad12)*%
X78500000Y-38360000D03*
%TO.P,U101,13,SDA/D2*%
%TO.N,/DB_BUTTON*%
X78500000Y-35820000D03*
%TO.P,U101,14,SCL/D1*%
%TO.N,unconnected-(U101-SCL{slash}D1-Pad14)*%
X78500000Y-33280000D03*
%TO.P,U101,15,RX*%
%TO.N,unconnected-(U101-RX-Pad15)*%
X78500000Y-30740000D03*
%TO.P,U101,16,TX*%
%TO.N,/ESP_TX*%
X78500000Y-28200000D03*
%TD*%
D13*
%TO.P,J103,1,Pin_1*%
%TO.N,/AC_A*%
X25705000Y-53700000D03*
D14*
%TO.P,J103,2,Pin_2*%
%TO.N,/AC_B*%
X25705000Y-58700000D03*
%TD*%
D13*
%TO.P,J101,1,Pin_1*%
%TO.N,/AC_A*%
X25705000Y-31300000D03*
D14*
%TO.P,J101,2,Pin_2*%
%TO.N,/AC_B*%
X25705000Y-36300000D03*
%TD*%
D17*
%TO.P,Q101,1,G*%
%TO.N,/CHIME*%
X50825000Y-46750000D03*
%TO.P,Q101,2,S*%
%TO.N,GND*%
X50825000Y-44850000D03*
%TO.P,Q101,3,D*%
%TO.N,/RELAY_LED*%
X48950000Y-45800000D03*
%TD*%
D18*
%TO.P,D102,1,K*%
%TO.N,Net-(D102-K)*%
X45862500Y-28400000D03*
%TO.P,D102,2,A*%
%TO.N,/HA_STATUS*%
X47737500Y-28400000D03*
%TD*%
D19*
%TO.P,R105,1*%
%TO.N,/CHIME*%
X53000000Y-46750000D03*
%TO.P,R105,2*%
%TO.N,GND*%
X53000000Y-48400000D03*
%TD*%
D20*
%TO.P,R102,1*%
%TO.N,GND*%
X42675000Y-28400000D03*
%TO.P,R102,2*%
%TO.N,Net-(D102-K)*%
X44325000Y-28400000D03*
%TD*%
D21*
%TO.P,K101,1*%
%TO.N,/AC_A*%
X44000000Y-50200000D03*
D22*
%TO.P,K101,2*%
%TO.N,VCC*%
X37950000Y-52150000D03*
D21*
%TO.P,K101,3*%
%TO.N,Net-(J104-Pin_1)*%
X37950000Y-64350000D03*
%TO.P,K101,4*%
%TO.N,unconnected-(K101-Pad4)*%
X50000000Y-64400000D03*
D22*
%TO.P,K101,5*%
%TO.N,/RELAY_LED*%
X49950000Y-52150000D03*
%TD*%
D11*
%TO.P,D103,1,K*%
%TO.N,/ESP_TX*%
X47737500Y-26200000D03*
%TO.P,D103,2,A*%
%TO.N,Net-(D103-A)*%
X45862500Y-26200000D03*
%TD*%
D10*
%TO.P,R106,1*%
%TO.N,Net-(J105-Pin_1)*%
X66550000Y-53000000D03*
%TO.P,R106,2*%
%TO.N,Net-(R106-Pad2)*%
X64900000Y-53000000D03*
%TD*%
%TO.P,R103,1*%
%TO.N,Net-(D103-A)*%
X44325000Y-26200000D03*
%TO.P,R103,2*%
%TO.N,+3V3*%
X42675000Y-26200000D03*
%TD*%
D23*
%TO.P,D105,1,K*%
%TO.N,VCC*%
X42000000Y-45800000D03*
%TO.P,D105,2,A*%
%TO.N,/RELAY_LED*%
X46000000Y-45800000D03*
%TD*%
D20*
%TO.P,R107,1*%
%TO.N,+3V3*%
X72650000Y-45600000D03*
%TO.P,R107,2*%
%TO.N,/DB_BUTTON*%
X74300000Y-45600000D03*
%TD*%
D24*
%TO.P,U103,1*%
%TO.N,VCC*%
X64907500Y-48040000D03*
%TO.P,U103,2*%
%TO.N,Net-(R106-Pad2)*%
X64907500Y-50580000D03*
%TO.P,U103,3*%
%TO.N,GND*%
X74297500Y-50580000D03*
%TO.P,U103,4*%
%TO.N,/DB_BUTTON*%
X74297500Y-48040000D03*
%TD*%
D25*
%TO.N,VCC*%
X42000000Y-43400000D03*
X64900000Y-45800000D03*
%TO.N,GND*%
X41400000Y-28400000D03*
X47737500Y-22300000D03*
X76700000Y-43500000D03*
X53000000Y-49750000D03*
X74300000Y-52800000D03*
X50825000Y-43425000D03*
%TO.N,+3V3*%
X41400000Y-30600000D03*
X57700000Y-46000000D03*
X41400000Y-24000000D03*
X41400000Y-26200000D03*
%TO.N,/AC_A*%
X29925000Y-53700000D03*
%TD*%
D26*
%TO.N,VCC*%
X42000000Y-47700000D02*
X42000000Y-45800000D01*
X64900000Y-45800000D02*
X64900000Y-48032500D01*
X64900000Y-48032500D02*
X64907500Y-48040000D01*
X42037500Y-45762500D02*
X42000000Y-45800000D01*
X37950000Y-52150000D02*
X37950000Y-51750000D01*
X37950000Y-51750000D02*
X42000000Y-47700000D01*
X39100000Y-45800000D02*
X42000000Y-45800000D01*
X42000000Y-43400000D02*
X42000000Y-45800000D01*
D27*
%TO.N,GND*%
X50825000Y-44850000D02*
X50825000Y-43425000D01*
X74297500Y-52797500D02*
X74297500Y-50580000D01*
X42675000Y-28400000D02*
X41400000Y-28400000D01*
X47737500Y-24000000D02*
X47737500Y-22300000D01*
X53000000Y-48400000D02*
X53000000Y-49750000D01*
X76760000Y-43440000D02*
X76700000Y-43500000D01*
X74300000Y-52800000D02*
X74297500Y-52797500D01*
X78500000Y-43440000D02*
X76760000Y-43440000D01*
%TO.N,+3V3*%
X71900000Y-45600000D02*
X72650000Y-45600000D01*
X42712500Y-30637500D02*
X42675000Y-30600000D01*
X41400000Y-26200000D02*
X42675000Y-26200000D01*
X41400000Y-24000000D02*
X42675000Y-24000000D01*
X57600000Y-46000000D02*
X57580000Y-45980000D01*
X41400000Y-30600000D02*
X42675000Y-30600000D01*
X57800000Y-46000000D02*
X59000000Y-44800000D01*
X57700000Y-46000000D02*
X57800000Y-46000000D01*
X59000000Y-44800000D02*
X71100000Y-44800000D01*
X71100000Y-44800000D02*
X71900000Y-45600000D01*
X57700000Y-46000000D02*
X57600000Y-46000000D01*
X57580000Y-45980000D02*
X55640000Y-45980000D01*
%TO.N,/RELAY_LED*%
X46000000Y-45800000D02*
X48950000Y-45800000D01*
X46000000Y-35800000D02*
X47737500Y-34062500D01*
D26*
X49950000Y-51650000D02*
X46000000Y-47700000D01*
X49950000Y-52150000D02*
X49950000Y-51650000D01*
D27*
X47737500Y-34062500D02*
X47737500Y-30600000D01*
D26*
X46000000Y-47700000D02*
X46000000Y-45800000D01*
D27*
X46000000Y-45800000D02*
X46000000Y-35800000D01*
%TO.N,Net-(D104-A)*%
X44325000Y-30600000D02*
X45862500Y-30600000D01*
%TO.N,Net-(D101-A)*%
X44325000Y-24000000D02*
X45862500Y-24000000D01*
%TO.N,/HA_STATUS*%
X47737500Y-28400000D02*
X49900000Y-28400000D01*
X53920000Y-35820000D02*
X55640000Y-35820000D01*
X49900000Y-28400000D02*
X52000000Y-30500000D01*
X52000000Y-33900000D02*
X53920000Y-35820000D01*
X52000000Y-30500000D02*
X52000000Y-33900000D01*
%TO.N,Net-(D102-K)*%
X44325000Y-28400000D02*
X45862500Y-28400000D01*
%TO.N,Net-(D103-A)*%
X44325000Y-26200000D02*
X45862500Y-26200000D01*
D26*
%TO.N,Net-(J105-Pin_1)*%
X66550000Y-53000000D02*
X66550000Y-57550000D01*
X67400000Y-58400000D02*
X67400000Y-64300000D01*
X66550000Y-57550000D02*
X67400000Y-58400000D01*
D27*
%TO.N,/ESP_TX*%
X75800000Y-29600000D02*
X77200000Y-28200000D01*
X50525000Y-26200000D02*
X53925000Y-29600000D01*
X77200000Y-28200000D02*
X78500000Y-28200000D01*
X47737500Y-26200000D02*
X50525000Y-26200000D01*
X53925000Y-29600000D02*
X75800000Y-29600000D01*
D26*
%TO.N,Net-(J102-Pin_2)*%
X30350000Y-45800000D02*
X34825000Y-45800000D01*
X25705000Y-47500000D02*
X28650000Y-47500000D01*
X28650000Y-47500000D02*
X30350000Y-45800000D01*
D27*
%TO.N,/DB_BUTTON*%
X77180000Y-35820000D02*
X74300000Y-38700000D01*
X78500000Y-35820000D02*
X77180000Y-35820000D01*
X74300000Y-38700000D02*
X74300000Y-45600000D01*
X74300000Y-45600000D02*
X74300000Y-48037500D01*
X74300000Y-48037500D02*
X74297500Y-48040000D01*
%TO.N,/CHIME*%
X53940000Y-38360000D02*
X55640000Y-38360000D01*
X53000000Y-39300000D02*
X53940000Y-38360000D01*
X53000000Y-46750000D02*
X53000000Y-39300000D01*
X53000000Y-46750000D02*
X50825000Y-46750000D01*
D26*
%TO.N,/AC_A*%
X29925000Y-53700000D02*
X25705000Y-53700000D01*
%TO.N,Net-(R106-Pad2)*%
X64907500Y-50580000D02*
X64907500Y-52992500D01*
D27*
X64907500Y-52992500D02*
X64900000Y-53000000D01*
%TD*%
M02*
