%TF.GenerationSoftware,KiCad,Pcbnew,8.0.4-8.0.4-0~ubuntu22.04.1*%
%TF.CreationDate,2024-08-18T10:29:15-05:00*%
%TF.ProjectId,Doorbell with External ESP8266,446f6f72-6265-46c6-9c20-776974682045,v1.1*%
%TF.SameCoordinates,Original*%
%TF.FileFunction,Copper,L3,Inr*%
%TF.FilePolarity,Positive*%
%FSLAX46Y46*%
G04 Gerber Fmt 4.6, Leading zero omitted, Abs format (unit mm)*
G04 Created by KiCad (PCBNEW 8.0.4-8.0.4-0~ubuntu22.04.1) date 2024-08-18 10:29:15*
%MOMM*%
%LPD*%
G01*
G04 APERTURE LIST*
%TA.AperFunction,ComponentPad*%
%ADD10R,2.600000X2.600000*%
%TD*%
%TA.AperFunction,ComponentPad*%
%ADD11C,2.600000*%
%TD*%
%TA.AperFunction,ComponentPad*%
%ADD12R,2.000000X2.000000*%
%TD*%
%TA.AperFunction,ComponentPad*%
%ADD13O,2.000000X1.600000*%
%TD*%
%TA.AperFunction,ComponentPad*%
%ADD14C,3.000000*%
%TD*%
%TA.AperFunction,ComponentPad*%
%ADD15C,2.500000*%
%TD*%
%TA.AperFunction,ViaPad*%
%ADD16C,0.800000*%
%TD*%
%TA.AperFunction,Conductor*%
%ADD17C,0.500000*%
%TD*%
G04 APERTURE END LIST*
D10*
%TO.N,GND*%
%TO.C,J102*%
X25705000Y-42500000D03*
D11*
%TO.N,Net-(J102-Pin_2)*%
X25705000Y-47500000D03*
%TD*%
D10*
%TO.N,Net-(J105-Pin_1)*%
%TO.C,J105*%
X67400000Y-64300000D03*
D11*
%TO.N,GND*%
X72400000Y-64300000D03*
%TD*%
D10*
%TO.N,Net-(J104-Pin_1)*%
%TO.C,J104*%
X56200000Y-64300000D03*
D11*
%TO.N,/AC_B*%
X61200000Y-64300000D03*
%TD*%
D12*
%TO.N,unconnected-(U101-~{RST}-Pad1)*%
%TO.C,U101*%
X55640000Y-28200000D03*
D13*
%TO.N,unconnected-(U101-A0-Pad2)*%
X55640000Y-30740000D03*
%TO.N,unconnected-(U101-D0-Pad3)*%
X55640000Y-33280000D03*
%TO.N,/HA_STATUS*%
X55640000Y-35820000D03*
%TO.N,/CHIME*%
X55640000Y-38360000D03*
%TO.N,unconnected-(U101-MOSI{slash}D7-Pad6)*%
X55640000Y-40900000D03*
%TO.N,unconnected-(U101-CS{slash}D8-Pad7)*%
X55640000Y-43440000D03*
%TO.N,+3V3*%
X55640000Y-45980000D03*
%TO.N,VCC*%
X78500000Y-45980000D03*
%TO.N,GND*%
X78500000Y-43440000D03*
%TO.N,unconnected-(U101-D4-Pad11)*%
X78500000Y-40900000D03*
%TO.N,unconnected-(U101-D3-Pad12)*%
X78500000Y-38360000D03*
%TO.N,/DB_BUTTON*%
X78500000Y-35820000D03*
%TO.N,unconnected-(U101-SCL{slash}D1-Pad14)*%
X78500000Y-33280000D03*
%TO.N,unconnected-(U101-RX-Pad15)*%
X78500000Y-30740000D03*
%TO.N,/ESP_TX*%
X78500000Y-28200000D03*
%TD*%
D10*
%TO.N,/AC_A*%
%TO.C,J103*%
X25705000Y-53700000D03*
D11*
%TO.N,/AC_B*%
X25705000Y-58700000D03*
%TD*%
D10*
%TO.N,/AC_A*%
%TO.C,J101*%
X25705000Y-31300000D03*
D11*
%TO.N,/AC_B*%
X25705000Y-36300000D03*
%TD*%
D14*
%TO.N,/AC_A*%
%TO.C,K101*%
X44000000Y-50200000D03*
D15*
%TO.N,VCC*%
X37950000Y-52150000D03*
D14*
%TO.N,Net-(J104-Pin_1)*%
X37950000Y-64350000D03*
%TO.N,unconnected-(K101-Pad4)*%
X50000000Y-64400000D03*
D15*
%TO.N,/RELAY_LED*%
X49950000Y-52150000D03*
%TD*%
D16*
%TO.N,VCC*%
X42000000Y-43400000D03*
X64900000Y-45800000D03*
%TO.N,GND*%
X41400000Y-28400000D03*
X47737500Y-22300000D03*
X76700000Y-43500000D03*
X53000000Y-49750000D03*
X74300000Y-52800000D03*
X50825000Y-43425000D03*
%TO.N,+3V3*%
X41400000Y-30600000D03*
X57700000Y-46000000D03*
X41400000Y-24000000D03*
X41400000Y-26200000D03*
%TO.N,/AC_A*%
X29925000Y-53700000D03*
%TD*%
D17*
%TO.N,/AC_B*%
X25705000Y-36300000D02*
X28000000Y-38595000D01*
X28000000Y-38595000D02*
X28000000Y-42250000D01*
X28000000Y-42250000D02*
X30945000Y-45195000D01*
X30945000Y-45195000D02*
X28000000Y-48140000D01*
X28000000Y-48140000D02*
X28000000Y-56405000D01*
X28000000Y-56405000D02*
X25705000Y-58700000D01*
X61200000Y-64300000D02*
X61200000Y-55375000D01*
X61200000Y-55375000D02*
X51020000Y-45195000D01*
X51020000Y-45195000D02*
X30945000Y-45195000D01*
%TO.N,VCC*%
X61250000Y-42150000D02*
X64900000Y-45800000D01*
X43250000Y-42150000D02*
X61250000Y-42150000D01*
X64900000Y-45800000D02*
X76700000Y-45800000D01*
X76700000Y-45800000D02*
X76880000Y-45980000D01*
X42000000Y-43400000D02*
X43250000Y-42150000D01*
X76880000Y-45980000D02*
X78500000Y-45980000D01*
%TO.N,Net-(J104-Pin_1)*%
X37950000Y-64350000D02*
X40300000Y-62000000D01*
X53900000Y-62000000D02*
X56200000Y-64300000D01*
X40300000Y-62000000D02*
X53900000Y-62000000D01*
%TO.N,/AC_A*%
X23100000Y-51095000D02*
X25705000Y-53700000D01*
X23100000Y-33905000D02*
X23100000Y-51095000D01*
X29925000Y-53700000D02*
X35325000Y-48300000D01*
X42100000Y-48300000D02*
X44000000Y-50200000D01*
X35325000Y-48300000D02*
X42100000Y-48300000D01*
X25705000Y-31300000D02*
X23100000Y-33905000D01*
%TD*%
%TA.AperFunction,Conductor*%
%TO.N,+3V3*%
G36*
X81965995Y-20300500D02*
G01*
X81967545Y-20300500D01*
X84952405Y-20300500D01*
X84997294Y-20300500D01*
X85002702Y-20300617D01*
X85404202Y-20318147D01*
X85414937Y-20319087D01*
X85810693Y-20371189D01*
X85821331Y-20373064D01*
X86211043Y-20459462D01*
X86221483Y-20462260D01*
X86602168Y-20582289D01*
X86612315Y-20585982D01*
X86981102Y-20738739D01*
X86990893Y-20743305D01*
X87344942Y-20927611D01*
X87354309Y-20933018D01*
X87549817Y-21057571D01*
X87690959Y-21147488D01*
X87699820Y-21153693D01*
X88016487Y-21396680D01*
X88024774Y-21403634D01*
X88319056Y-21673294D01*
X88326705Y-21680943D01*
X88596365Y-21975225D01*
X88603319Y-21983512D01*
X88846306Y-22300179D01*
X88852511Y-22309040D01*
X89066980Y-22645689D01*
X89072388Y-22655057D01*
X89256691Y-23009099D01*
X89261263Y-23018903D01*
X89414013Y-23387674D01*
X89417713Y-23397840D01*
X89537738Y-23778512D01*
X89540538Y-23788960D01*
X89626933Y-24178660D01*
X89628811Y-24189314D01*
X89680910Y-24585042D01*
X89681853Y-24595818D01*
X89699382Y-24997297D01*
X89699500Y-25002706D01*
X89699500Y-64997293D01*
X89699382Y-65002702D01*
X89681853Y-65404181D01*
X89680910Y-65414957D01*
X89628811Y-65810685D01*
X89626933Y-65821339D01*
X89540538Y-66211039D01*
X89537738Y-66221487D01*
X89417713Y-66602159D01*
X89414013Y-66612325D01*
X89261263Y-66981096D01*
X89256691Y-66990900D01*
X89072388Y-67344942D01*
X89066980Y-67354310D01*
X88852511Y-67690959D01*
X88846306Y-67699820D01*
X88603319Y-68016487D01*
X88596365Y-68024774D01*
X88326705Y-68319056D01*
X88319056Y-68326705D01*
X88024774Y-68596365D01*
X88016487Y-68603319D01*
X87699820Y-68846306D01*
X87690959Y-68852511D01*
X87354310Y-69066980D01*
X87344942Y-69072388D01*
X86990900Y-69256691D01*
X86981096Y-69261263D01*
X86612325Y-69414013D01*
X86602159Y-69417713D01*
X86221487Y-69537738D01*
X86211039Y-69540538D01*
X85821339Y-69626933D01*
X85810685Y-69628811D01*
X85414957Y-69680910D01*
X85404181Y-69681853D01*
X85002703Y-69699382D01*
X84997294Y-69699500D01*
X25002706Y-69699500D01*
X24997297Y-69699382D01*
X24595818Y-69681853D01*
X24585042Y-69680910D01*
X24189314Y-69628811D01*
X24178660Y-69626933D01*
X23788960Y-69540538D01*
X23778512Y-69537738D01*
X23397840Y-69417713D01*
X23387674Y-69414013D01*
X23018903Y-69261263D01*
X23009099Y-69256691D01*
X22655057Y-69072388D01*
X22645689Y-69066980D01*
X22309040Y-68852511D01*
X22300179Y-68846306D01*
X21983512Y-68603319D01*
X21975225Y-68596365D01*
X21680943Y-68326705D01*
X21673294Y-68319056D01*
X21403634Y-68024774D01*
X21396680Y-68016487D01*
X21153693Y-67699820D01*
X21147488Y-67690959D01*
X20933019Y-67354310D01*
X20927611Y-67344942D01*
X20743308Y-66990900D01*
X20738736Y-66981096D01*
X20585982Y-66612315D01*
X20582286Y-66602159D01*
X20574335Y-66576942D01*
X20462260Y-66221483D01*
X20459461Y-66211039D01*
X20451331Y-66174367D01*
X20373064Y-65821331D01*
X20371188Y-65810685D01*
X20366841Y-65777664D01*
X20319087Y-65414937D01*
X20318147Y-65404202D01*
X20300618Y-65002702D01*
X20300500Y-64997293D01*
X20300500Y-64885010D01*
X23245500Y-64885010D01*
X23245500Y-65114989D01*
X23245501Y-65115005D01*
X23275518Y-65343009D01*
X23275519Y-65343014D01*
X23275520Y-65343020D01*
X23299983Y-65434317D01*
X23335046Y-65565175D01*
X23335049Y-65565185D01*
X23423057Y-65777654D01*
X23423061Y-65777664D01*
X23538055Y-65976839D01*
X23678064Y-66159303D01*
X23678070Y-66159310D01*
X23840689Y-66321929D01*
X23840696Y-66321935D01*
X24023160Y-66461944D01*
X24222335Y-66576938D01*
X24222336Y-66576938D01*
X24222339Y-66576940D01*
X24434824Y-66664954D01*
X24656980Y-66724480D01*
X24885004Y-66754500D01*
X24885011Y-66754500D01*
X25114989Y-66754500D01*
X25114996Y-66754500D01*
X25343020Y-66724480D01*
X25565176Y-66664954D01*
X25777661Y-66576940D01*
X25976840Y-66461944D01*
X26159305Y-66321934D01*
X26321934Y-66159305D01*
X26461944Y-65976840D01*
X26576940Y-65777661D01*
X26664954Y-65565176D01*
X26724480Y-65343020D01*
X26754500Y-65114996D01*
X26754500Y-64885004D01*
X26724480Y-64656980D01*
X26664954Y-64434824D01*
X26629818Y-64349998D01*
X35944390Y-64349998D01*
X35944390Y-64350001D01*
X35964804Y-64635433D01*
X36025628Y-64915037D01*
X36025630Y-64915043D01*
X36025631Y-64915046D01*
X36088423Y-65083398D01*
X36125635Y-65183166D01*
X36262770Y-65434309D01*
X36262775Y-65434317D01*
X36434254Y-65663387D01*
X36434270Y-65663405D01*
X36636594Y-65865729D01*
X36636612Y-65865745D01*
X36865682Y-66037224D01*
X36865690Y-66037229D01*
X37116833Y-66174364D01*
X37116832Y-66174364D01*
X37116836Y-66174365D01*
X37116839Y-66174367D01*
X37384954Y-66274369D01*
X37384960Y-66274370D01*
X37384962Y-66274371D01*
X37664566Y-66335195D01*
X37664568Y-66335195D01*
X37664572Y-66335196D01*
X37918220Y-66353337D01*
X37949999Y-66355610D01*
X37950000Y-66355610D01*
X37950001Y-66355610D01*
X37978595Y-66353564D01*
X38235428Y-66335196D01*
X38515046Y-66274369D01*
X38783161Y-66174367D01*
X39034315Y-66037226D01*
X39263395Y-65865739D01*
X39465739Y-65663395D01*
X39637226Y-65434315D01*
X39774367Y-65183161D01*
X39874369Y-64915046D01*
X39924319Y-64685428D01*
X39935195Y-64635433D01*
X39935195Y-64635432D01*
X39935196Y-64635428D01*
X39955610Y-64350000D01*
X39935196Y-64064572D01*
X39927870Y-64030897D01*
X39886495Y-63840696D01*
X39874369Y-63784954D01*
X39821274Y-63642603D01*
X39816291Y-63572913D01*
X39849774Y-63511592D01*
X40574549Y-62786819D01*
X40635872Y-62753334D01*
X40662230Y-62750500D01*
X48521003Y-62750500D01*
X48588042Y-62770185D01*
X48633797Y-62822989D01*
X48643741Y-62892147D01*
X48614716Y-62955703D01*
X48608684Y-62962181D01*
X48484270Y-63086594D01*
X48484254Y-63086612D01*
X48312775Y-63315682D01*
X48312770Y-63315690D01*
X48175635Y-63566833D01*
X48075628Y-63834962D01*
X48014804Y-64114566D01*
X47994390Y-64399998D01*
X47994390Y-64400001D01*
X48014804Y-64685433D01*
X48075628Y-64965037D01*
X48075630Y-64965043D01*
X48075631Y-64965046D01*
X48119774Y-65083398D01*
X48175635Y-65233166D01*
X48312770Y-65484309D01*
X48312775Y-65484317D01*
X48484254Y-65713387D01*
X48484270Y-65713405D01*
X48686594Y-65915729D01*
X48686612Y-65915745D01*
X48915682Y-66087224D01*
X48915690Y-66087229D01*
X49166833Y-66224364D01*
X49166832Y-66224364D01*
X49166836Y-66224365D01*
X49166839Y-66224367D01*
X49434954Y-66324369D01*
X49434960Y-66324370D01*
X49434962Y-66324371D01*
X49714566Y-66385195D01*
X49714568Y-66385195D01*
X49714572Y-66385196D01*
X49968220Y-66403337D01*
X49999999Y-66405610D01*
X50000000Y-66405610D01*
X50000001Y-66405610D01*
X50028595Y-66403564D01*
X50285428Y-66385196D01*
X50565046Y-66324369D01*
X50833161Y-66224367D01*
X51084315Y-66087226D01*
X51313395Y-65915739D01*
X51515739Y-65713395D01*
X51687226Y-65484315D01*
X51824367Y-65233161D01*
X51924369Y-64965046D01*
X51985196Y-64685428D01*
X52005610Y-64400000D01*
X51985196Y-64114572D01*
X51924369Y-63834954D01*
X51824367Y-63566839D01*
X51808650Y-63538056D01*
X51687229Y-63315690D01*
X51687224Y-63315682D01*
X51515745Y-63086612D01*
X51515729Y-63086594D01*
X51391316Y-62962181D01*
X51357831Y-62900858D01*
X51362815Y-62831166D01*
X51404687Y-62775233D01*
X51470151Y-62750816D01*
X51478997Y-62750500D01*
X53537770Y-62750500D01*
X53604809Y-62770185D01*
X53625451Y-62786819D01*
X54363181Y-63524548D01*
X54396666Y-63585871D01*
X54399500Y-63612229D01*
X54399500Y-65647870D01*
X54399501Y-65647876D01*
X54405908Y-65707483D01*
X54456202Y-65842328D01*
X54456206Y-65842335D01*
X54542452Y-65957544D01*
X54542455Y-65957547D01*
X54657664Y-66043793D01*
X54657671Y-66043797D01*
X54792517Y-66094091D01*
X54792516Y-66094091D01*
X54799444Y-66094835D01*
X54852127Y-66100500D01*
X57547872Y-66100499D01*
X57607483Y-66094091D01*
X57742331Y-66043796D01*
X57857546Y-65957546D01*
X57943796Y-65842331D01*
X57994091Y-65707483D01*
X58000500Y-65647873D01*
X58000499Y-62952128D01*
X57994091Y-62892517D01*
X57992542Y-62888365D01*
X57943797Y-62757671D01*
X57943793Y-62757664D01*
X57857547Y-62642455D01*
X57857544Y-62642452D01*
X57742335Y-62556206D01*
X57742328Y-62556202D01*
X57607482Y-62505908D01*
X57607483Y-62505908D01*
X57547883Y-62499501D01*
X57547881Y-62499500D01*
X57547873Y-62499500D01*
X57547865Y-62499500D01*
X55512230Y-62499500D01*
X55445191Y-62479815D01*
X55424549Y-62463181D01*
X54378421Y-61417052D01*
X54378414Y-61417046D01*
X54304729Y-61367812D01*
X54304729Y-61367813D01*
X54255491Y-61334913D01*
X54118917Y-61278343D01*
X54118907Y-61278340D01*
X53973920Y-61249500D01*
X53973918Y-61249500D01*
X40226082Y-61249500D01*
X40226080Y-61249500D01*
X40081092Y-61278340D01*
X40081086Y-61278342D01*
X39944508Y-61334914D01*
X39944496Y-61334921D01*
X39895270Y-61367811D01*
X39895271Y-61367812D01*
X39821581Y-61417049D01*
X38788408Y-62450222D01*
X38727085Y-62483707D01*
X38657394Y-62478723D01*
X38515047Y-62425631D01*
X38235433Y-62364804D01*
X37950001Y-62344390D01*
X37949999Y-62344390D01*
X37664566Y-62364804D01*
X37384962Y-62425628D01*
X37116833Y-62525635D01*
X36865690Y-62662770D01*
X36865682Y-62662775D01*
X36636612Y-62834254D01*
X36636594Y-62834270D01*
X36434270Y-63036594D01*
X36434254Y-63036612D01*
X36262775Y-63265682D01*
X36262770Y-63265690D01*
X36125635Y-63516833D01*
X36025628Y-63784962D01*
X35964804Y-64064566D01*
X35944390Y-64349998D01*
X26629818Y-64349998D01*
X26576940Y-64222339D01*
X26461944Y-64023160D01*
X26321934Y-63840695D01*
X26321929Y-63840689D01*
X26159310Y-63678070D01*
X26159303Y-63678064D01*
X25976839Y-63538055D01*
X25777664Y-63423061D01*
X25777654Y-63423057D01*
X25565185Y-63335049D01*
X25565178Y-63335047D01*
X25565176Y-63335046D01*
X25343020Y-63275520D01*
X25343014Y-63275519D01*
X25343009Y-63275518D01*
X25115005Y-63245501D01*
X25115002Y-63245500D01*
X25114996Y-63245500D01*
X24885004Y-63245500D01*
X24884998Y-63245500D01*
X24884994Y-63245501D01*
X24656990Y-63275518D01*
X24656983Y-63275519D01*
X24656980Y-63275520D01*
X24629445Y-63282898D01*
X24434824Y-63335046D01*
X24434814Y-63335049D01*
X24222345Y-63423057D01*
X24222335Y-63423061D01*
X24023160Y-63538055D01*
X23840696Y-63678064D01*
X23840689Y-63678070D01*
X23678070Y-63840689D01*
X23678064Y-63840696D01*
X23538055Y-64023160D01*
X23423061Y-64222335D01*
X23423057Y-64222345D01*
X23335049Y-64434814D01*
X23335046Y-64434824D01*
X23281294Y-64635433D01*
X23275521Y-64656977D01*
X23275518Y-64656990D01*
X23245501Y-64884994D01*
X23245500Y-64885010D01*
X20300500Y-64885010D01*
X20300500Y-28400000D01*
X40494540Y-28400000D01*
X40514326Y-28588256D01*
X40514327Y-28588259D01*
X40572818Y-28768277D01*
X40572821Y-28768284D01*
X40667467Y-28932216D01*
X40794129Y-29072888D01*
X40947265Y-29184148D01*
X40947270Y-29184151D01*
X41120192Y-29261142D01*
X41120197Y-29261144D01*
X41305354Y-29300500D01*
X41305355Y-29300500D01*
X41494644Y-29300500D01*
X41494646Y-29300500D01*
X41679803Y-29261144D01*
X41852730Y-29184151D01*
X42005871Y-29072888D01*
X42132533Y-28932216D01*
X42227179Y-28768284D01*
X42285674Y-28588256D01*
X42305460Y-28400000D01*
X42285674Y-28211744D01*
X42227179Y-28031716D01*
X42132533Y-27867784D01*
X42005871Y-27727112D01*
X42005870Y-27727111D01*
X41852734Y-27615851D01*
X41852729Y-27615848D01*
X41679807Y-27538857D01*
X41679802Y-27538855D01*
X41534001Y-27507865D01*
X41494646Y-27499500D01*
X41305354Y-27499500D01*
X41272897Y-27506398D01*
X41120197Y-27538855D01*
X41120192Y-27538857D01*
X40947270Y-27615848D01*
X40947265Y-27615851D01*
X40794129Y-27727111D01*
X40667466Y-27867785D01*
X40572821Y-28031715D01*
X40572818Y-28031722D01*
X40514327Y-28211740D01*
X40514326Y-28211744D01*
X40494540Y-28400000D01*
X20300500Y-28400000D01*
X20300500Y-25002706D01*
X20300618Y-24997297D01*
X20302227Y-24960438D01*
X20305520Y-24885010D01*
X23245500Y-24885010D01*
X23245500Y-25114989D01*
X23245501Y-25115005D01*
X23275518Y-25343009D01*
X23275519Y-25343014D01*
X23275520Y-25343020D01*
X23275521Y-25343022D01*
X23335046Y-25565175D01*
X23335049Y-25565185D01*
X23423057Y-25777654D01*
X23423061Y-25777664D01*
X23538055Y-25976839D01*
X23678064Y-26159303D01*
X23678070Y-26159310D01*
X23840689Y-26321929D01*
X23840696Y-26321935D01*
X24023160Y-26461944D01*
X24222335Y-26576938D01*
X24222336Y-26576938D01*
X24222339Y-26576940D01*
X24434824Y-26664954D01*
X24656980Y-26724480D01*
X24885004Y-26754500D01*
X24885011Y-26754500D01*
X25114989Y-26754500D01*
X25114996Y-26754500D01*
X25343020Y-26724480D01*
X25565176Y-26664954D01*
X25777661Y-26576940D01*
X25976840Y-26461944D01*
X26159305Y-26321934D01*
X26321934Y-26159305D01*
X26461944Y-25976840D01*
X26576940Y-25777661D01*
X26664954Y-25565176D01*
X26724480Y-25343020D01*
X26754500Y-25114996D01*
X26754500Y-24885004D01*
X26724480Y-24656980D01*
X26664954Y-24434824D01*
X26576940Y-24222339D01*
X26554770Y-24183940D01*
X26461944Y-24023160D01*
X26321935Y-23840696D01*
X26321929Y-23840689D01*
X26159310Y-23678070D01*
X26159303Y-23678064D01*
X25976839Y-23538055D01*
X25777664Y-23423061D01*
X25777654Y-23423057D01*
X25565185Y-23335049D01*
X25565178Y-23335047D01*
X25565176Y-23335046D01*
X25343020Y-23275520D01*
X25343014Y-23275519D01*
X25343009Y-23275518D01*
X25115005Y-23245501D01*
X25115002Y-23245500D01*
X25114996Y-23245500D01*
X24885004Y-23245500D01*
X24884998Y-23245500D01*
X24884994Y-23245501D01*
X24656990Y-23275518D01*
X24656983Y-23275519D01*
X24656980Y-23275520D01*
X24434824Y-23335046D01*
X24434814Y-23335049D01*
X24222345Y-23423057D01*
X24222335Y-23423061D01*
X24023160Y-23538055D01*
X23840696Y-23678064D01*
X23840689Y-23678070D01*
X23678070Y-23840689D01*
X23678064Y-23840696D01*
X23538055Y-24023160D01*
X23423061Y-24222335D01*
X23423057Y-24222345D01*
X23335049Y-24434814D01*
X23335046Y-24434824D01*
X23275521Y-24656977D01*
X23275518Y-24656990D01*
X23245501Y-24884994D01*
X23245500Y-24885010D01*
X20305520Y-24885010D01*
X20318147Y-24595795D01*
X20319087Y-24585064D01*
X20371189Y-24189302D01*
X20373063Y-24178672D01*
X20459463Y-23788950D01*
X20462261Y-23778512D01*
X20582291Y-23397823D01*
X20585979Y-23387691D01*
X20738742Y-23018888D01*
X20743300Y-23009114D01*
X20927617Y-22655045D01*
X20933012Y-22645700D01*
X21147495Y-22309029D01*
X21153685Y-22300189D01*
X21153830Y-22300000D01*
X46832040Y-22300000D01*
X46851826Y-22488256D01*
X46851827Y-22488259D01*
X46910318Y-22668277D01*
X46910321Y-22668284D01*
X47004967Y-22832216D01*
X47131629Y-22972888D01*
X47284765Y-23084148D01*
X47284770Y-23084151D01*
X47457692Y-23161142D01*
X47457697Y-23161144D01*
X47642854Y-23200500D01*
X47642855Y-23200500D01*
X47832144Y-23200500D01*
X47832146Y-23200500D01*
X48017303Y-23161144D01*
X48190230Y-23084151D01*
X48343371Y-22972888D01*
X48470033Y-22832216D01*
X48564679Y-22668284D01*
X48623174Y-22488256D01*
X48642960Y-22300000D01*
X48623174Y-22111744D01*
X48564679Y-21931716D01*
X48470033Y-21767784D01*
X48343371Y-21627112D01*
X48343370Y-21627111D01*
X48190234Y-21515851D01*
X48190229Y-21515848D01*
X48017307Y-21438857D01*
X48017302Y-21438855D01*
X47851595Y-21403634D01*
X47832146Y-21399500D01*
X47642854Y-21399500D01*
X47623405Y-21403634D01*
X47457697Y-21438855D01*
X47457692Y-21438857D01*
X47284770Y-21515848D01*
X47284765Y-21515851D01*
X47131629Y-21627111D01*
X47004966Y-21767785D01*
X46910321Y-21931715D01*
X46910318Y-21931722D01*
X46893491Y-21983512D01*
X46851826Y-22111744D01*
X46832040Y-22300000D01*
X21153830Y-22300000D01*
X21396687Y-21983503D01*
X21403625Y-21975234D01*
X21673304Y-21680932D01*
X21680932Y-21673304D01*
X21975234Y-21403625D01*
X21983503Y-21396687D01*
X22300189Y-21153685D01*
X22309029Y-21147495D01*
X22645700Y-20933012D01*
X22655045Y-20927617D01*
X23009114Y-20743300D01*
X23018888Y-20738742D01*
X23387691Y-20585979D01*
X23397823Y-20582291D01*
X23778521Y-20462258D01*
X23788950Y-20459463D01*
X24178672Y-20373063D01*
X24189302Y-20371189D01*
X24585064Y-20319087D01*
X24595795Y-20318147D01*
X24997297Y-20300617D01*
X25002706Y-20300500D01*
X25047595Y-20300500D01*
X52145298Y-20300500D01*
X52145301Y-20300501D01*
X52186804Y-20300500D01*
X52198956Y-20301096D01*
X52317214Y-20312743D01*
X52341037Y-20317481D01*
X52448901Y-20350201D01*
X52471352Y-20359500D01*
X52570754Y-20412631D01*
X52590955Y-20426129D01*
X52671961Y-20492609D01*
X52678078Y-20497629D01*
X52695266Y-20514817D01*
X52766764Y-20601937D01*
X52780269Y-20622148D01*
X52819457Y-20695464D01*
X52833394Y-20721537D01*
X52842696Y-20743995D01*
X52875413Y-20851847D01*
X52880156Y-20875689D01*
X52891796Y-20993876D01*
X52892393Y-21006030D01*
X52892393Y-21056682D01*
X52892463Y-21057571D01*
X52899500Y-26799941D01*
X52899500Y-26839576D01*
X52899544Y-26839915D01*
X52909745Y-26877798D01*
X52909764Y-26877948D01*
X52909784Y-26877943D01*
X52919980Y-26915994D01*
X52920095Y-26916270D01*
X52920120Y-26916331D01*
X52939902Y-26950499D01*
X52939977Y-26950628D01*
X52959538Y-26984508D01*
X52959764Y-26984803D01*
X52987571Y-27012543D01*
X52987567Y-27012546D01*
X52987677Y-27012648D01*
X53015489Y-27040460D01*
X53015491Y-27040461D01*
X53015718Y-27040635D01*
X53015781Y-27040683D01*
X53015784Y-27040686D01*
X53015786Y-27040687D01*
X53049962Y-27060363D01*
X53049947Y-27060387D01*
X53050091Y-27060437D01*
X53071424Y-27072754D01*
X53084005Y-27080018D01*
X53084007Y-27080019D01*
X53084011Y-27080021D01*
X53084014Y-27080021D01*
X53084346Y-27080158D01*
X53084354Y-27080163D01*
X53122384Y-27090303D01*
X53160438Y-27100500D01*
X53160447Y-27100500D01*
X53160806Y-27100548D01*
X53199960Y-27100500D01*
X54015500Y-27100500D01*
X54082539Y-27120185D01*
X54128294Y-27172989D01*
X54139500Y-27224500D01*
X54139500Y-29247870D01*
X54139501Y-29247876D01*
X54145908Y-29307483D01*
X54196202Y-29442328D01*
X54196206Y-29442335D01*
X54282452Y-29557544D01*
X54282455Y-29557547D01*
X54397664Y-29643793D01*
X54397673Y-29643798D01*
X54434914Y-29657688D01*
X54490848Y-29699559D01*
X54515266Y-29765023D01*
X54500415Y-29833296D01*
X54479265Y-29861550D01*
X54448027Y-29892787D01*
X54327715Y-30058386D01*
X54234781Y-30240776D01*
X54171522Y-30435465D01*
X54139500Y-30637648D01*
X54139500Y-30842351D01*
X54171522Y-31044534D01*
X54234781Y-31239223D01*
X54327715Y-31421613D01*
X54448028Y-31587213D01*
X54592786Y-31731971D01*
X54747749Y-31844556D01*
X54758390Y-31852287D01*
X54849840Y-31898883D01*
X54851080Y-31899515D01*
X54901876Y-31947490D01*
X54918671Y-32015311D01*
X54896134Y-32081446D01*
X54851080Y-32120485D01*
X54758386Y-32167715D01*
X54592786Y-32288028D01*
X54448028Y-32432786D01*
X54327715Y-32598386D01*
X54234781Y-32780776D01*
X54171522Y-32975465D01*
X54139500Y-33177648D01*
X54139500Y-33382351D01*
X54171522Y-33584534D01*
X54234781Y-33779223D01*
X54327715Y-33961613D01*
X54448028Y-34127213D01*
X54592786Y-34271971D01*
X54747749Y-34384556D01*
X54758390Y-34392287D01*
X54849840Y-34438883D01*
X54851080Y-34439515D01*
X54901876Y-34487490D01*
X54918671Y-34555311D01*
X54896134Y-34621446D01*
X54851080Y-34660485D01*
X54758386Y-34707715D01*
X54592786Y-34828028D01*
X54448028Y-34972786D01*
X54327715Y-35138386D01*
X54234781Y-35320776D01*
X54171522Y-35515465D01*
X54139500Y-35717648D01*
X54139500Y-35922351D01*
X54171522Y-36124534D01*
X54234781Y-36319223D01*
X54327715Y-36501613D01*
X54448028Y-36667213D01*
X54592786Y-36811971D01*
X54745485Y-36922911D01*
X54758390Y-36932287D01*
X54849840Y-36978883D01*
X54851080Y-36979515D01*
X54901876Y-37027490D01*
X54918671Y-37095311D01*
X54896134Y-37161446D01*
X54851080Y-37200485D01*
X54758386Y-37247715D01*
X54592786Y-37368028D01*
X54448028Y-37512786D01*
X54327715Y-37678386D01*
X54234781Y-37860776D01*
X54171522Y-38055465D01*
X54139500Y-38257648D01*
X54139500Y-38462351D01*
X54171522Y-38664534D01*
X54234781Y-38859223D01*
X54327715Y-39041613D01*
X54448028Y-39207213D01*
X54592786Y-39351971D01*
X54747749Y-39464556D01*
X54758390Y-39472287D01*
X54849840Y-39518883D01*
X54851080Y-39519515D01*
X54901876Y-39567490D01*
X54918671Y-39635311D01*
X54896134Y-39701446D01*
X54851080Y-39740485D01*
X54758386Y-39787715D01*
X54592786Y-39908028D01*
X54448028Y-40052786D01*
X54327715Y-40218386D01*
X54234781Y-40400776D01*
X54171522Y-40595465D01*
X54139500Y-40797648D01*
X54139500Y-41002351D01*
X54171523Y-41204535D01*
X54171524Y-41204542D01*
X54182130Y-41237183D01*
X54184125Y-41307024D01*
X54148044Y-41366857D01*
X54085343Y-41397684D01*
X54064199Y-41399500D01*
X43176080Y-41399500D01*
X43031092Y-41428340D01*
X43031082Y-41428343D01*
X42894508Y-41484914D01*
X42847978Y-41516004D01*
X42771581Y-41567049D01*
X41847228Y-42491402D01*
X41785905Y-42524887D01*
X41785329Y-42525011D01*
X41720196Y-42538856D01*
X41720192Y-42538857D01*
X41547270Y-42615848D01*
X41547265Y-42615851D01*
X41394129Y-42727111D01*
X41267466Y-42867785D01*
X41172821Y-43031715D01*
X41172818Y-43031722D01*
X41139110Y-43135466D01*
X41114326Y-43211744D01*
X41094540Y-43400000D01*
X41114326Y-43588256D01*
X41114327Y-43588259D01*
X41172818Y-43768277D01*
X41172821Y-43768284D01*
X41267467Y-43932216D01*
X41357506Y-44032214D01*
X41394129Y-44072888D01*
X41547265Y-44184148D01*
X41547270Y-44184151D01*
X41599085Y-44207221D01*
X41652322Y-44252471D01*
X41672643Y-44319321D01*
X41653597Y-44386544D01*
X41601231Y-44432799D01*
X41548649Y-44444500D01*
X31307230Y-44444500D01*
X31240191Y-44424815D01*
X31219549Y-44408181D01*
X28786819Y-41975451D01*
X28753334Y-41914128D01*
X28750500Y-41887770D01*
X28750500Y-38521079D01*
X28721659Y-38376092D01*
X28721658Y-38376091D01*
X28721658Y-38376087D01*
X28721656Y-38376082D01*
X28665087Y-38239511D01*
X28665080Y-38239498D01*
X28582952Y-38116585D01*
X28566866Y-38100499D01*
X28478416Y-38012049D01*
X27450601Y-36984234D01*
X27417116Y-36922911D01*
X27422100Y-36853219D01*
X27422807Y-36851372D01*
X27430334Y-36832195D01*
X27490383Y-36569103D01*
X27497105Y-36479402D01*
X27510549Y-36300004D01*
X27510549Y-36299995D01*
X27490383Y-36030898D01*
X27430335Y-35767811D01*
X27430334Y-35767805D01*
X27331743Y-35516602D01*
X27196815Y-35282898D01*
X27028561Y-35071915D01*
X27028560Y-35071914D01*
X27028557Y-35071910D01*
X26830741Y-34888365D01*
X26607775Y-34736349D01*
X26607769Y-34736346D01*
X26607768Y-34736345D01*
X26607767Y-34736344D01*
X26364643Y-34619263D01*
X26364645Y-34619263D01*
X26106773Y-34539720D01*
X26106767Y-34539718D01*
X25839936Y-34499500D01*
X25839929Y-34499500D01*
X25570071Y-34499500D01*
X25570063Y-34499500D01*
X25303232Y-34539718D01*
X25303226Y-34539720D01*
X25045358Y-34619262D01*
X24802230Y-34736346D01*
X24579258Y-34888365D01*
X24381442Y-35071910D01*
X24213185Y-35282898D01*
X24081887Y-35510314D01*
X24031320Y-35558530D01*
X23962713Y-35571753D01*
X23897848Y-35545785D01*
X23857320Y-35488871D01*
X23850500Y-35448314D01*
X23850500Y-34267228D01*
X23870185Y-34200189D01*
X23886814Y-34179551D01*
X24929548Y-33136817D01*
X24990871Y-33103333D01*
X25017229Y-33100499D01*
X27052871Y-33100499D01*
X27052872Y-33100499D01*
X27112483Y-33094091D01*
X27247331Y-33043796D01*
X27362546Y-32957546D01*
X27448796Y-32842331D01*
X27499091Y-32707483D01*
X27505500Y-32647873D01*
X27505499Y-29952128D01*
X27499091Y-29892517D01*
X27487541Y-29861551D01*
X27448797Y-29757671D01*
X27448793Y-29757664D01*
X27362547Y-29642455D01*
X27362544Y-29642452D01*
X27247335Y-29556206D01*
X27247328Y-29556202D01*
X27112482Y-29505908D01*
X27112483Y-29505908D01*
X27052883Y-29499501D01*
X27052881Y-29499500D01*
X27052873Y-29499500D01*
X27052864Y-29499500D01*
X24357129Y-29499500D01*
X24357123Y-29499501D01*
X24297516Y-29505908D01*
X24162671Y-29556202D01*
X24162664Y-29556206D01*
X24047455Y-29642452D01*
X24047452Y-29642455D01*
X23961206Y-29757664D01*
X23961202Y-29757671D01*
X23910908Y-29892517D01*
X23904501Y-29952116D01*
X23904501Y-29952123D01*
X23904500Y-29952135D01*
X23904500Y-31987769D01*
X23884815Y-32054808D01*
X23868181Y-32075450D01*
X22517050Y-33426580D01*
X22517044Y-33426588D01*
X22467812Y-33500268D01*
X22467813Y-33500269D01*
X22434921Y-33549496D01*
X22434914Y-33549508D01*
X22378342Y-33686086D01*
X22378340Y-33686092D01*
X22349500Y-33831079D01*
X22349500Y-33831082D01*
X22349500Y-51168918D01*
X22349500Y-51168920D01*
X22349499Y-51168920D01*
X22378340Y-51313907D01*
X22378343Y-51313917D01*
X22434914Y-51450492D01*
X22467812Y-51499727D01*
X22467813Y-51499730D01*
X22517046Y-51573414D01*
X22517052Y-51573421D01*
X23868181Y-52924548D01*
X23901666Y-52985871D01*
X23904500Y-53012229D01*
X23904500Y-55047870D01*
X23904501Y-55047876D01*
X23910908Y-55107483D01*
X23961202Y-55242328D01*
X23961206Y-55242335D01*
X24047452Y-55357544D01*
X24047455Y-55357547D01*
X24162664Y-55443793D01*
X24162671Y-55443797D01*
X24297517Y-55494091D01*
X24297516Y-55494091D01*
X24304444Y-55494835D01*
X24357127Y-55500500D01*
X27052872Y-55500499D01*
X27112247Y-55494116D01*
X27181005Y-55506522D01*
X27232142Y-55554133D01*
X27249500Y-55617406D01*
X27249500Y-56042769D01*
X27229815Y-56109808D01*
X27213181Y-56130450D01*
X26386696Y-56956934D01*
X26325373Y-56990419D01*
X26262466Y-56987744D01*
X26106777Y-56939721D01*
X26106767Y-56939718D01*
X25839936Y-56899500D01*
X25839929Y-56899500D01*
X25570071Y-56899500D01*
X25570063Y-56899500D01*
X25303232Y-56939718D01*
X25303226Y-56939720D01*
X25045358Y-57019262D01*
X24802230Y-57136346D01*
X24579258Y-57288365D01*
X24381442Y-57471910D01*
X24213185Y-57682898D01*
X24078258Y-57916599D01*
X24078256Y-57916603D01*
X23979666Y-58167804D01*
X23979664Y-58167811D01*
X23919616Y-58430898D01*
X23899451Y-58699995D01*
X23899451Y-58700004D01*
X23919616Y-58969101D01*
X23979664Y-59232188D01*
X23979666Y-59232195D01*
X24078257Y-59483398D01*
X24213185Y-59717102D01*
X24349080Y-59887509D01*
X24381442Y-59928089D01*
X24568183Y-60101358D01*
X24579259Y-60111635D01*
X24802226Y-60263651D01*
X25045359Y-60380738D01*
X25303228Y-60460280D01*
X25303229Y-60460280D01*
X25303232Y-60460281D01*
X25570063Y-60500499D01*
X25570068Y-60500499D01*
X25570071Y-60500500D01*
X25570072Y-60500500D01*
X25839928Y-60500500D01*
X25839929Y-60500500D01*
X25839936Y-60500499D01*
X26106767Y-60460281D01*
X26106768Y-60460280D01*
X26106772Y-60460280D01*
X26364641Y-60380738D01*
X26607775Y-60263651D01*
X26830741Y-60111635D01*
X27028561Y-59928085D01*
X27196815Y-59717102D01*
X27331743Y-59483398D01*
X27430334Y-59232195D01*
X27490383Y-58969103D01*
X27510549Y-58700000D01*
X27490383Y-58430897D01*
X27430334Y-58167805D01*
X27422854Y-58148748D01*
X27416685Y-58079153D01*
X27449121Y-58017269D01*
X27450538Y-58015827D01*
X28582951Y-56883416D01*
X28665084Y-56760495D01*
X28721658Y-56623913D01*
X28750500Y-56478918D01*
X28750500Y-53700000D01*
X29019540Y-53700000D01*
X29039326Y-53888256D01*
X29039327Y-53888259D01*
X29097818Y-54068277D01*
X29097821Y-54068284D01*
X29192467Y-54232216D01*
X29319129Y-54372888D01*
X29472265Y-54484148D01*
X29472270Y-54484151D01*
X29645192Y-54561142D01*
X29645197Y-54561144D01*
X29830354Y-54600500D01*
X29830355Y-54600500D01*
X30019644Y-54600500D01*
X30019646Y-54600500D01*
X30204803Y-54561144D01*
X30377730Y-54484151D01*
X30530871Y-54372888D01*
X30657533Y-54232216D01*
X30752179Y-54068284D01*
X30807522Y-53897955D01*
X30837769Y-53848597D01*
X32536371Y-52149995D01*
X36194592Y-52149995D01*
X36194592Y-52150004D01*
X36214196Y-52411620D01*
X36214197Y-52411625D01*
X36272576Y-52667402D01*
X36272578Y-52667411D01*
X36272580Y-52667416D01*
X36368432Y-52911643D01*
X36499614Y-53138857D01*
X36631736Y-53304533D01*
X36663198Y-53343985D01*
X36802124Y-53472888D01*
X36855521Y-53522433D01*
X37072296Y-53670228D01*
X37072301Y-53670230D01*
X37072302Y-53670231D01*
X37072303Y-53670232D01*
X37197843Y-53730688D01*
X37308673Y-53784061D01*
X37308674Y-53784061D01*
X37308677Y-53784063D01*
X37559385Y-53861396D01*
X37818818Y-53900500D01*
X38081182Y-53900500D01*
X38340615Y-53861396D01*
X38591323Y-53784063D01*
X38827704Y-53670228D01*
X39044479Y-53522433D01*
X39236805Y-53343981D01*
X39400386Y-53138857D01*
X39531568Y-52911643D01*
X39627420Y-52667416D01*
X39685802Y-52411630D01*
X39685803Y-52411620D01*
X39705408Y-52150004D01*
X39705408Y-52149995D01*
X39685803Y-51888379D01*
X39685802Y-51888374D01*
X39685802Y-51888370D01*
X39627420Y-51632584D01*
X39531568Y-51388357D01*
X39400386Y-51161143D01*
X39236805Y-50956019D01*
X39236804Y-50956018D01*
X39236801Y-50956014D01*
X39044479Y-50777567D01*
X38978774Y-50732770D01*
X38827704Y-50629772D01*
X38827700Y-50629770D01*
X38827697Y-50629768D01*
X38827696Y-50629767D01*
X38591325Y-50515938D01*
X38591327Y-50515938D01*
X38340623Y-50438606D01*
X38340619Y-50438605D01*
X38340615Y-50438604D01*
X38215823Y-50419794D01*
X38081187Y-50399500D01*
X38081182Y-50399500D01*
X37818818Y-50399500D01*
X37818812Y-50399500D01*
X37663652Y-50422888D01*
X37559385Y-50438604D01*
X37559382Y-50438605D01*
X37559376Y-50438606D01*
X37308673Y-50515938D01*
X37072303Y-50629767D01*
X37072302Y-50629768D01*
X36855520Y-50777567D01*
X36663198Y-50956014D01*
X36499614Y-51161143D01*
X36368432Y-51388356D01*
X36272582Y-51632578D01*
X36272576Y-51632597D01*
X36214197Y-51888374D01*
X36214196Y-51888379D01*
X36194592Y-52149995D01*
X32536371Y-52149995D01*
X35599548Y-49086819D01*
X35660871Y-49053334D01*
X35687229Y-49050500D01*
X41737770Y-49050500D01*
X41804809Y-49070185D01*
X41825451Y-49086819D01*
X42100222Y-49361590D01*
X42133707Y-49422913D01*
X42128723Y-49492604D01*
X42075631Y-49634952D01*
X42014804Y-49914566D01*
X41994390Y-50199998D01*
X41994390Y-50200001D01*
X42014804Y-50485433D01*
X42075628Y-50765037D01*
X42075630Y-50765043D01*
X42075631Y-50765046D01*
X42175633Y-51033161D01*
X42175635Y-51033166D01*
X42312770Y-51284309D01*
X42312775Y-51284317D01*
X42484254Y-51513387D01*
X42484270Y-51513405D01*
X42686594Y-51715729D01*
X42686612Y-51715745D01*
X42915682Y-51887224D01*
X42915690Y-51887229D01*
X43166833Y-52024364D01*
X43166832Y-52024364D01*
X43166836Y-52024365D01*
X43166839Y-52024367D01*
X43434954Y-52124369D01*
X43434960Y-52124370D01*
X43434962Y-52124371D01*
X43714566Y-52185195D01*
X43714568Y-52185195D01*
X43714572Y-52185196D01*
X43968220Y-52203337D01*
X43999999Y-52205610D01*
X44000000Y-52205610D01*
X44000001Y-52205610D01*
X44028595Y-52203564D01*
X44285428Y-52185196D01*
X44447204Y-52150004D01*
X44447245Y-52149995D01*
X48194592Y-52149995D01*
X48194592Y-52150004D01*
X48214196Y-52411620D01*
X48214197Y-52411625D01*
X48272576Y-52667402D01*
X48272578Y-52667411D01*
X48272580Y-52667416D01*
X48368432Y-52911643D01*
X48499614Y-53138857D01*
X48631736Y-53304533D01*
X48663198Y-53343985D01*
X48802124Y-53472888D01*
X48855521Y-53522433D01*
X49072296Y-53670228D01*
X49072301Y-53670230D01*
X49072302Y-53670231D01*
X49072303Y-53670232D01*
X49197843Y-53730688D01*
X49308673Y-53784061D01*
X49308674Y-53784061D01*
X49308677Y-53784063D01*
X49559385Y-53861396D01*
X49818818Y-53900500D01*
X50081182Y-53900500D01*
X50340615Y-53861396D01*
X50591323Y-53784063D01*
X50827704Y-53670228D01*
X51044479Y-53522433D01*
X51236805Y-53343981D01*
X51400386Y-53138857D01*
X51531568Y-52911643D01*
X51627420Y-52667416D01*
X51685802Y-52411630D01*
X51685803Y-52411620D01*
X51705408Y-52150004D01*
X51705408Y-52149995D01*
X51685803Y-51888379D01*
X51685802Y-51888374D01*
X51685802Y-51888370D01*
X51627420Y-51632584D01*
X51531568Y-51388357D01*
X51400386Y-51161143D01*
X51236805Y-50956019D01*
X51236804Y-50956018D01*
X51236801Y-50956014D01*
X51044479Y-50777567D01*
X50978774Y-50732770D01*
X50827704Y-50629772D01*
X50827700Y-50629770D01*
X50827697Y-50629768D01*
X50827696Y-50629767D01*
X50591325Y-50515938D01*
X50591327Y-50515938D01*
X50340623Y-50438606D01*
X50340619Y-50438605D01*
X50340615Y-50438604D01*
X50215823Y-50419794D01*
X50081187Y-50399500D01*
X50081182Y-50399500D01*
X49818818Y-50399500D01*
X49818812Y-50399500D01*
X49663652Y-50422888D01*
X49559385Y-50438604D01*
X49559382Y-50438605D01*
X49559376Y-50438606D01*
X49308673Y-50515938D01*
X49072303Y-50629767D01*
X49072302Y-50629768D01*
X48855520Y-50777567D01*
X48663198Y-50956014D01*
X48499614Y-51161143D01*
X48368432Y-51388356D01*
X48272582Y-51632578D01*
X48272576Y-51632597D01*
X48214197Y-51888374D01*
X48214196Y-51888379D01*
X48194592Y-52149995D01*
X44447245Y-52149995D01*
X44565037Y-52124371D01*
X44565037Y-52124370D01*
X44565046Y-52124369D01*
X44833161Y-52024367D01*
X45084315Y-51887226D01*
X45313395Y-51715739D01*
X45515739Y-51513395D01*
X45687226Y-51284315D01*
X45824367Y-51033161D01*
X45924369Y-50765046D01*
X45985196Y-50485428D01*
X46005610Y-50200000D01*
X45985196Y-49914572D01*
X45924369Y-49634954D01*
X45824367Y-49366839D01*
X45788142Y-49300499D01*
X45687229Y-49115690D01*
X45687224Y-49115682D01*
X45515745Y-48886612D01*
X45515729Y-48886594D01*
X45313405Y-48684270D01*
X45313387Y-48684254D01*
X45084317Y-48512775D01*
X45084309Y-48512770D01*
X44833166Y-48375635D01*
X44833167Y-48375635D01*
X44707391Y-48328723D01*
X44565046Y-48275631D01*
X44565043Y-48275630D01*
X44565037Y-48275628D01*
X44285433Y-48214804D01*
X44000001Y-48194390D01*
X43999999Y-48194390D01*
X43714566Y-48214804D01*
X43434952Y-48275631D01*
X43292604Y-48328723D01*
X43222912Y-48333707D01*
X43161590Y-48300222D01*
X42578421Y-47717052D01*
X42578414Y-47717046D01*
X42504729Y-47667812D01*
X42504729Y-47667813D01*
X42455491Y-47634913D01*
X42318917Y-47578343D01*
X42318907Y-47578340D01*
X42173920Y-47549500D01*
X42173918Y-47549500D01*
X35398917Y-47549500D01*
X35251082Y-47549500D01*
X35251080Y-47549500D01*
X35106092Y-47578340D01*
X35106082Y-47578343D01*
X34969511Y-47634912D01*
X34969498Y-47634919D01*
X34846584Y-47717048D01*
X34846580Y-47717051D01*
X29772228Y-52791402D01*
X29710905Y-52824887D01*
X29710329Y-52825011D01*
X29645196Y-52838856D01*
X29645192Y-52838857D01*
X29472270Y-52915848D01*
X29472265Y-52915851D01*
X29319129Y-53027111D01*
X29192466Y-53167785D01*
X29097821Y-53331715D01*
X29097818Y-53331722D01*
X29051951Y-53472888D01*
X29039326Y-53511744D01*
X29019540Y-53700000D01*
X28750500Y-53700000D01*
X28750500Y-48502230D01*
X28770185Y-48435191D01*
X28786819Y-48414549D01*
X31219549Y-45981819D01*
X31280872Y-45948334D01*
X31307230Y-45945500D01*
X50657770Y-45945500D01*
X50724809Y-45965185D01*
X50745451Y-45981819D01*
X53478499Y-48714867D01*
X53511984Y-48776190D01*
X53507000Y-48845882D01*
X53465128Y-48901815D01*
X53399664Y-48926232D01*
X53340382Y-48915828D01*
X53279803Y-48888856D01*
X53279801Y-48888855D01*
X53279800Y-48888855D01*
X53163102Y-48864050D01*
X53094646Y-48849500D01*
X52905354Y-48849500D01*
X52872897Y-48856398D01*
X52720197Y-48888855D01*
X52720192Y-48888857D01*
X52547270Y-48965848D01*
X52547265Y-48965851D01*
X52394129Y-49077111D01*
X52267466Y-49217785D01*
X52172821Y-49381715D01*
X52172818Y-49381722D01*
X52114327Y-49561740D01*
X52114326Y-49561744D01*
X52094540Y-49750000D01*
X52114326Y-49938256D01*
X52114327Y-49938259D01*
X52172818Y-50118277D01*
X52172821Y-50118284D01*
X52267467Y-50282216D01*
X52373070Y-50399500D01*
X52394129Y-50422888D01*
X52547265Y-50534148D01*
X52547270Y-50534151D01*
X52720192Y-50611142D01*
X52720197Y-50611144D01*
X52905354Y-50650500D01*
X52905355Y-50650500D01*
X53094644Y-50650500D01*
X53094646Y-50650500D01*
X53279803Y-50611144D01*
X53452730Y-50534151D01*
X53605871Y-50422888D01*
X53732533Y-50282216D01*
X53827179Y-50118284D01*
X53885674Y-49938256D01*
X53905460Y-49750000D01*
X53885674Y-49561744D01*
X53833649Y-49401628D01*
X53831654Y-49331787D01*
X53867734Y-49271954D01*
X53930435Y-49241126D01*
X53999849Y-49249091D01*
X54039261Y-49275629D01*
X60413181Y-55649549D01*
X60446666Y-55710872D01*
X60449500Y-55737230D01*
X60449500Y-62585102D01*
X60429815Y-62652141D01*
X60379303Y-62696821D01*
X60297235Y-62736344D01*
X60297232Y-62736345D01*
X60074258Y-62888365D01*
X59876442Y-63071910D01*
X59708185Y-63282898D01*
X59573258Y-63516599D01*
X59573256Y-63516603D01*
X59474666Y-63767804D01*
X59474664Y-63767811D01*
X59414616Y-64030898D01*
X59394451Y-64299995D01*
X59394451Y-64300004D01*
X59414616Y-64569101D01*
X59474664Y-64832188D01*
X59474666Y-64832195D01*
X59573257Y-65083398D01*
X59708185Y-65317102D01*
X59786222Y-65414957D01*
X59876442Y-65528089D01*
X60022279Y-65663405D01*
X60074259Y-65711635D01*
X60297226Y-65863651D01*
X60540359Y-65980738D01*
X60798228Y-66060280D01*
X60798229Y-66060280D01*
X60798232Y-66060281D01*
X61065063Y-66100499D01*
X61065068Y-66100499D01*
X61065071Y-66100500D01*
X61065072Y-66100500D01*
X61334928Y-66100500D01*
X61334929Y-66100500D01*
X61334936Y-66100499D01*
X61601767Y-66060281D01*
X61601768Y-66060280D01*
X61601772Y-66060280D01*
X61859641Y-65980738D01*
X62102775Y-65863651D01*
X62325741Y-65711635D01*
X62523561Y-65528085D01*
X62691815Y-65317102D01*
X62826743Y-65083398D01*
X62925334Y-64832195D01*
X62985383Y-64569103D01*
X63005549Y-64300000D01*
X62985383Y-64030897D01*
X62925334Y-63767805D01*
X62826743Y-63516602D01*
X62691815Y-63282898D01*
X62523561Y-63071915D01*
X62523560Y-63071914D01*
X62523557Y-63071910D01*
X62394469Y-62952135D01*
X65599500Y-62952135D01*
X65599500Y-65647870D01*
X65599501Y-65647876D01*
X65605908Y-65707483D01*
X65656202Y-65842328D01*
X65656206Y-65842335D01*
X65742452Y-65957544D01*
X65742455Y-65957547D01*
X65857664Y-66043793D01*
X65857671Y-66043797D01*
X65992517Y-66094091D01*
X65992516Y-66094091D01*
X65999444Y-66094835D01*
X66052127Y-66100500D01*
X68747872Y-66100499D01*
X68807483Y-66094091D01*
X68942331Y-66043796D01*
X69057546Y-65957546D01*
X69143796Y-65842331D01*
X69194091Y-65707483D01*
X69200500Y-65647873D01*
X69200499Y-64299995D01*
X70594451Y-64299995D01*
X70594451Y-64300004D01*
X70614616Y-64569101D01*
X70674664Y-64832188D01*
X70674666Y-64832195D01*
X70773257Y-65083398D01*
X70908185Y-65317102D01*
X70986222Y-65414957D01*
X71076442Y-65528089D01*
X71222279Y-65663405D01*
X71274259Y-65711635D01*
X71497226Y-65863651D01*
X71740359Y-65980738D01*
X71998228Y-66060280D01*
X71998229Y-66060280D01*
X71998232Y-66060281D01*
X72265063Y-66100499D01*
X72265068Y-66100499D01*
X72265071Y-66100500D01*
X72265072Y-66100500D01*
X72534928Y-66100500D01*
X72534929Y-66100500D01*
X72534936Y-66100499D01*
X72801767Y-66060281D01*
X72801768Y-66060280D01*
X72801772Y-66060280D01*
X73059641Y-65980738D01*
X73302775Y-65863651D01*
X73525741Y-65711635D01*
X73723561Y-65528085D01*
X73891815Y-65317102D01*
X74026743Y-65083398D01*
X74104605Y-64885010D01*
X83245500Y-64885010D01*
X83245500Y-65114989D01*
X83245501Y-65115005D01*
X83275518Y-65343009D01*
X83275519Y-65343014D01*
X83275520Y-65343020D01*
X83299983Y-65434317D01*
X83335046Y-65565175D01*
X83335049Y-65565185D01*
X83423057Y-65777654D01*
X83423061Y-65777664D01*
X83538055Y-65976839D01*
X83678064Y-66159303D01*
X83678070Y-66159310D01*
X83840689Y-66321929D01*
X83840696Y-66321935D01*
X84023160Y-66461944D01*
X84222335Y-66576938D01*
X84222336Y-66576938D01*
X84222339Y-66576940D01*
X84434824Y-66664954D01*
X84656980Y-66724480D01*
X84885004Y-66754500D01*
X84885011Y-66754500D01*
X85114989Y-66754500D01*
X85114996Y-66754500D01*
X85343020Y-66724480D01*
X85565176Y-66664954D01*
X85777661Y-66576940D01*
X85976840Y-66461944D01*
X86159305Y-66321934D01*
X86321934Y-66159305D01*
X86461944Y-65976840D01*
X86576940Y-65777661D01*
X86664954Y-65565176D01*
X86724480Y-65343020D01*
X86754500Y-65114996D01*
X86754500Y-64885004D01*
X86724480Y-64656980D01*
X86664954Y-64434824D01*
X86576940Y-64222339D01*
X86461944Y-64023160D01*
X86321934Y-63840695D01*
X86321929Y-63840689D01*
X86159310Y-63678070D01*
X86159303Y-63678064D01*
X85976839Y-63538055D01*
X85777664Y-63423061D01*
X85777654Y-63423057D01*
X85565185Y-63335049D01*
X85565178Y-63335047D01*
X85565176Y-63335046D01*
X85343020Y-63275520D01*
X85343014Y-63275519D01*
X85343009Y-63275518D01*
X85115005Y-63245501D01*
X85115002Y-63245500D01*
X85114996Y-63245500D01*
X84885004Y-63245500D01*
X84884998Y-63245500D01*
X84884994Y-63245501D01*
X84656990Y-63275518D01*
X84656983Y-63275519D01*
X84656980Y-63275520D01*
X84629445Y-63282898D01*
X84434824Y-63335046D01*
X84434814Y-63335049D01*
X84222345Y-63423057D01*
X84222335Y-63423061D01*
X84023160Y-63538055D01*
X83840696Y-63678064D01*
X83840689Y-63678070D01*
X83678070Y-63840689D01*
X83678064Y-63840696D01*
X83538055Y-64023160D01*
X83423061Y-64222335D01*
X83423057Y-64222345D01*
X83335049Y-64434814D01*
X83335046Y-64434824D01*
X83281294Y-64635433D01*
X83275521Y-64656977D01*
X83275518Y-64656990D01*
X83245501Y-64884994D01*
X83245500Y-64885010D01*
X74104605Y-64885010D01*
X74125334Y-64832195D01*
X74185383Y-64569103D01*
X74205549Y-64300000D01*
X74185383Y-64030897D01*
X74125334Y-63767805D01*
X74026743Y-63516602D01*
X73891815Y-63282898D01*
X73723561Y-63071915D01*
X73723560Y-63071914D01*
X73723557Y-63071910D01*
X73525741Y-62888365D01*
X73446375Y-62834254D01*
X73302775Y-62736349D01*
X73302769Y-62736346D01*
X73302768Y-62736345D01*
X73302767Y-62736344D01*
X73059643Y-62619263D01*
X73059645Y-62619263D01*
X72801773Y-62539720D01*
X72801767Y-62539718D01*
X72534936Y-62499500D01*
X72534929Y-62499500D01*
X72265071Y-62499500D01*
X72265063Y-62499500D01*
X71998232Y-62539718D01*
X71998226Y-62539720D01*
X71740358Y-62619262D01*
X71497230Y-62736346D01*
X71274258Y-62888365D01*
X71076442Y-63071910D01*
X70908185Y-63282898D01*
X70773258Y-63516599D01*
X70773256Y-63516603D01*
X70674666Y-63767804D01*
X70674664Y-63767811D01*
X70614616Y-64030898D01*
X70594451Y-64299995D01*
X69200499Y-64299995D01*
X69200499Y-62952128D01*
X69194091Y-62892517D01*
X69192542Y-62888365D01*
X69143797Y-62757671D01*
X69143793Y-62757664D01*
X69057547Y-62642455D01*
X69057544Y-62642452D01*
X68942335Y-62556206D01*
X68942328Y-62556202D01*
X68807482Y-62505908D01*
X68807483Y-62505908D01*
X68747883Y-62499501D01*
X68747881Y-62499500D01*
X68747873Y-62499500D01*
X68747864Y-62499500D01*
X66052129Y-62499500D01*
X66052123Y-62499501D01*
X65992516Y-62505908D01*
X65857671Y-62556202D01*
X65857664Y-62556206D01*
X65742455Y-62642452D01*
X65742452Y-62642455D01*
X65656206Y-62757664D01*
X65656202Y-62757671D01*
X65605908Y-62892517D01*
X65599501Y-62952116D01*
X65599501Y-62952123D01*
X65599500Y-62952135D01*
X62394469Y-62952135D01*
X62325741Y-62888365D01*
X62246375Y-62834254D01*
X62102775Y-62736349D01*
X62102772Y-62736348D01*
X62102770Y-62736346D01*
X62020698Y-62696822D01*
X61968838Y-62649999D01*
X61950500Y-62585102D01*
X61950500Y-55301079D01*
X61921659Y-55156092D01*
X61921658Y-55156091D01*
X61921658Y-55156087D01*
X61865084Y-55019505D01*
X61832186Y-54970270D01*
X61832185Y-54970268D01*
X61782956Y-54896589D01*
X61782952Y-54896584D01*
X59686368Y-52800000D01*
X73394540Y-52800000D01*
X73414326Y-52988256D01*
X73414327Y-52988259D01*
X73472818Y-53168277D01*
X73472821Y-53168284D01*
X73567467Y-53332216D01*
X73694129Y-53472888D01*
X73847265Y-53584148D01*
X73847270Y-53584151D01*
X74020192Y-53661142D01*
X74020197Y-53661144D01*
X74205354Y-53700500D01*
X74205355Y-53700500D01*
X74394644Y-53700500D01*
X74394646Y-53700500D01*
X74579803Y-53661144D01*
X74752730Y-53584151D01*
X74905871Y-53472888D01*
X75032533Y-53332216D01*
X75127179Y-53168284D01*
X75185674Y-52988256D01*
X75205460Y-52800000D01*
X75185674Y-52611744D01*
X75127179Y-52431716D01*
X75032533Y-52267784D01*
X74905871Y-52127112D01*
X74905870Y-52127111D01*
X74752734Y-52015851D01*
X74752729Y-52015848D01*
X74579807Y-51938857D01*
X74579802Y-51938855D01*
X74424798Y-51905909D01*
X74394646Y-51899500D01*
X74205354Y-51899500D01*
X74175319Y-51905884D01*
X74020197Y-51938855D01*
X74020192Y-51938857D01*
X73847270Y-52015848D01*
X73847265Y-52015851D01*
X73694129Y-52127111D01*
X73567466Y-52267785D01*
X73472821Y-52431715D01*
X73472818Y-52431722D01*
X73414327Y-52611740D01*
X73414326Y-52611744D01*
X73394540Y-52800000D01*
X59686368Y-52800000D01*
X51498421Y-44612052D01*
X51498414Y-44612046D01*
X51424729Y-44562812D01*
X51424729Y-44562813D01*
X51375491Y-44529913D01*
X51238917Y-44473343D01*
X51238903Y-44473339D01*
X51238394Y-44473238D01*
X51238152Y-44473111D01*
X51233081Y-44471573D01*
X51233372Y-44470610D01*
X51176486Y-44440847D01*
X51141918Y-44380128D01*
X51145664Y-44310359D01*
X51186536Y-44253691D01*
X51212154Y-44238347D01*
X51277730Y-44209151D01*
X51430871Y-44097888D01*
X51557533Y-43957216D01*
X51652179Y-43793284D01*
X51710674Y-43613256D01*
X51730460Y-43425000D01*
X51710674Y-43236744D01*
X51654162Y-43062818D01*
X51652167Y-42992977D01*
X51688247Y-42933144D01*
X51750948Y-42902316D01*
X51772093Y-42900500D01*
X54077196Y-42900500D01*
X54144235Y-42920185D01*
X54189990Y-42972989D01*
X54199934Y-43042147D01*
X54195127Y-43062818D01*
X54171523Y-43135461D01*
X54171523Y-43135464D01*
X54139500Y-43337648D01*
X54139500Y-43542351D01*
X54171522Y-43744534D01*
X54234781Y-43939223D01*
X54327715Y-44121613D01*
X54448028Y-44287213D01*
X54592786Y-44431971D01*
X54747749Y-44544556D01*
X54758390Y-44552287D01*
X54830424Y-44588990D01*
X54851629Y-44599795D01*
X54902425Y-44647770D01*
X54919220Y-44715591D01*
X54896682Y-44781726D01*
X54851629Y-44820765D01*
X54758650Y-44868140D01*
X54593105Y-44988417D01*
X54593104Y-44988417D01*
X54448417Y-45133104D01*
X54448417Y-45133105D01*
X54328140Y-45298650D01*
X54235244Y-45480970D01*
X54172009Y-45675586D01*
X54163391Y-45730000D01*
X55206988Y-45730000D01*
X55174075Y-45787007D01*
X55140000Y-45914174D01*
X55140000Y-46045826D01*
X55174075Y-46172993D01*
X55206988Y-46230000D01*
X54163391Y-46230000D01*
X54172009Y-46284413D01*
X54235244Y-46479029D01*
X54328140Y-46661349D01*
X54448417Y-46826894D01*
X54448417Y-46826895D01*
X54593104Y-46971582D01*
X54758650Y-47091859D01*
X54940968Y-47184755D01*
X55135582Y-47247990D01*
X55337683Y-47280000D01*
X55390000Y-47280000D01*
X55390000Y-46413012D01*
X55447007Y-46445925D01*
X55574174Y-46480000D01*
X55705826Y-46480000D01*
X55832993Y-46445925D01*
X55890000Y-46413012D01*
X55890000Y-47280000D01*
X55942317Y-47280000D01*
X56144417Y-47247990D01*
X56339031Y-47184755D01*
X56521349Y-47091859D01*
X56686894Y-46971582D01*
X56686895Y-46971582D01*
X56831582Y-46826895D01*
X56831582Y-46826894D01*
X56951859Y-46661349D01*
X57044755Y-46479029D01*
X57107990Y-46284413D01*
X57116609Y-46230000D01*
X56073012Y-46230000D01*
X56105925Y-46172993D01*
X56140000Y-46045826D01*
X56140000Y-45914174D01*
X56105925Y-45787007D01*
X56073012Y-45730000D01*
X57116609Y-45730000D01*
X57107990Y-45675586D01*
X57044755Y-45480970D01*
X56951859Y-45298650D01*
X56831582Y-45133105D01*
X56831582Y-45133104D01*
X56686895Y-44988417D01*
X56521349Y-44868140D01*
X56428370Y-44820765D01*
X56377574Y-44772790D01*
X56360779Y-44704969D01*
X56383316Y-44638835D01*
X56428370Y-44599795D01*
X56428920Y-44599515D01*
X56521610Y-44552287D01*
X56552405Y-44529913D01*
X56687213Y-44431971D01*
X56687215Y-44431968D01*
X56687219Y-44431966D01*
X56831966Y-44287219D01*
X56831968Y-44287215D01*
X56831971Y-44287213D01*
X56902026Y-44190789D01*
X56952287Y-44121610D01*
X57045220Y-43939219D01*
X57108477Y-43744534D01*
X57140500Y-43542352D01*
X57140500Y-43337648D01*
X57108477Y-43135466D01*
X57108476Y-43135462D01*
X57108476Y-43135461D01*
X57084873Y-43062818D01*
X57082878Y-42992977D01*
X57118958Y-42933144D01*
X57181659Y-42902316D01*
X57202804Y-42900500D01*
X60887770Y-42900500D01*
X60954809Y-42920185D01*
X60975451Y-42936819D01*
X63987228Y-45948595D01*
X64017478Y-45997958D01*
X64072818Y-46168277D01*
X64072821Y-46168284D01*
X64167467Y-46332216D01*
X64269851Y-46445925D01*
X64294129Y-46472888D01*
X64447265Y-46584148D01*
X64447270Y-46584151D01*
X64620192Y-46661142D01*
X64620197Y-46661144D01*
X64805354Y-46700500D01*
X64805355Y-46700500D01*
X64994644Y-46700500D01*
X64994646Y-46700500D01*
X65179803Y-46661144D01*
X65352730Y-46584151D01*
X65354776Y-46582664D01*
X65366452Y-46574182D01*
X65432258Y-46550702D01*
X65439337Y-46550500D01*
X76345334Y-46550500D01*
X76412373Y-46570185D01*
X76414225Y-46571398D01*
X76524498Y-46645080D01*
X76524511Y-46645087D01*
X76630216Y-46688871D01*
X76661087Y-46701658D01*
X76661091Y-46701658D01*
X76661092Y-46701659D01*
X76806079Y-46730500D01*
X76806082Y-46730500D01*
X77174582Y-46730500D01*
X77241621Y-46750185D01*
X77274900Y-46781615D01*
X77308028Y-46827212D01*
X77308032Y-46827217D01*
X77452786Y-46971971D01*
X77607749Y-47084556D01*
X77618390Y-47092287D01*
X77734607Y-47151503D01*
X77800776Y-47185218D01*
X77800778Y-47185218D01*
X77800781Y-47185220D01*
X77905137Y-47219127D01*
X77995465Y-47248477D01*
X78096557Y-47264488D01*
X78197648Y-47280500D01*
X78197649Y-47280500D01*
X78802351Y-47280500D01*
X78802352Y-47280500D01*
X79004534Y-47248477D01*
X79199219Y-47185220D01*
X79381610Y-47092287D01*
X79474590Y-47024732D01*
X79547213Y-46971971D01*
X79547215Y-46971968D01*
X79547219Y-46971966D01*
X79691966Y-46827219D01*
X79691968Y-46827215D01*
X79691971Y-46827213D01*
X79762236Y-46730500D01*
X79812287Y-46661610D01*
X79905220Y-46479219D01*
X79968477Y-46284534D01*
X80000500Y-46082352D01*
X80000500Y-45877648D01*
X79978654Y-45739718D01*
X79968477Y-45675465D01*
X79905218Y-45480776D01*
X79812419Y-45298650D01*
X79812287Y-45298390D01*
X79800873Y-45282680D01*
X79691971Y-45132786D01*
X79547213Y-44988028D01*
X79381614Y-44867715D01*
X79375006Y-44864348D01*
X79288917Y-44820483D01*
X79238123Y-44772511D01*
X79221328Y-44704690D01*
X79243865Y-44638555D01*
X79288917Y-44599516D01*
X79381610Y-44552287D01*
X79412405Y-44529913D01*
X79547213Y-44431971D01*
X79547215Y-44431968D01*
X79547219Y-44431966D01*
X79691966Y-44287219D01*
X79691968Y-44287215D01*
X79691971Y-44287213D01*
X79762026Y-44190789D01*
X79812287Y-44121610D01*
X79905220Y-43939219D01*
X79968477Y-43744534D01*
X80000500Y-43542352D01*
X80000500Y-43337648D01*
X79984518Y-43236744D01*
X79968477Y-43135465D01*
X79938156Y-43042147D01*
X79905220Y-42940781D01*
X79905218Y-42940778D01*
X79905218Y-42940776D01*
X79868026Y-42867784D01*
X79812287Y-42758390D01*
X79804143Y-42747181D01*
X79691971Y-42592786D01*
X79547213Y-42448028D01*
X79381614Y-42327715D01*
X79375006Y-42324348D01*
X79288917Y-42280483D01*
X79238123Y-42232511D01*
X79221328Y-42164690D01*
X79243865Y-42098555D01*
X79288917Y-42059516D01*
X79381610Y-42012287D01*
X79432311Y-41975451D01*
X79547213Y-41891971D01*
X79547215Y-41891968D01*
X79547219Y-41891966D01*
X79691966Y-41747219D01*
X79691968Y-41747215D01*
X79691971Y-41747213D01*
X79744732Y-41674590D01*
X79812287Y-41581610D01*
X79905220Y-41399219D01*
X79968477Y-41204534D01*
X80000500Y-41002352D01*
X80000500Y-40797648D01*
X79993936Y-40756204D01*
X79968477Y-40595465D01*
X79905218Y-40400776D01*
X79871503Y-40334607D01*
X79812287Y-40218390D01*
X79804556Y-40207749D01*
X79691971Y-40052786D01*
X79547213Y-39908028D01*
X79381614Y-39787715D01*
X79375006Y-39784348D01*
X79288917Y-39740483D01*
X79238123Y-39692511D01*
X79221328Y-39624690D01*
X79243865Y-39558555D01*
X79288917Y-39519516D01*
X79381610Y-39472287D01*
X79402770Y-39456913D01*
X79547213Y-39351971D01*
X79547215Y-39351968D01*
X79547219Y-39351966D01*
X79691966Y-39207219D01*
X79691968Y-39207215D01*
X79691971Y-39207213D01*
X79744732Y-39134590D01*
X79812287Y-39041610D01*
X79905220Y-38859219D01*
X79968477Y-38664534D01*
X80000500Y-38462352D01*
X80000500Y-38257648D01*
X79997625Y-38239498D01*
X79968477Y-38055465D01*
X79906153Y-37863653D01*
X79905220Y-37860781D01*
X79905218Y-37860778D01*
X79905218Y-37860776D01*
X79829226Y-37711635D01*
X79812287Y-37678390D01*
X79804556Y-37667749D01*
X79691971Y-37512786D01*
X79547213Y-37368028D01*
X79381614Y-37247715D01*
X79375006Y-37244348D01*
X79288917Y-37200483D01*
X79238123Y-37152511D01*
X79221328Y-37084690D01*
X79243865Y-37018555D01*
X79288917Y-36979516D01*
X79381610Y-36932287D01*
X79493156Y-36851245D01*
X79547213Y-36811971D01*
X79547215Y-36811968D01*
X79547219Y-36811966D01*
X79691966Y-36667219D01*
X79691968Y-36667215D01*
X79691971Y-36667213D01*
X79763252Y-36569101D01*
X79812287Y-36501610D01*
X79905220Y-36319219D01*
X79968477Y-36124534D01*
X80000500Y-35922352D01*
X80000500Y-35717648D01*
X79968657Y-35516602D01*
X79968477Y-35515465D01*
X79905218Y-35320776D01*
X79871503Y-35254607D01*
X79812287Y-35138390D01*
X79804556Y-35127749D01*
X79691971Y-34972786D01*
X79547213Y-34828028D01*
X79381614Y-34707715D01*
X79375006Y-34704348D01*
X79288917Y-34660483D01*
X79238123Y-34612511D01*
X79221328Y-34544690D01*
X79243865Y-34478555D01*
X79288917Y-34439516D01*
X79381610Y-34392287D01*
X79402770Y-34376913D01*
X79547213Y-34271971D01*
X79547215Y-34271968D01*
X79547219Y-34271966D01*
X79691966Y-34127219D01*
X79691968Y-34127215D01*
X79691971Y-34127213D01*
X79744732Y-34054590D01*
X79812287Y-33961610D01*
X79905220Y-33779219D01*
X79968477Y-33584534D01*
X80000500Y-33382352D01*
X80000500Y-33177648D01*
X79994033Y-33136818D01*
X79968477Y-32975465D01*
X79905218Y-32780776D01*
X79867872Y-32707482D01*
X79812287Y-32598390D01*
X79804556Y-32587749D01*
X79691971Y-32432786D01*
X79547213Y-32288028D01*
X79381614Y-32167715D01*
X79375006Y-32164348D01*
X79288917Y-32120483D01*
X79238123Y-32072511D01*
X79221328Y-32004690D01*
X79243865Y-31938555D01*
X79288917Y-31899516D01*
X79381610Y-31852287D01*
X79402770Y-31836913D01*
X79547213Y-31731971D01*
X79547215Y-31731968D01*
X79547219Y-31731966D01*
X79691966Y-31587219D01*
X79691968Y-31587215D01*
X79691971Y-31587213D01*
X79744732Y-31514590D01*
X79812287Y-31421610D01*
X79905220Y-31239219D01*
X79968477Y-31044534D01*
X80000500Y-30842352D01*
X80000500Y-30637648D01*
X79968477Y-30435466D01*
X79905220Y-30240781D01*
X79905218Y-30240778D01*
X79905218Y-30240776D01*
X79871503Y-30174607D01*
X79812287Y-30058390D01*
X79804556Y-30047749D01*
X79691971Y-29892786D01*
X79547213Y-29748028D01*
X79381614Y-29627715D01*
X79375006Y-29624348D01*
X79288917Y-29580483D01*
X79238123Y-29532511D01*
X79221328Y-29464690D01*
X79243865Y-29398555D01*
X79288917Y-29359516D01*
X79381610Y-29312287D01*
X79452006Y-29261142D01*
X79547213Y-29191971D01*
X79547215Y-29191968D01*
X79547219Y-29191966D01*
X79691966Y-29047219D01*
X79691968Y-29047215D01*
X79691971Y-29047213D01*
X79775521Y-28932214D01*
X79812287Y-28881610D01*
X79905220Y-28699219D01*
X79968477Y-28504534D01*
X80000500Y-28302352D01*
X80000500Y-28097648D01*
X79968477Y-27895466D01*
X79905220Y-27700781D01*
X79905218Y-27700778D01*
X79905218Y-27700776D01*
X79822715Y-27538857D01*
X79812287Y-27518390D01*
X79798563Y-27499500D01*
X79691971Y-27352786D01*
X79651366Y-27312181D01*
X79617881Y-27250858D01*
X79622865Y-27181166D01*
X79664737Y-27125233D01*
X79730201Y-27100816D01*
X79739047Y-27100500D01*
X81039560Y-27100500D01*
X81039562Y-27100500D01*
X81115989Y-27080021D01*
X81184511Y-27040460D01*
X81240460Y-26984511D01*
X81280021Y-26915989D01*
X81300500Y-26839562D01*
X81300500Y-24885010D01*
X83245500Y-24885010D01*
X83245500Y-25114989D01*
X83245501Y-25115005D01*
X83275518Y-25343009D01*
X83275519Y-25343014D01*
X83275520Y-25343020D01*
X83275521Y-25343022D01*
X83335046Y-25565175D01*
X83335049Y-25565185D01*
X83423057Y-25777654D01*
X83423061Y-25777664D01*
X83538055Y-25976839D01*
X83678064Y-26159303D01*
X83678070Y-26159310D01*
X83840689Y-26321929D01*
X83840696Y-26321935D01*
X84023160Y-26461944D01*
X84222335Y-26576938D01*
X84222336Y-26576938D01*
X84222339Y-26576940D01*
X84434824Y-26664954D01*
X84656980Y-26724480D01*
X84885004Y-26754500D01*
X84885011Y-26754500D01*
X85114989Y-26754500D01*
X85114996Y-26754500D01*
X85343020Y-26724480D01*
X85565176Y-26664954D01*
X85777661Y-26576940D01*
X85976840Y-26461944D01*
X86159305Y-26321934D01*
X86321934Y-26159305D01*
X86461944Y-25976840D01*
X86576940Y-25777661D01*
X86664954Y-25565176D01*
X86724480Y-25343020D01*
X86754500Y-25114996D01*
X86754500Y-24885004D01*
X86724480Y-24656980D01*
X86664954Y-24434824D01*
X86576940Y-24222339D01*
X86554770Y-24183940D01*
X86461944Y-24023160D01*
X86321935Y-23840696D01*
X86321929Y-23840689D01*
X86159310Y-23678070D01*
X86159303Y-23678064D01*
X85976839Y-23538055D01*
X85777664Y-23423061D01*
X85777654Y-23423057D01*
X85565185Y-23335049D01*
X85565178Y-23335047D01*
X85565176Y-23335046D01*
X85343020Y-23275520D01*
X85343014Y-23275519D01*
X85343009Y-23275518D01*
X85115005Y-23245501D01*
X85115002Y-23245500D01*
X85114996Y-23245500D01*
X84885004Y-23245500D01*
X84884998Y-23245500D01*
X84884994Y-23245501D01*
X84656990Y-23275518D01*
X84656983Y-23275519D01*
X84656980Y-23275520D01*
X84434824Y-23335046D01*
X84434814Y-23335049D01*
X84222345Y-23423057D01*
X84222335Y-23423061D01*
X84023160Y-23538055D01*
X83840696Y-23678064D01*
X83840689Y-23678070D01*
X83678070Y-23840689D01*
X83678064Y-23840696D01*
X83538055Y-24023160D01*
X83423061Y-24222335D01*
X83423057Y-24222345D01*
X83335049Y-24434814D01*
X83335046Y-24434824D01*
X83275521Y-24656977D01*
X83275518Y-24656990D01*
X83245501Y-24884994D01*
X83245500Y-24885010D01*
X81300500Y-24885010D01*
X81300500Y-21006092D01*
X81301097Y-20993939D01*
X81307383Y-20930114D01*
X81312880Y-20874297D01*
X81317618Y-20850473D01*
X81350745Y-20741271D01*
X81360041Y-20718830D01*
X81413831Y-20618196D01*
X81427329Y-20597996D01*
X81499716Y-20509792D01*
X81516895Y-20492613D01*
X81605100Y-20420226D01*
X81625302Y-20406727D01*
X81725935Y-20352938D01*
X81748376Y-20343642D01*
X81857575Y-20310518D01*
X81881402Y-20305779D01*
X81939427Y-20300065D01*
X81965995Y-20300500D01*
G37*
%TD.AperFunction*%
%TD*%
M02*
